<svg xmlns="http://www.w3.org/2000/svg" width="13.396" height="23.403" viewBox="0 0 13.396 23.403">
  <path id="Path_5169" data-name="Path 5169" d="M23.349-9.47a.774.774,0,0,1,.159.477.572.572,0,0,1-.159.424L12.283,2.549a.774.774,0,0,1-.477.159.572.572,0,0,1-.424-.159L.264-8.57a.572.572,0,0,1-.159-.424A.774.774,0,0,1,.264-9.47l1.059-1.059a.572.572,0,0,1,.424-.159.774.774,0,0,1,.477.159L11.807-.945l9.583-9.583a.774.774,0,0,1,.477-.159.572.572,0,0,1,.424.159Z" transform="translate(10.687 23.508) rotate(-90)" fill="#ec2227"/>
</svg>
