<svg xmlns="http://www.w3.org/2000/svg" width="26.963" height="26.957" viewBox="0 0 26.963 26.957">
  <path id="instagram-brands" d="M13.41,38.392A6.912,6.912,0,1,0,20.321,45.3,6.9,6.9,0,0,0,13.41,38.392Zm0,11.405A4.493,4.493,0,1,1,17.9,45.3,4.5,4.5,0,0,1,13.41,49.8Zm8.806-11.688A1.612,1.612,0,1,1,20.6,36.5,1.608,1.608,0,0,1,22.216,38.109Zm4.578,1.636A7.978,7.978,0,0,0,24.616,34.1a8.03,8.03,0,0,0-5.648-2.178c-2.226-.126-8.9-.126-11.122,0A8.019,8.019,0,0,0,2.2,34.091,8,8,0,0,0,.02,39.74c-.126,2.226-.126,8.9,0,11.122A7.978,7.978,0,0,0,2.2,56.51a8.041,8.041,0,0,0,5.648,2.178c2.226.126,8.9.126,11.122,0a7.978,7.978,0,0,0,5.648-2.178,8.03,8.03,0,0,0,2.178-5.648C26.92,48.636,26.92,41.971,26.794,39.746Zm-2.875,13.5a4.549,4.549,0,0,1-2.562,2.563c-1.775.7-5.985.541-7.946.541s-6.178.156-7.946-.541A4.549,4.549,0,0,1,2.9,53.25c-.7-1.775-.541-5.985-.541-7.946S2.2,39.126,2.9,37.358A4.549,4.549,0,0,1,5.464,34.8c1.775-.7,5.985-.541,7.946-.541s6.178-.156,7.946.541a4.549,4.549,0,0,1,2.563,2.563c.7,1.775.541,5.985.541,7.946S24.622,51.481,23.918,53.25Z" transform="translate(0.075 -31.825)" fill="#fff"/>
</svg>
