<svg xmlns="http://www.w3.org/2000/svg" width="66.029" height="98" viewBox="0 0 66.029 98">
  <g id="Group_17917" data-name="Group 17917" transform="translate(-31.262)">
    <rect id="Rectangle_1549" data-name="Rectangle 1549" width="66" height="98" transform="translate(31.291)" fill="none"/>
    <g id="volunteer_1_" data-name="volunteer (1)" transform="translate(31.262)">
      <path id="Path_5149" data-name="Path 5149" d="M148.252,68.138c.044-.789.026-1.676.006-2.726v-.037c-.132-5.839-.791-10.512-3.581-14.342-2.582-3.546-6.753-6.232-14.4-9.273a14.944,14.944,0,0,1-3.266-1.516,6.306,6.306,0,0,1-.313-1.917c-.023-.248-.048-.513-.076-.8A16.507,16.507,0,0,0,132.6,24.815V13.6c0-6.775-5.835-11.381-11.619-12.941-5.73-1.546-10.9-.3-13.512,3.162-5.126.85-8.011,5.111-7.957,11.843v9.154a16.508,16.508,0,0,0,5.947,12.691c-.029.29-.054.559-.078.812a6.323,6.323,0,0,1-.315,1.925,14.939,14.939,0,0,1-3.266,1.517c-2.3.916-4.245,1.78-5.935,2.644A1.908,1.908,0,1,0,97.6,47.8c1.014-.519,2.135-1.041,3.384-1.578a21.542,21.542,0,0,0,30.066-.018c11.387,4.866,13.15,8.8,13.386,19.249v.032c0,.043,0,.083,0,.125a5.483,5.483,0,0,0-.839-.065h-5.271a14.639,14.639,0,0,0-3.476-5.929,11.806,11.806,0,0,0-9.12-3.573,14.123,14.123,0,0,0-9.045,3.845s-.487.455-.638.593c-.152-.138-.638-.592-.638-.592a14.108,14.108,0,0,0-9.042-3.846,11.8,11.8,0,0,0-9.124,3.572,14.624,14.624,0,0,0-3.471,5.929H88.5a5.459,5.459,0,0,0-.867.07c0-.053,0-.1,0-.157a42.889,42.889,0,0,1,.489-6.109,1.908,1.908,0,1,0-3.764-.633,46.439,46.439,0,0,0-.541,6.653c-.024,1.044-.046,1.98,0,2.818a5.426,5.426,0,0,0-.785,2.817v6.317A5.469,5.469,0,0,0,88.5,82.789h5.532a8.571,8.571,0,0,0,4.473-1.253l16.221,15.651a1.908,1.908,0,0,0,2.65,0L133.6,81.536a8.571,8.571,0,0,0,4.473,1.253H143.6a5.472,5.472,0,0,0,5.466-5.465V71.007a5.418,5.418,0,0,0-.819-2.869ZM108.724,7.506a1.908,1.908,0,0,0,1.5-.942c1.688-2.9,6.122-3.207,9.768-2.223,4.378,1.181,8.8,4.5,8.8,9.256v5.568c-5.088.172-11.506-.429-16.24-3.667a1.908,1.908,0,0,0-2.594.417c-1.651,2.162-3.715,2.691-6.619,3.034V15.63c-.041-5.1,1.774-7.831,5.4-8.125Zm-5.394,17.309V22.789c3.116-.348,6.051-.911,8.489-3.25,5.3,3,11.768,3.6,16.965,3.444v1.832a12.727,12.727,0,0,1-25.453,0Zm12.681,23.7a17.769,17.769,0,0,1-11.086-3.9,8.242,8.242,0,0,0,2.928-1.761,4.969,4.969,0,0,0,1.214-3.05,16.526,16.526,0,0,0,13.949.013,4.949,4.949,0,0,0,1.213,3.039A8.171,8.171,0,0,0,127.12,44.6a17.78,17.78,0,0,1-11.11,3.912ZM94.035,78.973H88.5a1.648,1.648,0,0,1-1.644-1.649V71.007A1.666,1.666,0,0,1,88.5,69.364h5.532a4.8,4.8,0,1,1,0,9.609Zm36.827-.094L116.054,93.163,101.25,78.88a8.609,8.609,0,0,0-3.7-12.582,10.791,10.791,0,0,1,2.449-4.028c3.242-3.355,8.99-3.172,12.816.411,0,0,1.671,1.964,3.245,1.911,1.527-.051,3.243-1.914,3.243-1.914,3.828-3.58,9.575-3.764,12.813-.41a10.823,10.823,0,0,1,2.454,4.029,8.608,8.608,0,0,0-3.7,12.581Zm14.392-1.555a1.651,1.651,0,0,1-1.65,1.649h-5.526a4.788,4.788,0,0,1-3.226-1.247l-.021-.024a1.923,1.923,0,0,0-.152-.141,4.8,4.8,0,0,1,3.4-8.2H143.6a1.648,1.648,0,0,1,1.65,1.643Z" transform="translate(-83.042 0)" fill="#ec2227"/>
      <path id="Path_5150" data-name="Path 5150" d="M109.826,262.172a1.909,1.909,0,1,0-1.345-3.259l-.005.005a1.907,1.907,0,0,0,1.351,3.254Z" transform="translate(-103.17 -209.052)" fill="#ec2227"/>
    </g>
  </g>
</svg>
