<svg id="Group_17916" data-name="Group 17916" xmlns="http://www.w3.org/2000/svg" width="97.722" height="98" viewBox="0 0 97.722 98">
  <rect id="Rectangle_1550" data-name="Rectangle 1550" width="97" height="98" transform="translate(0.467)" fill="none"/>
  <g id="gossip" transform="translate(0 3.665)">
    <path id="Path_5151" data-name="Path 5151" d="M91.615,44.63a5.847,5.847,0,0,0-2.481.569V41a6.552,6.552,0,0,0-6.3-6.3,5.5,5.5,0,0,0-2.291.515,6.205,6.205,0,0,0-12.405-.03,6.084,6.084,0,0,0-2.386-.485,6.161,6.161,0,0,0-4.535,2.053c-.272-.65-.566-1.3-.889-1.935A31.5,31.5,0,0,0,57,29.614,34.074,34.074,0,0,0,52.726,25.1,36.486,36.486,0,0,0,47.563,21.3a36.968,36.968,0,0,0-5.795-2.861,36.086,36.086,0,0,0-6.255-1.809A34.992,34.992,0,0,0,28.937,16a29,29,0,0,0-12.353,2.617,25.74,25.74,0,0,0-9.133,7.146A31.532,31.532,0,0,0,1.876,36.312,42.613,42.613,0,0,0,0,49.136,29.945,29.945,0,0,0,.859,55.5c.508,2.239,1.235,4.783,2.161,7.56a1.9,1.9,0,0,0,1.809,1.306,1.87,1.87,0,0,0,.605-.1A1.906,1.906,0,0,0,6.64,61.855c-.886-2.659-1.578-5.079-2.058-7.2a26.389,26.389,0,0,1-.765-5.524c0-8.32,2.338-15.763,6.591-20.959,4.544-5.53,10.8-8.341,18.577-8.36A32.549,32.549,0,0,1,50.2,27.958c6.029,5.327,9.35,12.213,9.349,19.394a1.96,1.96,0,0,0,.244.937L68.766,64.2a1.657,1.657,0,0,1,.326.817.834.834,0,0,1-.286.64,1.2,1.2,0,0,1-.815.307H61.248a1.906,1.906,0,0,0-1.909,1.909v7.191h-4.3a1.909,1.909,0,1,0,0,3.817h4.3V85.9a2,2,0,0,1-.45,1.4,1.506,1.506,0,0,1-1.187.443H48.67a1.909,1.909,0,0,0-1.909,1.909V103.8H16.8V84.9a1.9,1.9,0,0,0-.313-1.046,61.238,61.238,0,0,1-3.447-6.316A1.908,1.908,0,1,0,9.6,79.206a68.158,68.158,0,0,0,3.376,6.255v20.245a1.909,1.909,0,0,0,1.909,1.909H48.67a1.909,1.909,0,0,0,1.909-1.909V91.553h4.326c.482.7,1.026,1.45,1.694,2.329a45.723,45.723,0,0,0,6.768,6.818v5.005a1.909,1.909,0,0,0,1.909,1.909H87.988a1.909,1.909,0,0,0,1.909-1.909v-4.718c5.61-3.02,7.825-9.424,7.825-22.194V50.928a6.212,6.212,0,0,0-6.108-6.3ZM68.138,55.335l-4.772-8.481V41a2.531,2.531,0,0,1,2.386-2.481A2.467,2.467,0,0,1,68.138,41ZM93.9,78.794c0,15.131-3.44,17.865-6.665,19.239a1.908,1.908,0,0,0-1.16,1.756V103.8h-18.9V99.789a1.909,1.909,0,0,0-.736-1.506,44.336,44.336,0,0,1-6.81-6.711l-.207-.274a5.1,5.1,0,0,0,2.258-1.412A5.793,5.793,0,0,0,63.157,85.9V69.782h4.831c.05,0,.1,0,.151,0v2.335a1.909,1.909,0,1,0,3.817,0V67.851a4.653,4.653,0,0,0,.954-2.831,5.2,5.2,0,0,0-.954-2.911V35.277a2.388,2.388,0,0,1,4.772,0V72.113a1.909,1.909,0,0,0,3.817,0V41a2.712,2.712,0,0,1,2.29-2.481A2.813,2.813,0,0,1,85.316,41V73.831a1.909,1.909,0,1,0,3.817,0v-22.9a2.729,2.729,0,0,1,2.481-2.481,2.424,2.424,0,0,1,2.29,2.481Z" transform="translate(0 -16)" fill="#ec2227"/>
    <path id="Path_5152" data-name="Path 5152" d="M226.777,189a12.525,12.525,0,0,0,3.8-.674,1.916,1.916,0,1,0-1.286-3.609,4.691,4.691,0,0,1-2.514.465,7.277,7.277,0,0,1-3.07-.656,1.909,1.909,0,0,0-1.841,3.344A10.781,10.781,0,0,0,226.777,189Z" transform="translate(-178.721 -152.169)" fill="#ec2227"/>
    <path id="Path_5153" data-name="Path 5153" d="M130.924,172.439a1.947,1.947,0,0,0-1.473,1.9,1.578,1.578,0,0,1-.506,1.125,2.045,2.045,0,0,1-1.518.529c-.942-.048-1.955-.663-1.959-1.573a10.727,10.727,0,0,0-1.3-5.345c-1.3-2.014-2.351-4.475-2.351-5.486a5.106,5.106,0,0,1,5.157-4.77,4.781,4.781,0,0,1,2.47.884,1.923,1.923,0,0,0,2.128-3.2,8.512,8.512,0,0,0-4.6-1.5A8.9,8.9,0,0,0,118,163.588c0,2.873,2.656,7.082,2.959,7.552a6.938,6.938,0,0,1,.692,3.22c0,.011,0,.022,0,.033-.012,2.875,2.594,5.256,5.736,5.416a6.247,6.247,0,0,0,4.188-1.578,5.377,5.377,0,0,0,1.694-3.932A1.911,1.911,0,0,0,130.924,172.439Z" transform="translate(-95.478 -128.471)" fill="#ec2227"/>
    <ellipse id="Ellipse_15" data-name="Ellipse 15" cx="1.909" cy="1.909" rx="1.909" ry="1.909" transform="translate(5.92 52.606)" fill="#ec2227"/>
  </g>
</svg>
