<svg xmlns="http://www.w3.org/2000/svg" width="88" height="88" viewBox="0 0 88 88">
  <g id="Group_17893" data-name="Group 17893" transform="translate(8270 5162)">
    <rect id="Rectangle_1526" data-name="Rectangle 1526" width="88" height="88" transform="translate(-8270 -5162)" fill="none"/>
    <g id="success" transform="translate(-8270 -5162)">
      <path id="Path_5138" data-name="Path 5138" d="M.3,82.152l1.18,2.568L43.818,67.746l7.376.856,2.655,7.844-3.541,3.281a4.017,4.017,0,0,0-1.032,4.706L50.752,88l24.489-9.271-1.328-3.423a4.17,4.17,0,0,0-4.13-2.71H64.914l-2.655-6.133,6.491-3.137a4.23,4.23,0,0,0,2.213-5.277L62.554,36.226A4.592,4.592,0,0,0,56.8,33.659a.143.143,0,0,0-.147.143l-6.2,2.567-.885-2.139,3.394-3.851a16.535,16.535,0,0,0,4.278-9.128l4.278-4.992A7.321,7.321,0,0,0,60.488,5.7a12.39,12.39,0,0,0-1.77-1.141A7.562,7.562,0,0,0,53.7,4.135l-.443-1.284A4.305,4.305,0,0,0,47.653.284L16.525,11.124a4.139,4.139,0,0,0-2.655,5.42v.143l.738,1.854a7.809,7.809,0,0,0-4.279,9.7,8.337,8.337,0,0,0,6.786,5.277l6.934.713a19.6,19.6,0,0,0,9.589,3.566l4.868.428.885,2.139a4.255,4.255,0,0,0-2.065,2.853l-1.033,4.849L.3,62.184l1.033,2.71,20.654-7.987L27,71.455Zm70.666-5.99.3.855L52.374,84.291l-.442-.856a1.924,1.924,0,0,1,.3-1.568L57.243,77.3l6.343-2h5.9A1.486,1.486,0,0,1,70.963,76.162Zm-9.294-3.424L56.357,74.45l-1.918-5.42A3.374,3.374,0,0,0,56.8,68.6l2.508-1.141Zm-3.984-36.8a1.484,1.484,0,0,1,1.918.713l1.18,3-7.229,2.282.885,2.71,7.229-2.282,1.77,4.564L56.505,49.2l.885,2.71,7.081-2.282L66.242,54.2l-6.786,2.139.885,2.71,6.933-2.282.738,1.854a1.246,1.246,0,0,1-.738,1.712L55.62,65.893a1.928,1.928,0,0,1-.885.143L44.7,64.894,39.244,49.063l1.033-5.277a1.525,1.525,0,0,1,.885-1ZM57.537,7.13a4.666,4.666,0,0,1,2.508,6.133,4.974,4.974,0,0,1-.738,1.141l-1.771,2.139a20.7,20.7,0,0,0-.885-4.136L54.735,6.845A6.086,6.086,0,0,1,57.537,7.13Zm-44.258,20.4a4.849,4.849,0,0,1,2.508-6.133l2.065,4.85A20.521,20.521,0,0,0,20.8,31.092l-3.1-.286A4.911,4.911,0,0,1,13.279,27.526Zm20.949,7.559a16.067,16.067,0,0,1-13.573-9.841L16.82,15.83a1.4,1.4,0,0,1,.738-1.854L48.686,3.137a1.681,1.681,0,0,1,1.181,0,1.477,1.477,0,0,1,.738.856l3.245,9.414a15.28,15.28,0,0,1-3.1,15.118l-4.574,5.135,1.328,3.423-5.311,2.139-1.475-3.566ZM24.787,55.766l3.393-1.284,3.688,10.84,2.8-.856L30.835,53.342l5.9-2.282,5.016,14.405L29.8,70.314Zm0,0" transform="translate(-0.297 0)" fill="#ec2227"/>
      <path id="Path_5139" data-name="Path 5139" d="M361.331,51.163V52.33h2.334V51.163a5.778,5.778,0,0,1,5.835-5.835V42.994a5.778,5.778,0,0,1-5.835-5.835V35.992h-2.334v1.167a5.778,5.778,0,0,1-5.835,5.835v2.334A5.778,5.778,0,0,1,361.331,51.163Zm1.167-9.8a8.042,8.042,0,0,0,2.8,2.8,8.048,8.048,0,0,0-2.8,2.8,8.048,8.048,0,0,0-2.8-2.8A8.042,8.042,0,0,0,362.5,41.36Zm0,0" transform="translate(-288.021 -30.742)" fill="#ec2227"/>
      <path id="Path_5140" data-name="Path 5140" d="M9.331,211.163v1.167h2.334v-1.167a5.778,5.778,0,0,1,5.835-5.835v-2.334a5.778,5.778,0,0,1-5.835-5.835v-1.167H9.331v1.167A5.778,5.778,0,0,1,3.5,202.994v2.334A5.778,5.778,0,0,1,9.331,211.163Zm1.167-9.8a8.042,8.042,0,0,0,2.8,2.8,8.049,8.049,0,0,0-2.8,2.8,8.049,8.049,0,0,0-2.8-2.8A8.042,8.042,0,0,0,10.5,201.36Zm0,0" transform="translate(-3.029 -159.185)" fill="#ec2227"/>
      <path id="Path_5141" data-name="Path 5141" d="M395.665,197.159v-1.167h-2.334v1.167a5.778,5.778,0,0,1-5.835,5.835v2.334a5.778,5.778,0,0,1,5.835,5.835v1.167h2.334v-1.167a5.778,5.778,0,0,1,5.835-5.835v-2.334A5.778,5.778,0,0,1,395.665,197.159Zm-1.167,9.8a8.049,8.049,0,0,0-2.8-2.8,8.042,8.042,0,0,0,2.8-2.8,8.041,8.041,0,0,0,2.8,2.8A8.048,8.048,0,0,0,394.5,206.962Zm0,0" transform="translate(-315.353 -159.185)" fill="#ec2227"/>
      <path id="Path_5142" data-name="Path 5142" d="M236.531,54.93l1.634,1.634c6.418-6.418.467-16.221.117-16.571L236.3,41.276C236.414,41.276,241.665,49.8,236.531,54.93Zm0,0" transform="translate(-193.659 -34.159)" fill="#ec2227"/>
    </g>
  </g>
</svg>
