<svg xmlns="http://www.w3.org/2000/svg" width="88" height="88" viewBox="0 0 88 88">
  <g id="Group_17894" data-name="Group 17894" transform="translate(8177 5162)">
    <rect id="Rectangle_1527" data-name="Rectangle 1527" width="88" height="88" transform="translate(-8177 -5162)" fill="none"/>
    <g id="statistics" transform="translate(-8177 -5150.548)">
      <path id="Path_5136" data-name="Path 5136" d="M86.708,228.615H80.772V216.9a2.785,2.785,0,0,0-3.014-2.466h-9.2a2.785,2.785,0,0,0-3.014,2.466v3.567a1.318,1.318,0,0,0,2.583,0V216.9a.4.4,0,0,1,.431-.352h9.2a.4.4,0,0,1,.431.352v11.712H68.13V224.7a1.318,1.318,0,0,0-2.583,0v3.919H61.333v-19.4a2.785,2.785,0,0,0-3.014-2.466h-9.2a2.785,2.785,0,0,0-3.014,2.466v19.4H41.893V201.521a2.785,2.785,0,0,0-3.014-2.466h-9.2a2.785,2.785,0,0,0-3.014,2.466v5.436a1.318,1.318,0,0,0,2.583,0v-5.436a.4.4,0,0,1,.431-.352h9.2a.4.4,0,0,1,.431.352v27.093H29.251v-17.43a1.318,1.318,0,0,0-2.583,0v17.43H22.453V193.831a2.785,2.785,0,0,0-3.014-2.466h-9.2a2.785,2.785,0,0,0-3.014,2.466v34.784H1.292a1.078,1.078,0,1,0,0,2.114H86.708a1.078,1.078,0,1,0,0-2.114Zm-38.018-19.4a.4.4,0,0,1,.431-.352h9.2a.4.4,0,0,1,.431.352v19.4H48.69ZM9.811,193.831a.4.4,0,0,1,.43-.352h9.2a.4.4,0,0,1,.431.352v34.784H9.811Z" transform="translate(0 -154.18)" fill="#ec2227"/>
      <path id="Path_5137" data-name="Path 5137" d="M84.089,59.606a82.446,82.446,0,0,0,34,8.439v4.338c-.035.874,1.4,1.395,2.233.8L134.7,63.579a.922.922,0,0,0,0-1.606L120.319,52.35c-.827-.591-2.271-.073-2.234.8v4.379a63.633,63.633,0,0,1-13.39-1.217,1.406,1.406,0,0,0-1.63.783c-.173.568.275,1.138,1,1.273,9.585,1.784,15.312,1.215,15.551,1.19a1.185,1.185,0,0,0,1.173-1.047V55.449l10.948,7.326-10.948,7.313V67.022a1.225,1.225,0,0,0-1.321-1.057,79.374,79.374,0,0,1-33.935-8.146A81.985,81.985,0,0,1,64.959,43.283c-.3-.2.215-.6.47-.369A119.434,119.434,0,0,0,98.615,57.181a1.458,1.458,0,0,0,1.7-.685c.227-.556-.166-1.151-.878-1.328A116.445,116.445,0,0,1,67.1,41.25c-2.71-1.768-6.547,1.263-4.248,3.357A83.393,83.393,0,0,0,84.089,59.606Z" transform="translate(-53.406 -40.717)" fill="#ec2227"/>
    </g>
  </g>
</svg>
