<svg xmlns="http://www.w3.org/2000/svg" width="28.44" height="23.099" viewBox="0 0 28.44 23.099">
  <path id="twitter-brands" d="M25.516,53.839c.018.253.018.505.018.758,0,7.705-5.865,16.584-16.584,16.584A16.471,16.471,0,0,1,0,68.564a12.059,12.059,0,0,0,1.408.072,11.673,11.673,0,0,0,7.236-2.49A5.839,5.839,0,0,1,3.194,62.1a7.349,7.349,0,0,0,1.1.09A6.165,6.165,0,0,0,5.829,62a5.83,5.83,0,0,1-4.674-5.721V56.2a5.87,5.87,0,0,0,2.635.74,5.837,5.837,0,0,1-1.8-7.8A16.568,16.568,0,0,0,14,55.246a6.58,6.58,0,0,1-.144-1.335,5.834,5.834,0,0,1,10.087-3.988,11.475,11.475,0,0,0,3.7-1.408,5.813,5.813,0,0,1-2.562,3.212,11.685,11.685,0,0,0,3.356-.9A12.53,12.53,0,0,1,25.516,53.839Z" transform="translate(0 -48.082)" fill="#fff"/>
</svg>
