<svg xmlns="http://www.w3.org/2000/svg" width="32.851" height="23.099" viewBox="0 0 32.851 23.099">
  <path id="youtube-brands" d="M47.1,67.614a4.128,4.128,0,0,0-2.9-2.923C41.632,64,31.359,64,31.359,64s-10.273,0-12.835.691a4.128,4.128,0,0,0-2.9,2.923,46.477,46.477,0,0,0,0,15.917,4.066,4.066,0,0,0,2.9,2.877c2.562.691,12.835.691,12.835.691s10.273,0,12.835-.691a4.066,4.066,0,0,0,2.9-2.877,46.477,46.477,0,0,0,0-15.917ZM28,80.457V70.688l8.586,4.885Z" transform="translate(-14.933 -64)" fill="#fff"/>
</svg>
