<?xml version="1.0" standalone="no"?>
<!DOCTYPE svg PUBLIC "-//W3C//DTD SVG 1.1//EN" "http://www.w3.org/Graphics/SVG/1.1/DTD/svg11.dtd" >
<svg xmlns="http://www.w3.org/2000/svg" xmlns:xlink="http://www.w3.org/1999/xlink" version="1.1">
<metadata>
Created by FontForge 20201107 at Fri Nov 23 01:50:02 2018
 By Jimmy Wärting
Copyright (c) 2007-2008 Canada Type. All rights reserved.
</metadata>
<defs>
<font id="PressGothic" horiz-adv-x="0" >
  <font-face 
    font-family="Press Gothic"
    font-weight="400"
    font-stretch="normal"
    units-per-em="1000"
    panose-1="2 0 5 6 0 0 0 2 0 4"
    ascent="844"
    descent="-156"
    x-height="648"
    cap-height="814"
    bbox="-95 -331 1794 1050"
    underline-thickness="70"
    underline-position="-120"
    unicode-range="U+0020-FB04"
  />
<missing-glyph horiz-adv-x="175" 
 />
    <glyph glyph-name=".notdef" horiz-adv-x="175" 
 />
    <glyph glyph-name=".null" 
 />
    <glyph glyph-name="nonmarkingreturn" horiz-adv-x="175" 
 />
    <glyph glyph-name="space" unicode=" " horiz-adv-x="175" 
 />
    <glyph glyph-name="exclam" unicode="!" horiz-adv-x="181" 
d="M15 814h151l-30 -648h-91zM156 0h-131v121h131v-121z" />
    <glyph glyph-name="quotedbl" unicode="&#x22;" horiz-adv-x="319" 
d="M33 584l-23 230h134l-21 -230h-90zM198 584l-23 230h134l-21 -230h-90z" />
    <glyph glyph-name="numbersign" unicode="#" horiz-adv-x="726" 
d="M158 435v-435h-128v814h147l87 -437v437h132v-814h-153zM706 404q0 -73 -26 -101.5t-86 -28.5h-32q-62 0 -91 29.5t-29 100.5v145q0 72 26 100.5t86 28.5h31q63 0 92 -29.5t29 -99.5v-145zM594 560q0 12 -6 18.5t-14 6.5t-14.5 -6.5t-6.5 -18.5v-167q0 -13 6 -19.5
t14 -6.5t14.5 6.5t6.5 19.5v167zM454 227h240v-90h-240v90z" />
    <glyph glyph-name="dollar" unicode="$" horiz-adv-x="364" 
d="M206 262q0 24 -14 44.5t-34.5 40.5t-44.5 40.5t-44.5 44t-34.5 50.5t-14 61v153q0 71 26.5 99.5t85.5 29.5v95h107v-96q54 -3 77 -32.5t23 -95.5v-147h-133v148q0 12 -6.5 18.5t-15.5 6.5q-10 0 -16.5 -6.5t-6.5 -18.5v-130q0 -23 13.5 -42t34 -37t44 -37t44 -42.5
t34 -52t13.5 -66.5v-169q0 -70 -25 -99t-80 -31v-91h-107v91q-57 2 -82 32t-25 98v170h136v-171q0 -25 22 -25q10 0 16.5 6.5t6.5 18.5v142z" />
    <glyph glyph-name="percent" unicode="%" horiz-adv-x="686" 
d="M551 814l-322 -814h-94l323 814h93zM284 545q0 -73 -26 -101.5t-86 -28.5h-32q-62 0 -91 29.5t-29 100.5v145q0 72 26 100.5t86 28.5h31q63 0 92 -29.5t29 -99.5v-145zM172 701q0 12 -6 18.5t-14 6.5t-14.5 -6.5t-6.5 -18.5v-167q0 -13 6 -19.5t14 -6.5t14.5 6.5
t6.5 19.5v167zM666 125q0 -73 -26 -101.5t-86 -28.5h-32q-62 0 -91 29.5t-29 100.5v145q0 72 26 100.5t86 28.5h31q63 0 92 -29.5t29 -99.5v-145zM554 281q0 12 -6 18.5t-14 6.5t-14.5 -6.5t-6.5 -18.5v-167q0 -13 6 -19.5t14 -6.5t14.5 6.5t6.5 19.5v167z" />
    <glyph glyph-name="ampersand" unicode="&#x26;" horiz-adv-x="370" 
d="M202 690q0 13 -7 19.5t-15 6.5t-15 -6.5t-7 -19.5v-191q0 -11 6.5 -18t14.5 -7h181v-107h-25v-241q0 -71 -29.5 -100.5t-91.5 -29.5h-68q-62 0 -91.5 29.5t-29.5 100.5v169q0 61 18.5 90.5t60.5 36.5q-42 8 -60.5 37t-18.5 91v140q0 71 29.5 100.5t91.5 29.5h68
q62 0 91.5 -29.5t29.5 -100.5v-90h-133v90zM158 126q0 -13 7 -19.5t15 -6.5t15 6.5t7 19.5v242h-21q-8 0 -15.5 -6.5t-7.5 -18.5v-217z" />
    <glyph glyph-name="quotesingle" unicode="'" horiz-adv-x="154" 
d="M33 584l-23 230h134l-21 -230h-90z" />
    <glyph glyph-name="parenleft" unicode="(" horiz-adv-x="226" 
d="M25 685q0 72 26.5 100.5t86.5 28.5h72v-103h-40q-10 0 -16.5 -6.5t-6.5 -18.5v-558q0 -12 6.5 -18.5t16.5 -6.5h41v-103h-73q-60 0 -86.5 28.5t-26.5 100.5v556z" />
    <glyph glyph-name="parenright" unicode=")" horiz-adv-x="226" 
d="M201 129q0 -72 -26.5 -100.5t-86.5 -28.5h-73v103h41q10 0 16.5 6.5t6.5 18.5v558q0 12 -6.5 18.5t-16.5 6.5h-40v103h72q60 0 86.5 -28.5t26.5 -100.5v-556z" />
    <glyph glyph-name="asterisk" unicode="*" horiz-adv-x="253" 
d="M155 814v-71l65 22l20 -52l-65 -27l41 -58l-44 -33l-45 59l-43 -59l-46 33l41 60l-66 25l19 52l68 -22v71h55z" />
    <glyph glyph-name="plus" unicode="+" horiz-adv-x="420" 
d="M10 369h155v155h90v-155h155v-90h-155v-155h-90v155h-155v90z" />
    <glyph glyph-name="comma" unicode="," horiz-adv-x="161" 
d="M146 0l-111 -140l35 140h-55v121h131v-121z" />
    <glyph glyph-name="hyphen" unicode="-" horiz-adv-x="260" 
d="M10 369h240v-90h-240v90z" />
    <glyph glyph-name="period" unicode="." horiz-adv-x="161" 
d="M146 0h-131v121h131v-121z" />
    <glyph glyph-name="slash" unicode="/" horiz-adv-x="349" 
d="M348 829l-233 -843h-114l234 843h113z" />
    <glyph glyph-name="zero" unicode="0" horiz-adv-x="361" 
d="M336 126q0 -73 -26.5 -101.5t-86.5 -28.5h-78q-62 0 -91 30t-29 100v564q0 73 26 101.5t86 28.5h78q62 0 91.5 -29.5t29.5 -100.5v-564zM203 690q0 13 -7 19.5t-15 6.5t-16 -6.5t-8 -19.5v-564q0 -12 7.5 -18.5t15.5 -6.5t15.5 6.5t7.5 18.5v564z" />
    <glyph glyph-name="one" unicode="1" horiz-adv-x="261" 
d="M99 612h-89v82q27 0 48 10.5t35 27.5t21 38.5t7 43.5h110v-814h-132v612z" />
    <glyph glyph-name="two" unicode="2" horiz-adv-x="351" 
d="M20 150q0 38 12.5 71.5t31.5 65.5t41 63.5t41 65.5t31.5 71t12.5 80v125q0 12 -6.5 18.5t-16.5 6.5q-9 0 -15.5 -6.5t-6.5 -18.5v-152h-123v151q0 35 5 59.5t17 40t32.5 22.5t51.5 7h80q60 0 86.5 -28.5t26.5 -100.5v-164q0 -42 -12 -79t-30 -70.5t-39.5 -65t-39.5 -62.5
t-30 -62.5t-12 -65.5v-22h173v-100h-311v150z" />
    <glyph glyph-name="three" unicode="3" horiz-adv-x="360" 
d="M158 560h-133v130q0 71 29.5 100.5t91.5 29.5h68q62 0 91.5 -29.5t29.5 -100.5v-140q0 -62 -18.5 -91t-60.5 -37q42 -7 60.5 -36.5t18.5 -90.5v-169q0 -71 -29.5 -100.5t-91.5 -29.5h-68q-62 0 -91.5 29.5t-29.5 100.5v164h133v-164q0 -13 7 -19.5t15 -6.5t15 6.5t7 19.5
v217q0 12 -7.5 18.5t-15.5 6.5h-71v106h73q8 0 14.5 7t6.5 18v191q0 13 -7 19.5t-15 6.5t-15 -6.5t-7 -19.5v-130z" />
    <glyph glyph-name="four" unicode="4" horiz-adv-x="374" 
d="M192 195h-182v117l119 493h193v-508h42v-102h-42v-195h-130v195zM192 297v383l-65 -383h65z" />
    <glyph glyph-name="five" unicode="5" horiz-adv-x="360" 
d="M315 714h-158v-163q14 20 37 24.5t43 4.5q31 0 50.5 -5.5t30 -19t14 -36t3.5 -56.5v-337q0 -71 -29.5 -100.5t-91.5 -29.5h-68q-62 0 -91.5 29.5t-29.5 100.5v164h133v-174q0 -13 7 -19.5t15 -6.5t15 6.5t7 19.5v334q0 12 -7.5 18.5t-15.5 6.5t-14.5 -7t-6.5 -18v-50
h-133v414h290v-100z" />
    <glyph glyph-name="six" unicode="6" horiz-adv-x="360" 
d="M157 464q14 20 37 24.5t43 4.5q31 0 50.5 -5.5t30 -19t14 -36t3.5 -56.5v-250q0 -71 -29.5 -100.5t-91.5 -29.5h-68q-62 0 -91.5 29.5t-29.5 100.5v564q0 71 29.5 100.5t91.5 29.5h68q62 0 91.5 -29.5t29.5 -100.5v-144h-133v144q0 13 -7 19.5t-15 6.5t-15 -6.5t-7 -19.5
zM202 373q0 12 -7.5 18.5t-15.5 6.5t-14.5 -7t-6.5 -18v-247q0 -13 7 -19.5t15 -6.5t15 6.5t7 19.5v247z" />
    <glyph glyph-name="seven" unicode="7" horiz-adv-x="286" 
d="M161 0h-134l123 714h-140v100h266v-111z" />
    <glyph glyph-name="eight" unicode="8" horiz-adv-x="360" 
d="M146 -4q-62 0 -91.5 29.5t-29.5 100.5v169q0 61 18.5 90.5t60.5 36.5q-42 8 -60.5 37t-18.5 91v140q0 71 29.5 100.5t91.5 29.5h68q62 0 91.5 -29.5t29.5 -100.5v-140q0 -62 -18.5 -91t-60.5 -37q42 -7 60.5 -36.5t18.5 -90.5v-169q0 -71 -29.5 -100.5t-91.5 -29.5h-68z
M179 368q-8 -1 -14.5 -7.5t-6.5 -17.5v-217q0 -13 7 -19.5t15 -6.5t15 6.5t7 19.5v217q0 12 -7.5 18.5t-15.5 6.5zM158 499q0 -12 7.5 -18.5t15.5 -6.5t14.5 7t6.5 18v191q0 13 -7 19.5t-15 6.5t-15 -6.5t-7 -19.5v-191z" />
    <glyph glyph-name="nine" unicode="9" horiz-adv-x="360" 
d="M203 372q-14 -20 -37 -24.5t-43 -4.5q-32 0 -51 5.5t-29.5 19t-14 36t-3.5 56.5v230q0 71 29.5 100.5t91.5 29.5h68q62 0 91.5 -29.5t29.5 -100.5v-564q0 -71 -29.5 -100.5t-91.5 -29.5h-68q-62 0 -91.5 29.5t-29.5 100.5v164h133v-164q0 -13 7 -19.5t15 -6.5t15 6.5
t7 19.5zM158 463q0 -12 7.5 -18.5t15.5 -6.5t14.5 7t6.5 18v227q0 13 -7 19.5t-15 6.5t-15 -6.5t-7 -19.5v-227z" />
    <glyph glyph-name="colon" unicode=":" horiz-adv-x="171" 
d="M151 0h-131v121h131v-121zM151 350h-131v121h131v-121z" />
    <glyph glyph-name="semicolon" unicode=";" horiz-adv-x="171" 
d="M151 350h-131v121h131v-121zM151 0l-111 -140l35 140h-55v121h131v-121z" />
    <glyph glyph-name="less" unicode="&#x3c;" horiz-adv-x="302" 
d="M152 625h135l-137 -238l137 -252h-135l-137 252z" />
    <glyph glyph-name="equal" unicode="=" horiz-adv-x="430" 
d="M15 474h400v-90h-400v90zM15 264h400v-90h-400v90z" />
    <glyph glyph-name="greater" unicode="&#x3e;" horiz-adv-x="302" 
d="M287 387l-137 -252h-135l137 252l-137 238h135z" />
    <glyph glyph-name="question" unicode="?" horiz-adv-x="347" 
d="M76 166v124q0 38 8.5 62.5t21.5 42.5t28.5 33t28.5 33t21.5 43t8.5 63v125q0 12 -6.5 18.5t-16.5 6.5q-9 0 -15.5 -6.5t-6.5 -18.5v-143h-128v142q0 70 26.5 99.5t89.5 29.5h78q60 0 86.5 -28.5t26.5 -100.5v-148q0 -49 -9 -82t-22 -56.5t-29 -39.5t-29 -31t-22 -31.5
t-9 -40.5v-96h-131zM207 0h-131v121h131v-121z" />
    <glyph glyph-name="at" unicode="@" horiz-adv-x="846" 
d="M412 815q93 0 170 -33t132.5 -89t86 -129.5t30.5 -155.5q0 -85 -32 -159t-87.5 -129.5t-130 -87.5t-158.5 -32q-85 0 -159 32t-129.5 87.5t-87.5 129.5t-32 159q0 90 34.5 165t91 128.5t127.5 83.5t144 30zM430 713q-70 0 -127.5 -25t-98.5 -67t-63.5 -97t-22.5 -116
q0 -64 23.5 -119.5t65 -97t97 -65.5t119.5 -24q63 0 118.5 24t97.5 65.5t66 97t24 119.5q0 67 -26 123t-68.5 96.5t-96 63t-108.5 22.5zM272 515q0 37 7.5 61t20 37.5t30 18.5t38.5 5q17 0 38.5 -8t37.5 -24v23h132v-449h-121l-11 26q-16 -16 -37.5 -24t-38.5 -8
q-21 0 -38.5 5t-30 18.5t-20 37.5t-7.5 62v219zM444 512q0 13 -6.5 19.5t-14.5 6.5t-14 -6.5t-6 -19.5v-214q0 -13 6 -19t14 -6t14.5 6t6.5 19v214z" />
    <glyph glyph-name="A" unicode="A" horiz-adv-x="374" 
d="M81 814h215l78 -814h-136l-16 205h-70l-15 -205h-137zM160 315h54l-27 359z" />
    <glyph glyph-name="B" unicode="B" horiz-adv-x="381" 
d="M361 130q0 -71 -29.5 -100.5t-91.5 -29.5h-210v814h210q62 0 91.5 -29.5t29.5 -100.5v-134q0 -62 -18.5 -91t-60.5 -37q42 -7 60.5 -36.5t18.5 -90.5v-165zM218 343q0 12 -7.5 18.5t-15.5 6.5h-23v-264h24q8 0 15 6.5t7 19.5v213zM218 684q0 13 -7 19.5t-15 6.5h-24v-236
h23q8 0 15.5 6.5t7.5 18.5v185z" />
    <glyph glyph-name="C" unicode="C" horiz-adv-x="370" 
d="M213 295h137v-174q0 -73 -26 -101.5t-86 -28.5h-93q-62 0 -91 30t-29 100v574q0 73 26 101.5t86 28.5h92q63 0 92 -29.5t29 -100.5v-145h-137v145q0 13 -7 19.5t-15 6.5t-16 -6.5t-8 -19.5v-574q0 -12 7.5 -18.5t15.5 -6.5t15.5 6.5t7.5 18.5v174z" />
    <glyph glyph-name="D" unicode="D" horiz-adv-x="386" 
d="M361 130q0 -73 -26.5 -101.5t-86.5 -28.5h-218v814h210q62 0 91.5 -29.5t29.5 -100.5v-554zM218 684q0 13 -7 19.5t-15 6.5h-24v-605h23q8 0 15.5 6.5t7.5 18.5v554z" />
    <glyph glyph-name="E" unicode="E" horiz-adv-x="294" 
d="M279 0h-249v814h249v-110h-107v-235h97v-110h-97v-249h107v-110z" />
    <glyph glyph-name="F" unicode="F" horiz-adv-x="289" 
d="M172 0h-142v814h249v-110h-107v-235h97v-110h-97v-359z" />
    <glyph glyph-name="G" unicode="G" horiz-adv-x="376" 
d="M356 121q0 -73 -26.5 -101.5t-86.5 -28.5h-98q-62 0 -91 30t-29 100v574q0 73 26 101.5t86 28.5h92q63 0 92 -29.5t29 -100.5v-145h-137v145q0 13 -7 19.5t-15 6.5t-16 -6.5t-8 -19.5v-574q0 -12 7.5 -18.5t15.5 -6.5t15.5 6.5t7.5 18.5v170h-25v111h168v-281z" />
    <glyph glyph-name="H" unicode="H" horiz-adv-x="391" 
d="M218 359h-46v-359h-142v814h142v-345h46v345h143v-814h-143v359z" />
    <glyph glyph-name="I" unicode="I" horiz-adv-x="202" 
d="M30 814h142v-814h-142v814z" />
    <glyph glyph-name="J" unicode="J" horiz-adv-x="218" 
d="M50 814h143v-680q0 -73 -30 -106.5t-83 -33.5q-17 0 -35 1t-35 5v95q4 0 11 1.5t13.5 5t11 10.5t4.5 19v683z" />
    <glyph glyph-name="K" unicode="K" horiz-adv-x="409" 
d="M299 421l105 -421h-146l-86 384v-384h-142v814h142v-349l62 349h139z" />
    <glyph glyph-name="L" unicode="L" horiz-adv-x="285" 
d="M30 814h142v-704h103v-110h-245v814z" />
    <glyph glyph-name="M" unicode="M" horiz-adv-x="519" 
d="M291 0h-62l-68 478v-478h-131v814h164l65 -395l66 395h164v-814h-131v478z" />
    <glyph glyph-name="N" unicode="N" horiz-adv-x="426" 
d="M158 435v-435h-128v814h147l87 -437v437h132v-814h-153z" />
    <glyph glyph-name="O" unicode="O" horiz-adv-x="381" 
d="M356 121q0 -73 -26.5 -101.5t-86.5 -28.5h-98q-62 0 -91 30t-29 100v574q0 73 26 101.5t86 28.5h98q62 0 91.5 -29.5t29.5 -100.5v-574zM213 695q0 13 -7 19.5t-15 6.5t-16 -6.5t-8 -19.5v-574q0 -12 7.5 -18.5t15.5 -6.5t15.5 6.5t7.5 18.5v574z" />
    <glyph glyph-name="P" unicode="P" horiz-adv-x="381" 
d="M361 424q0 -35 -6.5 -58.5t-22.5 -37.5t-44 -20t-71 -6h-45v-302h-142v814h210q62 0 91.5 -29.5t29.5 -100.5v-260zM218 684q0 13 -7 19.5t-15 6.5h-24v-302h23q8 0 15.5 6.5t7.5 18.5v251z" />
    <glyph glyph-name="Q" unicode="Q" horiz-adv-x="381" 
d="M356 121q0 -73 -26.5 -101.5t-86.5 -28.5h-5v-56h-88v56h-5q-62 0 -91 30t-29 100v574q0 73 26 101.5t86 28.5h98q62 0 91.5 -29.5t29.5 -100.5v-574zM213 695q0 13 -7 19.5t-15 6.5t-16 -6.5t-8 -19.5v-574q0 -12 7.5 -18.5t15.5 -6.5t15.5 6.5t7.5 18.5v574z" />
    <glyph glyph-name="R" unicode="R" horiz-adv-x="386" 
d="M361 0h-143v297q0 12 -7.5 18.5t-15.5 6.5h-23v-322h-142v814h210q62 0 91.5 -29.5t29.5 -100.5v-180q0 -62 -18.5 -91t-60.5 -37q42 -7 60.5 -36.5t18.5 -90.5v-249zM218 684q0 13 -7 19.5t-15 6.5h-24v-282h23q8 0 15.5 6.5t7.5 18.5v231z" />
    <glyph glyph-name="S" unicode="S" horiz-adv-x="364" 
d="M206 262q0 24 -14 44.5t-34.5 40.5t-44.5 40.5t-44.5 44t-34.5 50.5t-14 61v153q0 72 26.5 100.5t86.5 28.5h90q63 0 89.5 -29.5t26.5 -99.5v-147h-133v148q0 12 -6.5 18.5t-15.5 6.5q-10 0 -16.5 -6.5t-6.5 -18.5v-130q0 -23 13.5 -42t34 -37t44 -37t44 -42.5t34 -52
t13.5 -66.5v-169q0 -72 -26.5 -101t-86.5 -29h-91q-62 0 -88.5 30t-26.5 100v170h136v-171q0 -25 22 -25q10 0 16.5 6.5t6.5 18.5v142z" />
    <glyph glyph-name="T" unicode="T" horiz-adv-x="319" 
d="M88 704h-78v110h299v-110h-78v-704h-143v704z" />
    <glyph glyph-name="U" unicode="U" horiz-adv-x="381" 
d="M213 814h143v-693q0 -73 -26.5 -101.5t-86.5 -28.5h-98q-62 0 -91 30t-29 100v693h142v-693q0 -12 7.5 -18.5t15.5 -6.5t15.5 6.5t7.5 18.5v693z" />
    <glyph glyph-name="V" unicode="V" horiz-adv-x="369" 
d="M0 814h147l38 -604l38 604h146l-78 -814h-210z" />
    <glyph glyph-name="W" unicode="W" horiz-adv-x="574" 
d="M513 0h-183l-43 603l-43 -603h-183l-61 814h137l28 -589l38 589h168l38 -589l28 589h137z" />
    <glyph glyph-name="X" unicode="X" horiz-adv-x="392" 
d="M317 421l70 -421h-146l-45 326l-45 -326h-146l70 421l-60 393h140l41 -299l41 299h139z" />
    <glyph glyph-name="Y" unicode="Y" horiz-adv-x="357" 
d="M250 239v-239h-142v240l-108 574h135l44 -366l44 366h134z" />
    <glyph glyph-name="Z" unicode="Z" horiz-adv-x="304" 
d="M15 112l136 602h-131v100h269v-111l-136 -603h136v-100h-274v112z" />
    <glyph glyph-name="bracketleft" unicode="[" horiz-adv-x="225" 
d="M25 814h185v-110h-63v-594h63v-110h-185v814z" />
    <glyph glyph-name="backslash" unicode="\" horiz-adv-x="349" 
d="M114 829l234 -843h-114l-233 843h113z" />
    <glyph glyph-name="bracketright" unicode="]" horiz-adv-x="225" 
d="M200 0h-185v110h63v594h-63v110h185v-814z" />
    <glyph glyph-name="asciicircum" unicode="^" horiz-adv-x="356" 
d="M206 800l145 -145l-63 -63l-110 110l-110 -110l-63 63l145 145h56z" />
    <glyph glyph-name="underscore" unicode="_" horiz-adv-x="380" 
d="M0 45h380v-90h-380v90z" />
    <glyph glyph-name="grave" unicode="`" horiz-adv-x="300" 
d="M0 818h157l77 -118h-89z" />
    <glyph glyph-name="a" unicode="a" horiz-adv-x="350" 
d="M205 0l-10 21q-16 -16 -38.5 -23t-39.5 -7q-21 0 -38.5 5t-30.5 18.5t-20.5 37t-7.5 61.5v152q0 40 14 63.5t37.5 36.5t55 19t66.5 11v140q0 12 -6.5 18.5t-14.5 6.5t-14 -6.5t-6 -18.5v-102h-126v91q0 70 26.5 99.5t88.5 29.5h76q59 0 83.5 -28.5t24.5 -100.5v-524h-120
zM152 116q0 -13 6 -19.5t14 -6.5t14.5 6.5t6.5 19.5v187q-19 -1 -30 -7t-11 -19v-161z" />
    <glyph glyph-name="b" unicode="b" horiz-adv-x="354" 
d="M329 117q0 -38 -7.5 -62t-20.5 -37.5t-30.5 -18.5t-38.5 -5q-17 0 -38.5 8t-37.5 24l-11 -26h-120v814h131v-189q16 16 37.5 24t38.5 8q21 0 38.5 -5t30.5 -18.5t20.5 -37.5t7.5 -61v-418zM156 119q0 -13 6.5 -19t14.5 -6t14 6t6 19v413q0 13 -6 19.5t-14 6.5t-14.5 -6.5
t-6.5 -19.5v-413z" />
    <glyph glyph-name="c" unicode="c" horiz-adv-x="344" 
d="M197 241h127v-114q0 -73 -24 -101.5t-83 -28.5h-72q-62 0 -91 29.5t-29 100.5v397q0 72 26 100.5t86 28.5h71q63 0 89.5 -29.5t26.5 -99.5v-95h-127v106q0 12 -6 18.5t-14 6.5t-14.5 -6.5t-6.5 -18.5v-419q0 -13 6 -19.5t14 -6.5t14.5 6.5t6.5 19.5v125z" />
    <glyph glyph-name="d" unicode="d" horiz-adv-x="354" 
d="M25 535q0 37 7.5 61t20 37.5t30 18.5t38.5 5q17 0 38.5 -8t37.5 -24v189h132v-814h-121l-11 26q-16 -16 -37.5 -24t-38.5 -8q-21 0 -38.5 5t-30 18.5t-20 37.5t-7.5 62v418zM197 532q0 13 -6.5 19.5t-14.5 6.5t-14 -6.5t-6 -19.5v-413q0 -13 6 -19t14 -6t14.5 6t6.5 19
v413z" />
    <glyph glyph-name="e" unicode="e" horiz-adv-x="348" 
d="M196 241h127v-114q0 -73 -24 -101.5t-83 -28.5h-71q-62 0 -91 29.5t-29 100.5v397q0 72 26 100.5t86 28.5h65q62 0 91.5 -29.5t29.5 -99.5v-226h-168v-182q0 -13 6 -19.5t14 -6.5t14.5 6.5t6.5 19.5v125zM155 381h41v154q0 12 -6 18.5t-14 6.5t-14.5 -6.5t-6.5 -18.5
v-154z" />
    <glyph glyph-name="f" unicode="f" horiz-adv-x="222" 
d="M5 648h33v48q0 37 6 60t18.5 36t31 17.5t43.5 4.5h80v-90h-27q-8 0 -14 -6.5t-6 -19.5v-50h45v-90h-45v-558h-132v558h-33v90z" />
    <glyph glyph-name="g" unicode="g" horiz-adv-x="354" 
d="M197 23q-16 -16 -37.5 -24t-38.5 -8q-21 0 -38.5 5t-30 18.5t-20 37t-7.5 61.5v418q0 37 7.5 61t20 37.5t30 18.5t38.5 5q17 0 38.5 -8t37.5 -24l11 27h121v-668q0 -36 -5.5 -61t-18 -40.5t-32.5 -22t-50 -6.5h-85q-31 0 -51 7t-31.5 20.5t-16 33.5t-4.5 46h121
q0 -13 20 -13q8 0 14.5 6.5t6.5 18.5v54zM197 529q0 13 -6.5 19t-14.5 6t-14 -6t-6 -19v-413q0 -13 6 -19.5t14 -6.5t14.5 6.5t6.5 19.5v413z" />
    <glyph glyph-name="h" unicode="h" horiz-adv-x="354" 
d="M156 0h-131v814h131v-189q16 16 37.5 24t38.5 8q21 0 38.5 -5t30.5 -18.5t20.5 -37.5t7.5 -61v-535h-132v532q0 13 -6 19.5t-14 6.5t-14.5 -6.5t-6.5 -19.5v-532z" />
    <glyph glyph-name="i" unicode="i" horiz-adv-x="181" 
d="M25 648h131v-648h-131v648zM156 693h-131v121h131v-121z" />
    <glyph glyph-name="j" unicode="j" horiz-adv-x="181" 
d="M25 648h131v-797h-131v797zM156 693h-131v121h131v-121z" />
    <glyph glyph-name="k" unicode="k" horiz-adv-x="343" 
d="M25 814h131v-443l48 277h127l-57 -306l69 -342h-133l-54 308v-308h-131v814z" />
    <glyph glyph-name="l" unicode="l" horiz-adv-x="181" 
d="M25 814h131v-814h-131v814z" />
    <glyph glyph-name="m" unicode="m" horiz-adv-x="527" 
d="M156 0h-131v648h118l11 -21q16 16 38.5 23t39.5 7q27 0 48 -9t34 -34q19 25 46.5 34t44.5 9q21 0 38.5 -5t30.5 -18.5t20.5 -37.5t7.5 -61v-535h-132v532q0 13 -6 19.5t-14 6.5q-19 0 -21 -23v-535h-132v532q0 13 -6 19.5t-14 6.5t-14.5 -6.5t-6.5 -19.5v-532z" />
    <glyph glyph-name="n" unicode="n" horiz-adv-x="354" 
d="M156 0h-131v648h118l11 -21q16 16 38.5 23t39.5 7q21 0 38.5 -5t30.5 -18.5t20.5 -37.5t7.5 -61v-535h-132v532q0 13 -6 19.5t-14 6.5t-14.5 -6.5t-6.5 -19.5v-532z" />
    <glyph glyph-name="o" unicode="o" horiz-adv-x="354" 
d="M329 127q0 -73 -26 -101.5t-86 -28.5h-72q-62 0 -91 29.5t-29 100.5v397q0 72 26 100.5t86 28.5h71q63 0 92 -29.5t29 -99.5v-397zM197 535q0 12 -6 18.5t-14 6.5t-14.5 -6.5t-6.5 -18.5v-419q0 -13 6 -19.5t14 -6.5t14.5 6.5t6.5 19.5v419z" />
    <glyph glyph-name="p" unicode="p" horiz-adv-x="354" 
d="M329 113q0 -38 -7.5 -61.5t-20.5 -37t-30.5 -18.5t-38.5 -5q-17 0 -38.5 8t-37.5 24v-173h-131v798h120l11 -27q16 16 37.5 24t38.5 8q21 0 38.5 -5t30.5 -18.5t20.5 -37.5t7.5 -61v-418zM156 116q0 -13 6.5 -19.5t14.5 -6.5t14 6.5t6 19.5v413q0 13 -6 19t-14 6
t-14.5 -6t-6.5 -19v-413z" />
    <glyph glyph-name="q" unicode="q" horiz-adv-x="354" 
d="M25 531q0 37 7.5 61t20 37.5t30 18.5t38.5 5q17 0 38.5 -8t37.5 -24l11 27h121v-798h-132v173q-16 -16 -37.5 -24t-38.5 -8q-21 0 -38.5 5t-30 18.5t-20 37t-7.5 61.5v418zM197 529q0 13 -6.5 19t-14.5 6t-14 -6t-6 -19v-413q0 -13 6 -19.5t14 -6.5t14.5 6.5t6.5 19.5
v413z" />
    <glyph glyph-name="r" unicode="r" horiz-adv-x="339" 
d="M156 0h-131v648h119l10 -21q21 16 41 23t37 7q21 0 38 -5t29 -18.5t18.5 -37.5t6.5 -61v-150h-127v147q0 13 -6 19.5t-14 6.5t-14.5 -6.5t-6.5 -19.5v-532z" />
    <glyph glyph-name="s" unicode="s" horiz-adv-x="344" 
d="M192 206q0 24 -12.5 41t-32 31.5t-41.5 28t-41.5 31.5t-32 41.5t-12.5 57.5v87q0 72 26.5 100.5t86.5 28.5h70q63 0 89.5 -29.5t26.5 -99.5v-91h-127v102q0 12 -6 18.5t-14 6.5t-14.5 -6.5t-6.5 -18.5v-74q0 -23 13 -39t32 -30t41.5 -28t41.5 -33t32 -45t13 -64v-98
q0 -72 -26.5 -101t-86.5 -29h-71q-62 0 -88.5 30t-26.5 100v111h126v-122q0 -12 6 -18.5t14 -6.5t14.5 6.5t6.5 18.5v93z" />
    <glyph glyph-name="t" unicode="t" horiz-adv-x="222" 
d="M5 648h33v87h132v-87h45v-90h-45v-442q0 -13 6 -19.5t14 -6.5h27v-90h-102q-25 0 -40 7.5t-23.5 22.5t-11 37t-2.5 51v440h-33v90z" />
    <glyph glyph-name="u" unicode="u" horiz-adv-x="354" 
d="M197 648h132v-648h-120l-10 21q-15 -16 -38 -23t-40 -7q-21 0 -38.5 5t-30 18.5t-20 37t-7.5 61.5v535h131v-532q0 -13 6 -19.5t14 -6.5t14.5 6.5t6.5 19.5v532z" />
    <glyph glyph-name="v" unicode="v" horiz-adv-x="319" 
d="M0 648h127l33 -498l33 498h126l-73 -648h-170z" />
    <glyph glyph-name="w" unicode="w" horiz-adv-x="512" 
d="M436 0h-154l-26 464l-26 -464h-154l-76 648h127l25 -425l26 425h157l25 -425l26 425h126z" />
    <glyph glyph-name="x" unicode="x" horiz-adv-x="341" 
d="M171 260l-38 -260h-133l64 342l-46 306h127l26 -216l25 216h127l-46 -306l64 -342h-133z" />
    <glyph glyph-name="y" unicode="y" horiz-adv-x="319" 
d="M0 648h127l33 -487l33 487h126l-90 -798h-110l15 150h-58z" />
    <glyph glyph-name="z" unicode="z" horiz-adv-x="269" 
d="M10 102l126 456h-117v90h245v-101l-126 -457h126v-90h-254v102z" />
    <glyph glyph-name="braceleft" unicode="{" horiz-adv-x="271" 
d="M192 550q0 -62 -18.5 -91t-60.5 -37q42 -7 60.5 -36.5t18.5 -90.5v-167q0 -12 6.5 -18.5t16.5 -6.5h41v-103h-73q-60 0 -86.5 28.5t-26.5 100.5v214q0 12 -7.5 18.5t-15.5 6.5h-32v106h33q8 0 14.5 7t7.5 18v186q0 72 26.5 100.5t86.5 28.5h72v-103h-40q-10 0 -16.5 -6.5
t-6.5 -18.5v-136z" />
    <glyph glyph-name="bar" unicode="|" horiz-adv-x="202" 
d="M30 814h142v-964h-142v964z" />
    <glyph glyph-name="braceright" unicode="}" horiz-adv-x="271" 
d="M79 686q0 12 -6.5 18.5t-16.5 6.5h-40v103h72q60 0 86.5 -28.5t26.5 -100.5v-186q1 -11 7.5 -18t14.5 -7h33v-106h-32q-8 0 -15.5 -6.5t-7.5 -18.5v-214q0 -72 -26.5 -100.5t-86.5 -28.5h-73v103h41q10 0 16.5 6.5t6.5 18.5v167q0 61 18.5 90.5t60.5 36.5q-42 8 -60.5 37
t-18.5 91v136z" />
    <glyph glyph-name="asciitilde" unicode="~" horiz-adv-x="381" 
d="M257 702q35 0 48 40l71 -51q-20 -42 -47 -61t-57 -19q-13 0 -30.5 4t-34.5 11l-32 13q-11 5 -23.5 9t-23.5 4q-18 0 -31 -12.5t-23 -31.5l-69 46q24 41 50.5 63t61.5 22q19 0 35 -4.5t31 -9.5l27 -10q12 -5 24 -9t23 -4z" />
    <glyph glyph-name="uni00A0" unicode="&#xa0;" horiz-adv-x="175" 
 />
    <glyph glyph-name="exclamdown" unicode="&#xa1;" horiz-adv-x="181" 
d="M166 -150h-151l30 648h91zM25 664h131v-121h-131v121z" />
    <glyph glyph-name="cent" unicode="&#xa2;" horiz-adv-x="344" 
d="M197 322h127v-114q0 -36 -5.5 -60.5t-17.5 -40t-32 -22.5t-49 -7v-78h-91v78q-54 4 -79 34t-25 96v397q0 69 24 98t80 31v80h91v-81q56 -2 80 -32t24 -96v-95h-127v106q0 12 -6 18.5t-14 6.5t-14.5 -6.5t-6.5 -18.5v-419q0 -13 6 -19.5t14 -6.5t14.5 6.5t6.5 19.5v125z
" />
    <glyph glyph-name="sterling" unicode="&#xa3;" horiz-adv-x="412" 
d="M20 417h42v272q0 73 26 101.5t86 28.5h92q63 0 92 -29.5t29 -100.5v-145h-137v145q0 13 -7 19.5t-15 6.5t-16 -6.5t-8 -19.5v-272h180v-50h-180v-52h180v-50h-180v-155h183v-110h-367v110h42v155h-42v50h42v52h-42v50z" />
    <glyph glyph-name="currency" unicode="&#xa4;" horiz-adv-x="370" 
d="M0 497h25v198q0 73 26 101.5t86 28.5h92q63 0 92 -29.5t29 -100.5v-145h-137v145q0 13 -7 19.5t-15 6.5t-16 -6.5t-8 -19.5v-198h180v-50h-180v-52h180v-50h-180v-224q0 -12 7.5 -18.5t15.5 -6.5t15.5 6.5t7.5 18.5v174h137v-174q0 -73 -26 -101.5t-86 -28.5h-93
q-62 0 -91 30t-29 100v224h-25v50h25v52h-25v50z" />
    <glyph glyph-name="yen" unicode="&#xa5;" horiz-adv-x="357" 
d="M1 285h98l-99 529h135l44 -366l44 366h134l-99 -529h99v-50h-107v-55h107v-50h-107v-130h-142v130h-107v50h107v55h-107v50z" />
    <glyph glyph-name="brokenbar" unicode="&#xa6;" horiz-adv-x="202" 
d="M30 215h142v-365h-142v365zM172 451h-142v363h142v-363z" />
    <glyph glyph-name="section" unicode="&#xa7;" horiz-adv-x="354" 
d="M197 30q0 24 -12.5 41t-32 31.5t-41.5 28t-41.5 31.5t-32 41.5t-12.5 57.5v87q0 61 19 90t61 36q-15 10 -29.5 22.5t-26 27.5t-18 34t-6.5 43v37q0 72 26.5 100.5t86.5 28.5h70q63 0 89.5 -29.5t26.5 -99.5v-41h-127v52q0 12 -6 18.5t-14 6.5t-14.5 -6.5t-6.5 -18.5v-24
q0 -23 13 -39t32 -30t41.5 -28t41.5 -33t32 -45t13 -64v-98q0 -53 -14 -82t-44 -40q24 -20 41 -47.5t17 -72.5v-18q0 -72 -26.5 -101t-86.5 -29h-71q-62 0 -88.5 30t-26.5 100v31h126v-42q0 -12 6 -18.5t14 -6.5t14.5 6.5t6.5 18.5v13zM176 252q8 0 14.5 5t6.5 16v90
q0 10 -6 15.5t-14 5.5t-14.5 -6.5t-6.5 -18.5v-74q0 -10 3 -21.5t17 -11.5z" />
    <glyph glyph-name="dieresis" unicode="&#xa8;" horiz-adv-x="300" 
d="M110 814v-114h-113v114h113zM303 814v-114h-115v114h115z" />
    <glyph glyph-name="copyright" unicode="&#xa9;" horiz-adv-x="846" 
d="M412 815q93 0 170 -33t132.5 -89t86 -129.5t30.5 -155.5q0 -85 -32 -159t-87.5 -129.5t-130 -87.5t-158.5 -32q-85 0 -159 32t-129.5 87.5t-87.5 129.5t-32 159q0 90 34.5 165t91 128.5t127.5 83.5t144 30zM430 713q-70 0 -127.5 -25t-98.5 -67t-63.5 -97t-22.5 -116
q0 -64 23.5 -119.5t65 -97t97 -65.5t119.5 -24q63 0 118.5 24t97.5 65.5t66 97t24 119.5q0 67 -26 123t-68.5 96.5t-96 63t-108.5 22.5zM445 351h127v-54q0 -73 -24 -101.5t-83 -28.5h-72q-62 0 -91 29.5t-29 100.5v217q0 72 26 100.5t86 28.5h71q63 0 89.5 -29.5
t26.5 -99.5v-35h-127v46q0 12 -6 18.5t-14 6.5t-14.5 -6.5t-6.5 -18.5v-239q0 -13 6 -19.5t14 -6.5t14.5 6.5t6.5 19.5v65z" />
    <glyph glyph-name="ordfeminine" unicode="&#xaa;" horiz-adv-x="354" 
d="M25 535q0 37 7.5 61t20 37.5t30 18.5t38.5 5q17 0 38.5 -8t37.5 -24v23h132v-648h-121l-11 26q-16 -16 -37.5 -24t-38.5 -8q-21 0 -38.5 5t-30 18.5t-20 37.5t-7.5 62v418zM197 532q0 13 -6.5 19.5t-14.5 6.5t-14 -6.5t-6 -19.5v-413q0 -13 6 -19t14 -6t14.5 6t6.5 19
v413z" />
    <glyph glyph-name="guillemotleft" unicode="&#xab;" horiz-adv-x="403" 
d="M122 568h104l-106 -238l106 -252h-104l-107 252zM283 568h105l-107 -238l107 -252h-105l-107 252z" />
    <glyph glyph-name="logicalnot" unicode="&#xac;" horiz-adv-x="430" 
d="M410 369v-245h-90v155h-310v90h400z" />
    <glyph glyph-name="uni00AD" unicode="&#xad;" horiz-adv-x="260" 
d="M10 369h240v-90h-240v90z" />
    <glyph glyph-name="registered" unicode="&#xae;" horiz-adv-x="846" 
d="M567 173h-123v157q0 12 -7.5 18.5t-15.5 6.5h-23v-182h-122v464h210q32 0 56.5 -24.5t24.5 -65.5v-20q0 -62 -18.5 -91t-60.5 -37q42 -7 60.5 -36.5t18.5 -90.5v-99zM444 527q0 13 -7 19.5t-15 6.5h-24v-112h23q8 0 15.5 6.5t7.5 18.5v61zM412 815q93 0 170 -33
t132.5 -89t86 -129.5t30.5 -155.5q0 -85 -32 -159t-87.5 -129.5t-130 -87.5t-158.5 -32q-85 0 -159 32t-129.5 87.5t-87.5 129.5t-32 159q0 90 34.5 165t91 128.5t127.5 83.5t144 30zM430 713q-70 0 -127.5 -25t-98.5 -67t-63.5 -97t-22.5 -116q0 -64 23.5 -119.5t65 -97
t97 -65.5t119.5 -24q63 0 118.5 24t97.5 65.5t66 97t24 119.5q0 67 -26 123t-68.5 96.5t-96 63t-108.5 22.5z" />
    <glyph glyph-name="macron" unicode="&#xaf;" horiz-adv-x="380" 
d="M365 775v-75h-350v75h350z" />
    <glyph glyph-name="degree" unicode="&#xb0;" horiz-adv-x="311" 
d="M15 645q0 31 11.5 57.5t30.5 45.5t44.5 29.5t54.5 10.5t54.5 -11t44.5 -30t30 -44.5t11 -54.5t-11 -54.5t-30 -44.5t-44.5 -30t-54.5 -11q-31 0 -57 12t-44.5 31.5t-29 44t-10.5 49.5zM88 649q0 -30 20.5 -49t47.5 -19t46.5 19.5t19.5 47.5t-19.5 47.5t-46.5 19.5
q-30 0 -49 -21t-19 -45z" />
    <glyph glyph-name="plusminus" unicode="&#xb1;" horiz-adv-x="420" 
d="M10 441h155v155h90v-155h155v-90h-155v-155h-90v155h-155v90zM10 142h400v-90h-400v90z" />
    <glyph glyph-name="acute" unicode="&#xb4;" horiz-adv-x="300" 
d="M301 818l-145 -118h-89l77 118h157z" />
    <glyph glyph-name="mu" unicode="&#xb5;" horiz-adv-x="354" 
d="M25 648h131v-532q0 -13 6.5 -19.5t14.5 -6.5t14 6.5t6 19.5v532h132v-535q0 -38 -7.5 -61.5t-20.5 -37t-30.5 -18.5t-38.5 -5q-17 0 -38.5 8t-37.5 24v-173h-131v798z" />
    <glyph glyph-name="mu" unicode="&#x3bc;" horiz-adv-x="354" 
d="M25 648h131v-532q0 -13 6.5 -19.5t14.5 -6.5t14 6.5t6 19.5v532h132v-535q0 -38 -7.5 -61.5t-20.5 -37t-30.5 -18.5t-38.5 -5q-17 0 -38.5 8t-37.5 24v-173h-131v798z" />
    <glyph glyph-name="paragraph" unicode="&#xb6;" horiz-adv-x="494" 
d="M389 610h-57v-707h-118v297q-57 0 -94 4.5t-58 17.5t-29 37t-8 63v260q0 71 29.5 100.5t91.5 29.5h323v-809h-80v707z" />
    <glyph glyph-name="periodcentered" unicode="&#xb7;" horiz-adv-x="161" 
d="M146 350h-131v121h131v-121z" />
    <glyph glyph-name="cedilla" unicode="&#xb8;" horiz-adv-x="300" 
d="M114 -84v89h52v-55q30 -2 46.5 -18t16.5 -40q0 -16 -7 -31t-19.5 -26t-29.5 -18t-37 -7q-29 0 -53 17t-34 52h65q4 -8 9 -13t15 -5q25 0 25 26q0 14 -10.5 21.5t-27.5 7.5h-11z" />
    <glyph glyph-name="ordmasculine" unicode="&#xba;" horiz-adv-x="304" 
d="M284 476q0 -73 -26 -101.5t-86 -28.5h-32q-62 0 -91 29.5t-29 100.5v145q0 72 26 100.5t86 28.5h31q63 0 92 -29.5t29 -99.5v-145zM172 632q0 12 -6 18.5t-14 6.5t-14.5 -6.5t-6.5 -18.5v-167q0 -13 6 -19.5t14 -6.5t14.5 6.5t6.5 19.5v167zM32 299h240v-90h-240v90z" />
    <glyph glyph-name="guillemotright" unicode="&#xbb;" horiz-adv-x="403" 
d="M388 330l-107 -252h-104l106 252l-106 238h104zM227 330l-107 -252h-105l107 252l-107 238h105z" />
    <glyph glyph-name="questiondown" unicode="&#xbf;" horiz-adv-x="322" 
d="M261 504v-124q0 -38 -8.5 -62.5t-21.5 -42.5t-28.5 -33t-28.5 -33t-21.5 -43t-8.5 -63v-125q0 -12 6.5 -18.5t16.5 -6.5q9 0 15.5 6.5t6.5 18.5v143h128v-142q0 -70 -26.5 -99.5t-89.5 -29.5h-78q-60 0 -86.5 28.5t-26.5 100.5v148q0 49 9 82t22 56.5t29 39.5t29 31
t22 31.5t9 40.5v96h131zM130 670h131v-121h-131v121z" />
    <glyph glyph-name="Agrave" unicode="&#xc0;" horiz-adv-x="374" 
d="M81 814h215l78 -814h-136l-16 205h-70l-15 -205h-137zM160 315h54l-27 359zM22 984h157l77 -118h-89z" />
    <glyph glyph-name="Aacute" unicode="&#xc1;" horiz-adv-x="374" 
d="M81 814h215l78 -814h-136l-16 205h-70l-15 -205h-137zM160 315h54l-27 359zM362 984l-145 -118h-89l77 118h157z" />
    <glyph glyph-name="Acircumflex" unicode="&#xc2;" horiz-adv-x="374" 
d="M81 814h215l78 -814h-136l-16 205h-70l-15 -205h-137zM160 315h54l-27 359zM190 923l-51 -57h-124l114 124h123l106 -124h-119z" />
    <glyph glyph-name="Atilde" unicode="&#xc3;" horiz-adv-x="374" 
d="M81 814h215l78 -814h-136l-16 205h-70l-15 -205h-137zM160 315h54l-27 359zM253 960q35 0 48 40l71 -51q-20 -42 -47 -61t-57 -19q-13 0 -30.5 4t-34.5 11l-32 13q-11 5 -23.5 9t-23.5 4q-18 0 -31 -12.5t-23 -31.5l-69 46q24 41 50.5 63t61.5 22q19 0 35 -4.5t31 -9.5
l27 -10q12 -5 24 -9t23 -4z" />
    <glyph glyph-name="Adieresis" unicode="&#xc4;" horiz-adv-x="374" 
d="M81 814h215l78 -814h-136l-16 205h-70l-15 -205h-137zM160 315h54l-27 359zM147 980v-114h-113v114h113zM340 980v-114h-115v114h115z" />
    <glyph glyph-name="Aring" unicode="&#xc5;" horiz-adv-x="374" 
d="M81 814h215l78 -814h-136l-16 205h-70l-15 -205h-137zM160 315h54l-27 359zM188 1050q39 0 66 -26.5t27 -65.5q0 -19 -7.5 -36t-20 -29.5t-29.5 -19.5t-36 -7t-36 7t-29.5 19.5t-19.5 29.5t-7 36t7 36t19.5 29.5t29.5 19.5t36 7zM187 993q-14 0 -25 -10.5t-11 -25.5
q0 -16 11 -26.5t25 -10.5q15 0 26 11t11 26q0 14 -11 25t-26 11z" />
    <glyph glyph-name="AE" unicode="&#xc6;" horiz-adv-x="519" 
d="M504 0h-249v205h-82l-36 -205h-137l149 814h355v-110h-107v-235h97v-110h-97v-249h107v-110zM192 315h63v359z" />
    <glyph glyph-name="Ccedilla" unicode="&#xc7;" horiz-adv-x="370" 
d="M160 -79v70h-15q-62 0 -91 30t-29 100v574q0 73 26 101.5t86 28.5h92q63 0 92 -29.5t29 -100.5v-145h-137v145q0 13 -7 19.5t-15 6.5t-16 -6.5t-8 -19.5v-574q0 -12 7.5 -18.5t15.5 -6.5t15.5 6.5t7.5 18.5v174h137v-174q0 -73 -26 -101.5t-86 -28.5h-26v-36
q30 -2 46.5 -18t16.5 -40q0 -16 -7 -31t-19.5 -26t-29.5 -18t-37 -7q-29 0 -53 17t-34 52h65q4 -8 9 -13t15 -5q25 0 25 26q0 14 -10.5 21.5t-27.5 7.5h-11z" />
    <glyph glyph-name="Egrave" unicode="&#xc8;" horiz-adv-x="294" 
d="M279 0h-249v814h249v-110h-107v-235h97v-110h-97v-249h107v-110zM-6 984h157l77 -118h-89z" />
    <glyph glyph-name="Eacute" unicode="&#xc9;" horiz-adv-x="294" 
d="M279 0h-249v814h249v-110h-107v-235h97v-110h-97v-249h107v-110zM323 984l-145 -118h-89l77 118h157z" />
    <glyph glyph-name="Ecircumflex" unicode="&#xca;" horiz-adv-x="294" 
d="M279 0h-249v814h249v-110h-107v-235h97v-110h-97v-249h107v-110zM153 923l-51 -57h-124l114 124h123l106 -124h-119z" />
    <glyph glyph-name="Edieresis" unicode="&#xcb;" horiz-adv-x="294" 
d="M279 0h-249v814h249v-110h-107v-235h97v-110h-97v-249h107v-110zM116 980v-114h-113v114h113zM309 980v-114h-115v114h115z" />
    <glyph glyph-name="Igrave" unicode="&#xcc;" horiz-adv-x="202" 
d="M30 814h142v-814h-142v814zM-57 984h157l77 -118h-89z" />
    <glyph glyph-name="Iacute" unicode="&#xcd;" horiz-adv-x="202" 
d="M30 814h142v-814h-142v814zM264 984l-145 -118h-89l77 118h157z" />
    <glyph glyph-name="Icircumflex" unicode="&#xce;" horiz-adv-x="202" 
d="M30 814h142v-814h-142v814zM105 923l-51 -57h-124l114 124h123l106 -124h-119z" />
    <glyph glyph-name="Idieresis" unicode="&#xcf;" horiz-adv-x="202" 
d="M30 814h142v-814h-142v814zM61 980v-114h-113v114h113zM254 980v-114h-115v114h115z" />
    <glyph glyph-name="Eth" unicode="&#xd0;" horiz-adv-x="386" 
d="M5 452h25v362h210q62 0 91.5 -29.5t29.5 -100.5v-554q0 -73 -26.5 -101.5t-86.5 -28.5h-218v362h-25v90zM218 684q0 13 -7 19.5t-15 6.5h-24v-258h23v-90h-23v-257h23q8 0 15.5 6.5t7.5 18.5v554z" />
    <glyph glyph-name="Ntilde" unicode="&#xd1;" horiz-adv-x="426" 
d="M158 435v-435h-128v814h147l87 -437v437h132v-814h-153zM279 960q35 0 48 40l71 -51q-20 -42 -47 -61t-57 -19q-13 0 -30.5 4t-34.5 11l-32 13q-11 5 -23.5 9t-23.5 4q-18 0 -31 -12.5t-23 -31.5l-69 46q24 41 50.5 63t61.5 22q19 0 35 -4.5t31 -9.5l27 -10q12 -5 24 -9
t23 -4z" />
    <glyph glyph-name="Ograve" unicode="&#xd2;" horiz-adv-x="381" 
d="M356 121q0 -73 -26.5 -101.5t-86.5 -28.5h-98q-62 0 -91 30t-29 100v574q0 73 26 101.5t86 28.5h98q62 0 91.5 -29.5t29.5 -100.5v-574zM213 695q0 13 -7 19.5t-15 6.5t-16 -6.5t-8 -19.5v-574q0 -12 7.5 -18.5t15.5 -6.5t15.5 6.5t7.5 18.5v574zM43 984h157l77 -118h-89
z" />
    <glyph glyph-name="Oacute" unicode="&#xd3;" horiz-adv-x="381" 
d="M356 121q0 -73 -26.5 -101.5t-86.5 -28.5h-98q-62 0 -91 30t-29 100v574q0 73 26 101.5t86 28.5h98q62 0 91.5 -29.5t29.5 -100.5v-574zM213 695q0 13 -7 19.5t-15 6.5t-16 -6.5t-8 -19.5v-574q0 -12 7.5 -18.5t15.5 -6.5t15.5 6.5t7.5 18.5v574zM368 984l-145 -118h-89
l77 118h157z" />
    <glyph glyph-name="Ocircumflex" unicode="&#xd4;" horiz-adv-x="381" 
d="M356 121q0 -73 -26.5 -101.5t-86.5 -28.5h-98q-62 0 -91 30t-29 100v574q0 73 26 101.5t86 28.5h98q62 0 91.5 -29.5t29.5 -100.5v-574zM213 695q0 13 -7 19.5t-15 6.5t-16 -6.5t-8 -19.5v-574q0 -12 7.5 -18.5t15.5 -6.5t15.5 6.5t7.5 18.5v574zM194 923l-51 -57h-124
l114 124h123l106 -124h-119z" />
    <glyph glyph-name="Otilde" unicode="&#xd5;" horiz-adv-x="381" 
d="M356 121q0 -73 -26.5 -101.5t-86.5 -28.5h-98q-62 0 -91 30t-29 100v574q0 73 26 101.5t86 28.5h98q62 0 91.5 -29.5t29.5 -100.5v-574zM213 695q0 13 -7 19.5t-15 6.5t-16 -6.5t-8 -19.5v-574q0 -12 7.5 -18.5t15.5 -6.5t15.5 6.5t7.5 18.5v574zM257 960q35 0 48 40
l71 -51q-20 -42 -47 -61t-57 -19q-13 0 -30.5 4t-34.5 11l-32 13q-11 5 -23.5 9t-23.5 4q-18 0 -31 -12.5t-23 -31.5l-69 46q24 41 50.5 63t61.5 22q19 0 35 -4.5t31 -9.5l27 -10q12 -5 24 -9t23 -4z" />
    <glyph glyph-name="Odieresis" unicode="&#xd6;" horiz-adv-x="381" 
d="M356 121q0 -73 -26.5 -101.5t-86.5 -28.5h-98q-62 0 -91 30t-29 100v574q0 73 26 101.5t86 28.5h98q62 0 91.5 -29.5t29.5 -100.5v-574zM213 695q0 13 -7 19.5t-15 6.5t-16 -6.5t-8 -19.5v-574q0 -12 7.5 -18.5t15.5 -6.5t15.5 6.5t7.5 18.5v574zM150 980v-114h-113v114
h113zM343 980v-114h-115v114h115z" />
    <glyph glyph-name="multiply" unicode="&#xd7;" horiz-adv-x="366" 
d="M73 497l110 -110l110 110l63 -63l-110 -110l110 -110l-63 -63l-110 110l-110 -110l-63 63l110 110l-110 110z" />
    <glyph glyph-name="Oslash" unicode="&#xd8;" horiz-adv-x="381" 
d="M379 842l-32 -82q9 -26 9 -65v-574q0 -73 -26.5 -101.5t-86.5 -28.5h-98q-61 0 -90 29l-24 -62l-29 14l32 82q-9 27 -9 67v574q0 73 26 101.5t86 28.5h98q31 0 54 -7t38 -24l24 61zM167 389l46 117v189q0 13 -7 19.5t-15 6.5t-16 -6.5t-8 -19.5v-306zM213 420l-46 -117
v-182q0 -12 7.5 -18.5t15.5 -6.5t15.5 6.5t7.5 18.5v299z" />
    <glyph glyph-name="Ugrave" unicode="&#xd9;" horiz-adv-x="381" 
d="M213 814h143v-693q0 -73 -26.5 -101.5t-86.5 -28.5h-98q-62 0 -91 30t-29 100v693h142v-693q0 -12 7.5 -18.5t15.5 -6.5t15.5 6.5t7.5 18.5v693zM35 984h157l77 -118h-89z" />
    <glyph glyph-name="Uacute" unicode="&#xda;" horiz-adv-x="381" 
d="M213 814h143v-693q0 -73 -26.5 -101.5t-86.5 -28.5h-98q-62 0 -91 30t-29 100v693h142v-693q0 -12 7.5 -18.5t15.5 -6.5t15.5 6.5t7.5 18.5v693zM358 984l-145 -118h-89l77 118h157z" />
    <glyph glyph-name="Ucircumflex" unicode="&#xdb;" horiz-adv-x="381" 
d="M213 814h143v-693q0 -73 -26.5 -101.5t-86.5 -28.5h-98q-62 0 -91 30t-29 100v693h142v-693q0 -12 7.5 -18.5t15.5 -6.5t15.5 6.5t7.5 18.5v693zM194 923l-51 -57h-124l114 124h123l106 -124h-119z" />
    <glyph glyph-name="Udieresis" unicode="&#xdc;" horiz-adv-x="381" 
d="M213 814h143v-693q0 -73 -26.5 -101.5t-86.5 -28.5h-98q-62 0 -91 30t-29 100v693h142v-693q0 -12 7.5 -18.5t15.5 -6.5t15.5 6.5t7.5 18.5v693zM150 980v-114h-113v114h113zM343 980v-114h-115v114h115z" />
    <glyph glyph-name="Yacute" unicode="&#xdd;" horiz-adv-x="362" 
d="M250 239v-239h-142v240l-108 574h135l44 -366l44 366h134zM362 984l-145 -118h-89l77 118h157z" />
    <glyph glyph-name="Thorn" unicode="&#xde;" horiz-adv-x="381" 
d="M361 271q0 -35 -6.5 -58.5t-22.5 -37.5t-44 -20t-71 -6h-45v-149h-142v814h142v-153h68q62 0 91.5 -29.5t29.5 -100.5v-260zM218 531q0 13 -7 19.5t-15 6.5h-24v-302h23q8 0 15.5 6.5t7.5 18.5v251z" />
    <glyph glyph-name="germandbls" unicode="&#xdf;" horiz-adv-x="360" 
d="M158 0h-133v684q0 71 29.5 100.5t91.5 29.5h68q62 0 91.5 -29.5t29.5 -100.5v-60q0 -62 -18.5 -91t-60.5 -37q42 -7 60.5 -36.5t18.5 -90.5v-242q0 -71 -29.5 -100.5t-91.5 -29.5h-40v104h6q8 0 15 6.5t7 19.5v290q0 12 -7.5 18.5t-15.5 6.5h-4v106h6q8 0 14.5 7t6.5 18
v111q0 13 -7 19.5t-15 6.5t-15 -6.5t-7 -19.5v-684z" />
    <glyph glyph-name="agrave" unicode="&#xe0;" horiz-adv-x="350" 
d="M205 0l-10 21q-16 -16 -38.5 -23t-39.5 -7q-21 0 -38.5 5t-30.5 18.5t-20.5 37t-7.5 61.5v152q0 40 14 63.5t37.5 36.5t55 19t66.5 11v140q0 12 -6.5 18.5t-14.5 6.5t-14 -6.5t-6 -18.5v-102h-126v91q0 70 26.5 99.5t88.5 29.5h76q59 0 83.5 -28.5t24.5 -100.5v-524h-120
zM152 116q0 -13 6 -19.5t14 -6.5t14.5 6.5t6.5 19.5v187q-19 -1 -30 -7t-11 -19v-161zM18 818h157l77 -118h-89z" />
    <glyph glyph-name="aacute" unicode="&#xe1;" horiz-adv-x="350" 
d="M205 0l-10 21q-16 -16 -38.5 -23t-39.5 -7q-21 0 -38.5 5t-30.5 18.5t-20.5 37t-7.5 61.5v152q0 40 14 63.5t37.5 36.5t55 19t66.5 11v140q0 12 -6.5 18.5t-14.5 6.5t-14 -6.5t-6 -18.5v-102h-126v91q0 70 26.5 99.5t88.5 29.5h76q59 0 83.5 -28.5t24.5 -100.5v-524h-120
zM152 116q0 -13 6 -19.5t14 -6.5t14.5 6.5t6.5 19.5v187q-19 -1 -30 -7t-11 -19v-161zM342 818l-145 -118h-89l77 118h157z" />
    <glyph glyph-name="acircumflex" unicode="&#xe2;" horiz-adv-x="350" 
d="M205 0l-10 21q-16 -16 -38.5 -23t-39.5 -7q-21 0 -38.5 5t-30.5 18.5t-20.5 37t-7.5 61.5v152q0 40 14 63.5t37.5 36.5t55 19t66.5 11v140q0 12 -6.5 18.5t-14.5 6.5t-14 -6.5t-6 -18.5v-102h-126v91q0 70 26.5 99.5t88.5 29.5h76q59 0 83.5 -28.5t24.5 -100.5v-524h-120
zM152 116q0 -13 6 -19.5t14 -6.5t14.5 6.5t6.5 19.5v187q-19 -1 -30 -7t-11 -19v-161zM178 757l-51 -57h-124l114 124h123l106 -124h-119z" />
    <glyph glyph-name="atilde" unicode="&#xe3;" horiz-adv-x="350" 
d="M205 0l-10 21q-16 -16 -38.5 -23t-39.5 -7q-21 0 -38.5 5t-30.5 18.5t-20.5 37t-7.5 61.5v152q0 40 14 63.5t37.5 36.5t55 19t66.5 11v140q0 12 -6.5 18.5t-14.5 6.5t-14 -6.5t-6 -18.5v-102h-126v91q0 70 26.5 99.5t88.5 29.5h76q59 0 83.5 -28.5t24.5 -100.5v-524h-120
zM152 116q0 -13 6 -19.5t14 -6.5t14.5 6.5t6.5 19.5v187q-19 -1 -30 -7t-11 -19v-161zM241 794q35 0 48 40l71 -51q-20 -42 -47 -61t-57 -19q-13 0 -30.5 4t-34.5 11l-32 13q-11 5 -23.5 9t-23.5 4q-18 0 -31 -12.5t-23 -31.5l-69 46q24 41 50.5 63t61.5 22q19 0 35 -4.5
t31 -9.5l27 -10q12 -5 24 -9t23 -4z" />
    <glyph glyph-name="adieresis" unicode="&#xe4;" horiz-adv-x="350" 
d="M205 0l-10 21q-16 -16 -38.5 -23t-39.5 -7q-21 0 -38.5 5t-30.5 18.5t-20.5 37t-7.5 61.5v152q0 40 14 63.5t37.5 36.5t55 19t66.5 11v140q0 12 -6.5 18.5t-14.5 6.5t-14 -6.5t-6 -18.5v-102h-126v91q0 70 26.5 99.5t88.5 29.5h76q59 0 83.5 -28.5t24.5 -100.5v-524h-120
zM152 116q0 -13 6 -19.5t14 -6.5t14.5 6.5t6.5 19.5v187q-19 -1 -30 -7t-11 -19v-161zM135 814v-114h-113v114h113zM328 814v-114h-115v114h115z" />
    <glyph glyph-name="aring" unicode="&#xe5;" horiz-adv-x="350" 
d="M205 0l-10 21q-16 -16 -38.5 -23t-39.5 -7q-21 0 -38.5 5t-30.5 18.5t-20.5 37t-7.5 61.5v152q0 40 14 63.5t37.5 36.5t55 19t66.5 11v140q0 12 -6.5 18.5t-14.5 6.5t-14 -6.5t-6 -18.5v-102h-126v91q0 70 26.5 99.5t88.5 29.5h76q59 0 83.5 -28.5t24.5 -100.5v-524h-120
zM152 116q0 -13 6 -19.5t14 -6.5t14.5 6.5t6.5 19.5v187q-19 -1 -30 -7t-11 -19v-161zM174 884q39 0 66 -26.5t27 -65.5q0 -19 -7.5 -36t-20 -29.5t-29.5 -19.5t-36 -7t-36 7t-29.5 19.5t-19.5 29.5t-7 36t7 36t19.5 29.5t29.5 19.5t36 7zM173 827q-14 0 -25 -10.5
t-11 -25.5q0 -16 11 -26.5t25 -10.5q15 0 26 11t11 26q0 14 -11 25t-26 11z" />
    <glyph glyph-name="ae" unicode="&#xe6;" horiz-adv-x="518" 
d="M366 241h127v-114q0 -73 -24 -101.5t-83 -28.5h-71q-36 0 -61 11t-39 40q-9 -18 -22 -29t-27 -17.5t-27 -8.5t-22 -2q-21 0 -38.5 5t-30.5 18.5t-20.5 37t-7.5 61.5v152q0 40 14 63.5t37.5 36.5t55 19t66.5 11v140q0 12 -6.5 18.5t-14.5 6.5t-14 -6.5t-6 -18.5v-102h-126
v91q0 70 26.5 99.5t88.5 29.5h76q13 0 24 -4t20 -21q10 17 21 21t25 4h65q62 0 91.5 -29.5t29.5 -99.5v-226h-168v-182q0 -13 6 -19.5t14 -6.5t14.5 6.5t6.5 19.5v125zM152 116q0 -13 6 -19.5t14 -6.5t14.5 6.5t6.5 19.5v195q-19 -3 -30 -12t-11 -22v-161zM366 381v154
q0 12 -6 18.5t-14 6.5q-19 0 -21 -22v-157h41z" />
    <glyph glyph-name="ccedilla" unicode="&#xe7;" horiz-adv-x="344" 
d="M147 -74v71h-2q-62 0 -91 29.5t-29 100.5v397q0 72 26 100.5t86 28.5h71q63 0 89.5 -29.5t26.5 -99.5v-95h-127v106q0 12 -6 18.5t-14 6.5t-14.5 -6.5t-6.5 -18.5v-419q0 -13 6 -19.5t14 -6.5t14.5 6.5t6.5 19.5v125h127v-114q0 -73 -24 -101.5t-83 -28.5h-18v-37
q30 -2 46.5 -18t16.5 -40q0 -16 -7 -31t-19.5 -26t-29.5 -18t-37 -7q-29 0 -53 17t-34 52h65q4 -8 9 -13t15 -5q25 0 25 26q0 14 -10.5 21.5t-27.5 7.5h-11z" />
    <glyph glyph-name="egrave" unicode="&#xe8;" horiz-adv-x="348" 
d="M196 241h127v-114q0 -73 -24 -101.5t-83 -28.5h-71q-62 0 -91 29.5t-29 100.5v397q0 72 26 100.5t86 28.5h65q62 0 91.5 -29.5t29.5 -99.5v-226h-168v-182q0 -13 6 -19.5t14 -6.5t14.5 6.5t6.5 19.5v125zM155 381h41v154q0 12 -6 18.5t-14 6.5t-14.5 -6.5t-6.5 -18.5
v-154zM19 818h157l77 -118h-89z" />
    <glyph glyph-name="eacute" unicode="&#xe9;" horiz-adv-x="348" 
d="M196 241h127v-114q0 -73 -24 -101.5t-83 -28.5h-71q-62 0 -91 29.5t-29 100.5v397q0 72 26 100.5t86 28.5h65q62 0 91.5 -29.5t29.5 -99.5v-226h-168v-182q0 -13 6 -19.5t14 -6.5t14.5 6.5t6.5 19.5v125zM155 381h41v154q0 12 -6 18.5t-14 6.5t-14.5 -6.5t-6.5 -18.5
v-154zM343 818l-145 -118h-89l77 118h157z" />
    <glyph glyph-name="ecircumflex" unicode="&#xea;" horiz-adv-x="348" 
d="M196 241h127v-114q0 -73 -24 -101.5t-83 -28.5h-71q-62 0 -91 29.5t-29 100.5v397q0 72 26 100.5t86 28.5h65q62 0 91.5 -29.5t29.5 -99.5v-226h-168v-182q0 -13 6 -19.5t14 -6.5t14.5 6.5t6.5 19.5v125zM155 381h41v154q0 12 -6 18.5t-14 6.5t-14.5 -6.5t-6.5 -18.5
v-154zM179 757l-51 -57h-124l114 124h123l106 -124h-119z" />
    <glyph glyph-name="edieresis" unicode="&#xeb;" horiz-adv-x="348" 
d="M196 241h127v-114q0 -73 -24 -101.5t-83 -28.5h-71q-62 0 -91 29.5t-29 100.5v397q0 72 26 100.5t86 28.5h65q62 0 91.5 -29.5t29.5 -99.5v-226h-168v-182q0 -13 6 -19.5t14 -6.5t14.5 6.5t6.5 19.5v125zM155 381h41v154q0 12 -6 18.5t-14 6.5t-14.5 -6.5t-6.5 -18.5
v-154zM136 814v-114h-113v114h113zM329 814v-114h-115v114h115z" />
    <glyph glyph-name="igrave" unicode="&#xec;" horiz-adv-x="181" 
d="M25 648h131v-648h-131v648zM-73 818h157l77 -118h-89z" />
    <glyph glyph-name="iacute" unicode="&#xed;" horiz-adv-x="181" 
d="M25 648h131v-648h-131v648zM264 818l-145 -118h-89l77 118h157z" />
    <glyph glyph-name="icircumflex" unicode="&#xee;" horiz-adv-x="181" 
d="M25 648h131v-648h-131v648zM94 757l-51 -57h-124l114 124h123l106 -124h-119z" />
    <glyph glyph-name="idieresis" unicode="&#xef;" horiz-adv-x="181" 
d="M25 648h131v-648h-131v648zM51 814v-114h-113v114h113zM244 814v-114h-115v114h115z" />
    <glyph glyph-name="eth" unicode="&#xf0;" horiz-adv-x="349" 
d="M140 -3q-62 0 -91 29.5t-29 100.5v397q0 72 24 100.5t75 28.5q18 0 38 -9t35 -41q0 29 -3 53t-14 40l-27 -23l-17 20l24 21q-17 10 -49 10q-20 0 -36 -2t-33 -8v95q20 6 38.5 7.5t42.5 1.5q42 0 72 -7t53 -20l38 34l20 -20l-35 -30q21 -19 33 -44t17.5 -54t6.5 -61t1 -64
v-425q0 -73 -26 -101.5t-86 -28.5h-72zM192 529q0 12 -6 18.5t-14 6.5t-14.5 -6.5t-6.5 -18.5v-413q0 -13 6 -19.5t14 -6.5t14.5 6.5t6.5 19.5v413z" />
    <glyph glyph-name="ntilde" unicode="&#xf1;" horiz-adv-x="354" 
d="M156 0h-131v648h118l11 -21q16 16 38.5 23t39.5 7q21 0 38.5 -5t30.5 -18.5t20.5 -37.5t7.5 -61v-535h-132v532q0 13 -6 19.5t-14 6.5t-14.5 -6.5t-6.5 -19.5v-532zM243 794q35 0 48 40l71 -51q-20 -42 -47 -61t-57 -19q-13 0 -30.5 4t-34.5 11l-32 13q-11 5 -23.5 9
t-23.5 4q-18 0 -31 -12.5t-23 -31.5l-69 46q24 41 50.5 63t61.5 22q19 0 35 -4.5t31 -9.5l27 -10q12 -5 24 -9t23 -4z" />
    <glyph glyph-name="ograve" unicode="&#xf2;" horiz-adv-x="354" 
d="M329 127q0 -73 -26 -101.5t-86 -28.5h-72q-62 0 -91 29.5t-29 100.5v397q0 72 26 100.5t86 28.5h71q63 0 92 -29.5t29 -99.5v-397zM197 535q0 12 -6 18.5t-14 6.5t-14.5 -6.5t-6.5 -18.5v-419q0 -13 6 -19.5t14 -6.5t14.5 6.5t6.5 19.5v419zM11 818h157l77 -118h-89z" />
    <glyph glyph-name="oacute" unicode="&#xf3;" horiz-adv-x="354" 
d="M329 127q0 -73 -26 -101.5t-86 -28.5h-72q-62 0 -91 29.5t-29 100.5v397q0 72 26 100.5t86 28.5h71q63 0 92 -29.5t29 -99.5v-397zM197 535q0 12 -6 18.5t-14 6.5t-14.5 -6.5t-6.5 -18.5v-419q0 -13 6 -19.5t14 -6.5t14.5 6.5t6.5 19.5v419zM352 818l-145 -118h-89
l77 118h157z" />
    <glyph glyph-name="ocircumflex" unicode="&#xf4;" horiz-adv-x="354" 
d="M329 127q0 -73 -26 -101.5t-86 -28.5h-72q-62 0 -91 29.5t-29 100.5v397q0 72 26 100.5t86 28.5h71q63 0 92 -29.5t29 -99.5v-397zM197 535q0 12 -6 18.5t-14 6.5t-14.5 -6.5t-6.5 -18.5v-419q0 -13 6 -19.5t14 -6.5t14.5 6.5t6.5 19.5v419zM180 757l-51 -57h-124
l114 124h123l106 -124h-119z" />
    <glyph glyph-name="otilde" unicode="&#xf5;" horiz-adv-x="354" 
d="M329 127q0 -73 -26 -101.5t-86 -28.5h-72q-62 0 -91 29.5t-29 100.5v397q0 72 26 100.5t86 28.5h71q63 0 92 -29.5t29 -99.5v-397zM197 535q0 12 -6 18.5t-14 6.5t-14.5 -6.5t-6.5 -18.5v-419q0 -13 6 -19.5t14 -6.5t14.5 6.5t6.5 19.5v419zM243 794q35 0 48 40l71 -51
q-20 -42 -47 -61t-57 -19q-13 0 -30.5 4t-34.5 11l-32 13q-11 5 -23.5 9t-23.5 4q-18 0 -31 -12.5t-23 -31.5l-69 46q24 41 50.5 63t61.5 22q19 0 35 -4.5t31 -9.5l27 -10q12 -5 24 -9t23 -4z" />
    <glyph glyph-name="odieresis" unicode="&#xf6;" horiz-adv-x="354" 
d="M329 127q0 -73 -26 -101.5t-86 -28.5h-72q-62 0 -91 29.5t-29 100.5v397q0 72 26 100.5t86 28.5h71q63 0 92 -29.5t29 -99.5v-397zM197 535q0 12 -6 18.5t-14 6.5t-14.5 -6.5t-6.5 -18.5v-419q0 -13 6 -19.5t14 -6.5t14.5 6.5t6.5 19.5v419zM137 814v-114h-113v114h113z
M330 814v-114h-115v114h115z" />
    <glyph glyph-name="divide" unicode="&#xf7;" horiz-adv-x="420" 
d="M10 369h400v-90h-400v90zM277 87h-131v121h131v-121zM277 437h-131v121h131v-121z" />
    <glyph glyph-name="oslash" unicode="&#xf8;" horiz-adv-x="354" 
d="M329 127q0 -73 -26 -101.5t-86 -28.5h-72q-23 0 -41 3.5t-32 11.5l-21 -54l-29 14l25 63q-22 31 -22 92v397q0 72 26 100.5t86 28.5h71q48 0 77 -18l25 63l28 -13l-29 -73q20 -32 20 -88v-397zM156 310l41 103v122q0 12 -6 18.5t-14 6.5t-14.5 -6.5t-6.5 -18.5v-225z
M197 328l-41 -104v-108q0 -13 6 -19.5t14 -6.5t14.5 6.5t6.5 19.5v212z" />
    <glyph glyph-name="ugrave" unicode="&#xf9;" horiz-adv-x="354" 
d="M197 648h132v-648h-120l-10 21q-15 -16 -38 -23t-40 -7q-21 0 -38.5 5t-30 18.5t-20 37t-7.5 61.5v535h131v-532q0 -13 6 -19.5t14 -6.5t14.5 6.5t6.5 19.5v532zM20 818h157l77 -118h-89z" />
    <glyph glyph-name="uacute" unicode="&#xfa;" horiz-adv-x="354" 
d="M197 648h132v-648h-120l-10 21q-15 -16 -38 -23t-40 -7q-21 0 -38.5 5t-30 18.5t-20 37t-7.5 61.5v535h131v-532q0 -13 6 -19.5t14 -6.5t14.5 6.5t6.5 19.5v532zM354 818l-145 -118h-89l77 118h157z" />
    <glyph glyph-name="ucircumflex" unicode="&#xfb;" horiz-adv-x="354" 
d="M197 648h132v-648h-120l-10 21q-15 -16 -38 -23t-40 -7q-21 0 -38.5 5t-30 18.5t-20 37t-7.5 61.5v535h131v-532q0 -13 6 -19.5t14 -6.5t14.5 6.5t6.5 19.5v532zM180 757l-51 -57h-124l114 124h123l106 -124h-119z" />
    <glyph glyph-name="udieresis" unicode="&#xfc;" horiz-adv-x="354" 
d="M197 648h132v-648h-120l-10 21q-15 -16 -38 -23t-40 -7q-21 0 -38.5 5t-30 18.5t-20 37t-7.5 61.5v535h131v-532q0 -13 6 -19.5t14 -6.5t14.5 6.5t6.5 19.5v532zM137 814v-114h-113v114h113zM330 814v-114h-115v114h115z" />
    <glyph glyph-name="yacute" unicode="&#xfd;" horiz-adv-x="319" 
d="M0 648h127l33 -487l33 487h126l-90 -798h-110l15 150h-58zM330 818l-145 -118h-89l77 118h157z" />
    <glyph glyph-name="thorn" unicode="&#xfe;" horiz-adv-x="354" 
d="M329 117q0 -38 -7.5 -62t-20.5 -37.5t-30.5 -18.5t-38.5 -5q-17 0 -38.5 8t-37.5 24v-176h-131v964h131v-189q16 16 37.5 24t38.5 8q21 0 38.5 -5t30.5 -18.5t20.5 -37.5t7.5 -61v-418zM156 119q0 -13 6.5 -19t14.5 -6t14 6t6 19v413q0 13 -6 19.5t-14 6.5t-14.5 -6.5
t-6.5 -19.5v-413z" />
    <glyph glyph-name="ydieresis" unicode="&#xff;" horiz-adv-x="319" 
d="M0 648h127l33 -487l33 487h126l-90 -798h-110l15 150h-58zM119 814v-114h-113v114h113zM312 814v-114h-115v114h115z" />
    <glyph glyph-name="Amacron" unicode="&#x100;" horiz-adv-x="374" 
d="M81 814h215l78 -814h-136l-16 205h-70l-15 -205h-137zM160 315h54l-27 359zM362 941v-75h-350v75h350z" />
    <glyph glyph-name="amacron" unicode="&#x101;" horiz-adv-x="350" 
d="M205 0l-10 21q-16 -16 -38.5 -23t-39.5 -7q-21 0 -38.5 5t-30.5 18.5t-20.5 37t-7.5 61.5v152q0 40 14 63.5t37.5 36.5t55 19t66.5 11v140q0 12 -6.5 18.5t-14.5 6.5t-14 -6.5t-6 -18.5v-102h-126v91q0 70 26.5 99.5t88.5 29.5h76q59 0 83.5 -28.5t24.5 -100.5v-524h-120
zM152 116q0 -13 6 -19.5t14 -6.5t14.5 6.5t6.5 19.5v187q-19 -1 -30 -7t-11 -19v-161zM350 775v-75h-350v75h350z" />
    <glyph glyph-name="Abreve" unicode="&#x102;" horiz-adv-x="374" 
d="M81 814h215l78 -814h-136l-16 205h-70l-15 -205h-137zM160 315h54l-27 359zM137 999q3 -26 12.5 -43.5t36.5 -17.5t37 17.5t14 43.5h74q-5 -66 -37.5 -99.5t-87.5 -33.5t-87 33.5t-37 99.5h75z" />
    <glyph glyph-name="abreve" unicode="&#x103;" horiz-adv-x="350" 
d="M205 0l-10 21q-16 -16 -38.5 -23t-39.5 -7q-21 0 -38.5 5t-30.5 18.5t-20.5 37t-7.5 61.5v152q0 40 14 63.5t37.5 36.5t55 19t66.5 11v140q0 12 -6.5 18.5t-14.5 6.5t-14 -6.5t-6 -18.5v-102h-126v91q0 70 26.5 99.5t88.5 29.5h76q59 0 83.5 -28.5t24.5 -100.5v-524h-120
zM152 116q0 -13 6 -19.5t14 -6.5t14.5 6.5t6.5 19.5v187q-19 -1 -30 -7t-11 -19v-161zM125 833q3 -26 12.5 -43.5t36.5 -17.5t37 17.5t14 43.5h74q-5 -66 -37.5 -99.5t-87.5 -33.5t-87 33.5t-37 99.5h75z" />
    <glyph glyph-name="Aogonek" unicode="&#x104;" horiz-adv-x="374" 
d="M362 -123q-14 -6 -31.5 -13t-44.5 -7q-42 0 -65 19.5t-23 49.5q0 23 11 40t29 34l-16 205h-70l-15 -205h-137l81 814h215l78 -814h-72q-17 -17 -28.5 -32.5t-11.5 -29.5q0 -28 32 -28q15 0 27.5 3.5t22.5 7.5zM160 315h54l-27 359z" />
    <glyph glyph-name="aogonek" unicode="&#x105;" horiz-adv-x="350" 
d="M333 -120q-14 -6 -31.5 -13t-44.5 -7q-42 0 -65 19.5t-23 49.5q0 22 10.5 38.5t26.5 32.5l-11 21q-16 -16 -38.5 -23t-39.5 -7q-21 0 -38.5 5t-30.5 18.5t-20.5 37t-7.5 61.5v152q0 40 14 63.5t37.5 36.5t55 19t66.5 11v140q0 12 -6.5 18.5t-14.5 6.5t-14 -6.5t-6 -18.5
v-102h-126v91q0 70 26.5 99.5t88.5 29.5h76q59 0 83.5 -28.5t24.5 -100.5v-524h-55q-17 -17 -27 -31t-10 -28q0 -28 32 -28q15 0 27.5 3.5t22.5 7.5zM152 116q0 -13 6 -19.5t14 -6.5t14.5 6.5t6.5 19.5v187q-19 -1 -30 -7t-11 -19v-161z" />
    <glyph glyph-name="Cacute" unicode="&#x106;" horiz-adv-x="370" 
d="M213 295h137v-174q0 -73 -26 -101.5t-86 -28.5h-93q-62 0 -91 30t-29 100v574q0 73 26 101.5t86 28.5h92q63 0 92 -29.5t29 -100.5v-145h-137v145q0 13 -7 19.5t-15 6.5t-16 -6.5t-8 -19.5v-574q0 -12 7.5 -18.5t15.5 -6.5t15.5 6.5t7.5 18.5v174zM358 984l-145 -118h-89
l77 118h157z" />
    <glyph glyph-name="cacute" unicode="&#x107;" horiz-adv-x="344" 
d="M197 241h127v-114q0 -73 -24 -101.5t-83 -28.5h-72q-62 0 -91 29.5t-29 100.5v397q0 72 26 100.5t86 28.5h71q63 0 89.5 -29.5t26.5 -99.5v-95h-127v106q0 12 -6 18.5t-14 6.5t-14.5 -6.5t-6.5 -18.5v-419q0 -13 6 -19.5t14 -6.5t14.5 6.5t6.5 19.5v125zM347 818
l-145 -118h-89l77 118h157z" />
    <glyph glyph-name="Ccircumflex" unicode="&#x108;" horiz-adv-x="370" 
d="M213 295h137v-174q0 -73 -26 -101.5t-86 -28.5h-93q-62 0 -91 30t-29 100v574q0 73 26 101.5t86 28.5h92q63 0 92 -29.5t29 -100.5v-145h-137v145q0 13 -7 19.5t-15 6.5t-16 -6.5t-8 -19.5v-574q0 -12 7.5 -18.5t15.5 -6.5t15.5 6.5t7.5 18.5v174zM188 923l-51 -57h-124
l114 124h123l106 -124h-119z" />
    <glyph glyph-name="ccircumflex" unicode="&#x109;" horiz-adv-x="344" 
d="M197 241h127v-114q0 -73 -24 -101.5t-83 -28.5h-72q-62 0 -91 29.5t-29 100.5v397q0 72 26 100.5t86 28.5h71q63 0 89.5 -29.5t26.5 -99.5v-95h-127v106q0 12 -6 18.5t-14 6.5t-14.5 -6.5t-6.5 -18.5v-419q0 -13 6 -19.5t14 -6.5t14.5 6.5t6.5 19.5v125zM175 757l-51 -57
h-124l114 124h123l106 -124h-119z" />
    <glyph glyph-name="Cdotaccent" unicode="&#x10a;" horiz-adv-x="370" 
d="M213 295h137v-174q0 -73 -26 -101.5t-86 -28.5h-93q-62 0 -91 30t-29 100v574q0 73 26 101.5t86 28.5h92q63 0 92 -29.5t29 -100.5v-145h-137v145q0 13 -7 19.5t-15 6.5t-16 -6.5t-8 -19.5v-574q0 -12 7.5 -18.5t15.5 -6.5t15.5 6.5t7.5 18.5v174zM241 980v-114h-112v114
h112z" />
    <glyph glyph-name="cdotaccent" unicode="&#x10b;" horiz-adv-x="344" 
d="M197 241h127v-114q0 -73 -24 -101.5t-83 -28.5h-72q-62 0 -91 29.5t-29 100.5v397q0 72 26 100.5t86 28.5h71q63 0 89.5 -29.5t26.5 -99.5v-95h-127v106q0 12 -6 18.5t-14 6.5t-14.5 -6.5t-6.5 -18.5v-419q0 -13 6 -19.5t14 -6.5t14.5 6.5t6.5 19.5v125zM228 814v-114
h-112v114h112z" />
    <glyph glyph-name="Ccaron" unicode="&#x10c;" horiz-adv-x="370" 
d="M213 295h137v-174q0 -73 -26 -101.5t-86 -28.5h-93q-62 0 -91 30t-29 100v574q0 73 26 101.5t86 28.5h92q63 0 92 -29.5t29 -100.5v-145h-137v145q0 13 -7 19.5t-15 6.5t-16 -6.5t-8 -19.5v-574q0 -12 7.5 -18.5t15.5 -6.5t15.5 6.5t7.5 18.5v174zM188 932l49 58h119
l-106 -124h-123l-114 124h124z" />
    <glyph glyph-name="ccaron" unicode="&#x10d;" horiz-adv-x="344" 
d="M197 241h127v-114q0 -73 -24 -101.5t-83 -28.5h-72q-62 0 -91 29.5t-29 100.5v397q0 72 26 100.5t86 28.5h71q63 0 89.5 -29.5t26.5 -99.5v-95h-127v106q0 12 -6 18.5t-14 6.5t-14.5 -6.5t-6.5 -18.5v-419q0 -13 6 -19.5t14 -6.5t14.5 6.5t6.5 19.5v125zM175 766l49 58
h119l-106 -124h-123l-114 124h124z" />
    <glyph glyph-name="Dcaron" unicode="&#x10e;" horiz-adv-x="386" 
d="M361 130q0 -73 -26.5 -101.5t-86.5 -28.5h-218v814h210q62 0 91.5 -29.5t29.5 -100.5v-554zM218 684q0 13 -7 19.5t-15 6.5h-24v-605h23q8 0 15.5 6.5t7.5 18.5v554zM194 932l49 58h119l-106 -124h-123l-114 124h124z" />
    <glyph glyph-name="dcaron" unicode="&#x10f;" horiz-adv-x="492" 
d="M25 535q0 37 7.5 61t20 37.5t30 18.5t38.5 5q17 0 38.5 -8t37.5 -24v189h132v-814h-121l-11 26q-16 -16 -37.5 -24t-38.5 -8q-21 0 -38.5 5t-30 18.5t-20 37.5t-7.5 62v418zM197 532q0 13 -6.5 19.5t-14.5 6.5t-14 -6.5t-6 -19.5v-413q0 -13 6 -19t14 -6t14.5 6t6.5 19
v413zM510 693l-111 -140l35 140h-55v121h131v-121z" />
    <glyph glyph-name="Dcroat" unicode="&#x110;" horiz-adv-x="386" 
d="M5 452h25v362h210q62 0 91.5 -29.5t29.5 -100.5v-554q0 -73 -26.5 -101.5t-86.5 -28.5h-218v362h-25v90zM218 684q0 13 -7 19.5t-15 6.5h-24v-258h23v-90h-23v-257h23q8 0 15.5 6.5t7.5 18.5v554z" />
    <glyph glyph-name="dcroat" unicode="&#x111;" horiz-adv-x="354" 
d="M115 764h82v50h132v-50h25v-51h-25v-713h-121l-11 26q-16 -16 -37.5 -24t-38.5 -8q-21 0 -38.5 5t-30 18.5t-20 37.5t-7.5 62v418q0 37 7.5 61t20 37.5t30 18.5t38.5 5q17 0 38.5 -8t37.5 -24v88h-82v51zM197 532q0 13 -6.5 19.5t-14.5 6.5t-14 -6.5t-6 -19.5v-413
q0 -13 6 -19t14 -6t14.5 6t6.5 19v413z" />
    <glyph glyph-name="Emacron" unicode="&#x112;" horiz-adv-x="294" 
d="M279 0h-249v814h249v-110h-107v-235h97v-110h-97v-249h107v-110zM325 941v-75h-350v75h350z" />
    <glyph glyph-name="emacron" unicode="&#x113;" horiz-adv-x="348" 
d="M196 241h127v-114q0 -73 -24 -101.5t-83 -28.5h-71q-62 0 -91 29.5t-29 100.5v397q0 72 26 100.5t86 28.5h65q62 0 91.5 -29.5t29.5 -99.5v-226h-168v-182q0 -13 6 -19.5t14 -6.5t14.5 6.5t6.5 19.5v125zM155 381h41v154q0 12 -6 18.5t-14 6.5t-14.5 -6.5t-6.5 -18.5
v-154zM349 775v-75h-350v75h350z" />
    <glyph glyph-name="Edotaccent" unicode="&#x116;" horiz-adv-x="294" 
d="M279 0h-249v814h249v-110h-107v-235h97v-110h-97v-249h107v-110zM206 980v-114h-112v114h112z" />
    <glyph glyph-name="edotaccent" unicode="&#x117;" horiz-adv-x="348" 
d="M196 241h127v-114q0 -73 -24 -101.5t-83 -28.5h-71q-62 0 -91 29.5t-29 100.5v397q0 72 26 100.5t86 28.5h65q62 0 91.5 -29.5t29.5 -99.5v-226h-168v-182q0 -13 6 -19.5t14 -6.5t14.5 6.5t6.5 19.5v125zM155 381h41v154q0 12 -6 18.5t-14 6.5t-14.5 -6.5t-6.5 -18.5
v-154zM230 814v-114h-112v114h112z" />
    <glyph glyph-name="Eogonek" unicode="&#x118;" horiz-adv-x="294" 
d="M279 -120q-14 -6 -31.5 -13t-44.5 -7q-42 0 -65 19.5t-23 49.5q0 22 10 38.5t27 32.5h-122v814h249v-110h-107v-235h97v-110h-97v-249h107v-110h-63q-17 -17 -27 -31t-10 -28q0 -28 32 -28q15 0 27.5 3.5t22.5 7.5z" />
    <glyph glyph-name="eogonek" unicode="&#x119;" horiz-adv-x="348" 
d="M303 -120q-14 -6 -31.5 -13t-44.5 -7q-42 0 -65 19.5t-23 49.5q0 21 9.5 37t24.5 31h-28q-62 0 -91 29.5t-29 100.5v397q0 72 26 100.5t86 28.5h65q62 0 91.5 -29.5t29.5 -99.5v-226h-168v-182q0 -13 6 -19.5t14 -6.5t14.5 6.5t6.5 19.5v125h127v-114q0 -66 -19 -95
t-66 -34q-16 -16 -25.5 -30t-9.5 -27q0 -28 32 -28q15 0 27.5 3.5t22.5 7.5zM155 381h41v154q0 12 -6 18.5t-14 6.5t-14.5 -6.5t-6.5 -18.5v-154z" />
    <glyph glyph-name="Ecaron" unicode="&#x11a;" horiz-adv-x="294" 
d="M279 0h-249v814h249v-110h-107v-235h97v-110h-97v-249h107v-110zM153 932l49 58h119l-106 -124h-123l-114 124h124z" />
    <glyph glyph-name="ecaron" unicode="&#x11b;" horiz-adv-x="348" 
d="M196 241h127v-114q0 -73 -24 -101.5t-83 -28.5h-71q-62 0 -91 29.5t-29 100.5v397q0 72 26 100.5t86 28.5h65q62 0 91.5 -29.5t29.5 -99.5v-226h-168v-182q0 -13 6 -19.5t14 -6.5t14.5 6.5t6.5 19.5v125zM155 381h41v154q0 12 -6 18.5t-14 6.5t-14.5 -6.5t-6.5 -18.5
v-154zM177 766l49 58h119l-106 -124h-123l-114 124h124z" />
    <glyph glyph-name="Gcircumflex" unicode="&#x11c;" horiz-adv-x="376" 
d="M356 121q0 -73 -26.5 -101.5t-86.5 -28.5h-98q-62 0 -91 30t-29 100v574q0 73 26 101.5t86 28.5h92q63 0 92 -29.5t29 -100.5v-145h-137v145q0 13 -7 19.5t-15 6.5t-16 -6.5t-8 -19.5v-574q0 -12 7.5 -18.5t15.5 -6.5t15.5 6.5t7.5 18.5v170h-25v111h168v-281zM191 923
l-51 -57h-124l114 124h123l106 -124h-119z" />
    <glyph glyph-name="gcircumflex" unicode="&#x11d;" horiz-adv-x="354" 
d="M197 23q-16 -16 -37.5 -24t-38.5 -8q-21 0 -38.5 5t-30 18.5t-20 37t-7.5 61.5v418q0 37 7.5 61t20 37.5t30 18.5t38.5 5q17 0 38.5 -8t37.5 -24l11 27h121v-668q0 -36 -5.5 -61t-18 -40.5t-32.5 -22t-50 -6.5h-85q-31 0 -51 7t-31.5 20.5t-16 33.5t-4.5 46h121
q0 -13 20 -13q8 0 14.5 6.5t6.5 18.5v54zM197 529q0 13 -6.5 19t-14.5 6t-14 -6t-6 -19v-413q0 -13 6 -19.5t14 -6.5t14.5 6.5t6.5 19.5v413zM180 757l-51 -57h-124l114 124h123l106 -124h-119z" />
    <glyph glyph-name="Gbreve" unicode="&#x11e;" horiz-adv-x="376" 
d="M356 121q0 -73 -26.5 -101.5t-86.5 -28.5h-98q-62 0 -91 30t-29 100v574q0 73 26 101.5t86 28.5h92q63 0 92 -29.5t29 -100.5v-145h-137v145q0 13 -7 19.5t-15 6.5t-16 -6.5t-8 -19.5v-574q0 -12 7.5 -18.5t15.5 -6.5t15.5 6.5t7.5 18.5v170h-25v111h168v-281zM138 999
q3 -26 12.5 -43.5t36.5 -17.5t37 17.5t14 43.5h74q-5 -66 -37.5 -99.5t-87.5 -33.5t-87 33.5t-37 99.5h75z" />
    <glyph glyph-name="gbreve" unicode="&#x11f;" horiz-adv-x="354" 
d="M197 23q-16 -16 -37.5 -24t-38.5 -8q-21 0 -38.5 5t-30 18.5t-20 37t-7.5 61.5v418q0 37 7.5 61t20 37.5t30 18.5t38.5 5q17 0 38.5 -8t37.5 -24l11 27h121v-668q0 -36 -5.5 -61t-18 -40.5t-32.5 -22t-50 -6.5h-85q-31 0 -51 7t-31.5 20.5t-16 33.5t-4.5 46h121
q0 -13 20 -13q8 0 14.5 6.5t6.5 18.5v54zM197 529q0 13 -6.5 19t-14.5 6t-14 -6t-6 -19v-413q0 -13 6 -19.5t14 -6.5t14.5 6.5t6.5 19.5v413zM127 833q3 -26 12.5 -43.5t36.5 -17.5t37 17.5t14 43.5h74q-5 -66 -37.5 -99.5t-87.5 -33.5t-87 33.5t-37 99.5h75z" />
    <glyph glyph-name="Gdotaccent" unicode="&#x120;" horiz-adv-x="376" 
d="M356 121q0 -73 -26.5 -101.5t-86.5 -28.5h-98q-62 0 -91 30t-29 100v574q0 73 26 101.5t86 28.5h92q63 0 92 -29.5t29 -100.5v-145h-137v145q0 13 -7 19.5t-15 6.5t-16 -6.5t-8 -19.5v-574q0 -12 7.5 -18.5t15.5 -6.5t15.5 6.5t7.5 18.5v170h-25v111h168v-281zM244 980
v-114h-112v114h112z" />
    <glyph glyph-name="gdotaccent" unicode="&#x121;" horiz-adv-x="354" 
d="M197 23q-16 -16 -37.5 -24t-38.5 -8q-21 0 -38.5 5t-30 18.5t-20 37t-7.5 61.5v418q0 37 7.5 61t20 37.5t30 18.5t38.5 5q17 0 38.5 -8t37.5 -24l11 27h121v-668q0 -36 -5.5 -61t-18 -40.5t-32.5 -22t-50 -6.5h-85q-31 0 -51 7t-31.5 20.5t-16 33.5t-4.5 46h121
q0 -13 20 -13q8 0 14.5 6.5t6.5 18.5v54zM197 529q0 13 -6.5 19t-14.5 6t-14 -6t-6 -19v-413q0 -13 6 -19.5t14 -6.5t14.5 6.5t6.5 19.5v413zM233 814v-114h-112v114h112z" />
    <glyph glyph-name="uni0122" unicode="&#x122;" horiz-adv-x="376" 
d="M356 121q0 -73 -26.5 -101.5t-86.5 -28.5h-98q-62 0 -91 30t-29 100v574q0 73 26 101.5t86 28.5h92q63 0 92 -29.5t29 -100.5v-145h-137v145q0 13 -7 19.5t-15 6.5t-16 -6.5t-8 -19.5v-574q0 -12 7.5 -18.5t15.5 -6.5t15.5 6.5t7.5 18.5v170h-25v111h168v-281zM253 -191
l-111 -140l35 140h-55v121h131v-121z" />
    <glyph glyph-name="uni0123" unicode="&#x123;" horiz-adv-x="354" 
d="M197 23q-16 -16 -37.5 -24t-38.5 -8q-21 0 -38.5 5t-30 18.5t-20 37t-7.5 61.5v418q0 37 7.5 61t20 37.5t30 18.5t38.5 5q17 0 38.5 -8t37.5 -24l11 27h121v-668q0 -36 -5.5 -61t-18 -40.5t-32.5 -22t-50 -6.5h-85q-31 0 -51 7t-31.5 20.5t-16 33.5t-4.5 46h121
q0 -13 20 -13q8 0 14.5 6.5t6.5 18.5v54zM197 529q0 13 -6.5 19t-14.5 6t-14 -6t-6 -19v-413q0 -13 6 -19.5t14 -6.5t14.5 6.5t6.5 19.5v413zM111 840l111 140l-35 -140h55v-121h-131v121z" />
    <glyph glyph-name="Hcircumflex" unicode="&#x124;" horiz-adv-x="391" 
d="M218 359h-46v-359h-142v814h142v-345h46v345h143v-814h-143v359zM199 923l-51 -57h-124l114 124h123l106 -124h-119z" />
    <glyph glyph-name="hcircumflex" unicode="&#x125;" horiz-adv-x="354" 
d="M156 0h-131v814h131v-189q16 16 37.5 24t38.5 8q21 0 38.5 -5t30.5 -18.5t20.5 -37.5t7.5 -61v-535h-132v532q0 13 -6 19.5t-14 6.5t-14.5 -6.5t-6.5 -19.5v-532zM95 921l-51 -57h-124l114 124h123l106 -124h-119z" />
    <glyph glyph-name="Hbar" unicode="&#x126;" horiz-adv-x="391" 
d="M218 359h-46v-359h-142v613h-25v75h25v126h142v-126h46v126h143v-126h25v-75h-25v-613h-143v359zM218 469v144h-46v-144h46z" />
    <glyph glyph-name="hbar" unicode="&#x127;" horiz-adv-x="354" 
d="M25 765v49h131v-49h169v-45h-169v-95q16 16 37.5 24t38.5 8q21 0 38.5 -5t30.5 -18.5t20.5 -37.5t7.5 -61v-535h-132v532q0 13 -6 19.5t-14 6.5t-14.5 -6.5t-6.5 -19.5v-532h-131v720h-25v45h25z" />
    <glyph glyph-name="Itilde" unicode="&#x128;" horiz-adv-x="202" 
d="M30 814h142v-814h-142v814zM168 960q35 0 48 40l71 -51q-20 -42 -47 -61t-57 -19q-13 0 -30.5 4t-34.5 11l-32 13q-11 5 -23.5 9t-23.5 4q-18 0 -31 -12.5t-23 -31.5l-69 46q24 41 50.5 63t61.5 22q19 0 35 -4.5t31 -9.5l27 -10q12 -5 24 -9t23 -4z" />
    <glyph glyph-name="itilde" unicode="&#x129;" horiz-adv-x="181" 
d="M25 648h131v-648h-131v648zM157 794q35 0 48 40l71 -51q-20 -42 -47 -61t-57 -19q-13 0 -30.5 4t-34.5 11l-32 13q-11 5 -23.5 9t-23.5 4q-18 0 -31 -12.5t-23 -31.5l-69 46q24 41 50.5 63t61.5 22q19 0 35 -4.5t31 -9.5l27 -10q12 -5 24 -9t23 -4z" />
    <glyph glyph-name="Imacron" unicode="&#x12a;" horiz-adv-x="202" 
d="M30 814h142v-814h-142v814zM276 941v-75h-350v75h350z" />
    <glyph glyph-name="imacron" unicode="&#x12b;" horiz-adv-x="181" 
d="M25 648h131v-648h-131v648zM266 775v-75h-350v75h350z" />
    <glyph glyph-name="Iogonek" unicode="&#x12e;" horiz-adv-x="202" 
d="M30 814h142v-814h-40q-17 -17 -27 -31t-10 -28q0 -28 32 -28q15 0 27.5 3.5t22.5 7.5l18 -44q-14 -6 -31.5 -13t-44.5 -7q-42 0 -65 19.5t-23 49.5q0 22 10 38.5t27 32.5h-38v814z" />
    <glyph glyph-name="iogonek" unicode="&#x12f;" horiz-adv-x="181" 
d="M25 648h131v-648h-26q-17 -17 -27 -31t-10 -28q0 -28 32 -28q15 0 27.5 3.5t22.5 7.5l18 -44q-14 -6 -31.5 -13t-44.5 -7q-42 0 -65 19.5t-23 49.5q0 22 10 38.5t27 32.5h-41v648zM156 693h-131v121h131v-121z" />
    <glyph glyph-name="Idotaccent" unicode="&#x130;" horiz-adv-x="202" 
d="M30 814h142v-814h-142v814zM157 980v-114h-112v114h112z" />
    <glyph glyph-name="dotlessi" unicode="&#x131;" horiz-adv-x="181" 
d="M25 648h131v-648h-131v648z" />
    <glyph glyph-name="Jcircumflex" unicode="&#x134;" horiz-adv-x="218" 
d="M50 814h143v-680q0 -73 -30 -106.5t-83 -33.5q-17 0 -35 1t-35 5v95q4 0 11 1.5t13.5 5t11 10.5t4.5 19v683zM113 923l-51 -57h-124l114 124h123l106 -124h-119z" />
    <glyph glyph-name="jcircumflex" unicode="&#x135;" horiz-adv-x="181" 
d="M25 648h131v-797h-131v797zM94 757l-51 -57h-124l114 124h123l106 -124h-119z" />
    <glyph glyph-name="uni0136" unicode="&#x136;" horiz-adv-x="409" 
d="M299 421l105 -421h-146l-86 384v-384h-142v814h142v-349l62 349h139zM272 -191l-111 -140l35 140h-55v121h131v-121z" />
    <glyph glyph-name="uni0137" unicode="&#x137;" horiz-adv-x="344" 
d="M25 814h131v-443l48 277h127l-57 -306l69 -342h-133l-54 308v-308h-131v814zM239 -191l-111 -140l35 140h-55v121h131v-121z" />
    <glyph glyph-name="kgreenlandic" unicode="&#x138;" horiz-adv-x="343" 
d="M25 648h131v-277l48 277h127l-57 -306l69 -342h-133l-54 308v-308h-131v648z" />
    <glyph glyph-name="Lacute" unicode="&#x139;" horiz-adv-x="290" 
d="M30 814h142v-704h103v-110h-245v814zM280 984l-145 -118h-89l77 118h157z" />
    <glyph glyph-name="lacute" unicode="&#x13a;" horiz-adv-x="181" 
d="M25 814h131v-814h-131v814zM237 990l-145 -118h-89l77 118h157z" />
    <glyph glyph-name="uni013B" unicode="&#x13b;" horiz-adv-x="285" 
d="M30 814h142v-704h103v-110h-245v814zM210 -191l-111 -140l35 140h-55v121h131v-121z" />
    <glyph glyph-name="uni013C" unicode="&#x13c;" horiz-adv-x="181" 
d="M25 814h131v-814h-131v814zM156 -191l-111 -140l35 140h-55v121h131v-121z" />
    <glyph glyph-name="Lcaron" unicode="&#x13d;" horiz-adv-x="370" 
d="M30 814h142v-704h103v-110h-245v814zM360 693l-111 -140l35 140h-55v121h131v-121z" />
    <glyph glyph-name="lcaron" unicode="&#x13e;" horiz-adv-x="322" 
d="M25 814h131v-814h-131v814zM337 693l-111 -140l35 140h-55v121h131v-121z" />
    <glyph glyph-name="Lslash" unicode="&#x141;" horiz-adv-x="285" 
d="M0 344l30 14v456h142v-394l83 37v-90l-83 -37v-220h103v-110h-245v268l-30 -14v90z" />
    <glyph glyph-name="lslash" unicode="&#x142;" horiz-adv-x="181" 
d="M156 417l25 11v-90l-25 -11v-327h-131v270l-25 -11v90l25 11v454h131v-397z" />
    <glyph glyph-name="Nacute" unicode="&#x143;" horiz-adv-x="426" 
d="M158 435v-435h-128v814h147l87 -437v437h132v-814h-153zM389 984l-145 -118h-89l77 118h157z" />
    <glyph glyph-name="nacute" unicode="&#x144;" horiz-adv-x="354" 
d="M156 0h-131v648h118l11 -21q16 16 38.5 23t39.5 7q21 0 38.5 -5t30.5 -18.5t20.5 -37.5t7.5 -61v-535h-132v532q0 13 -6 19.5t-14 6.5t-14.5 -6.5t-6.5 -19.5v-532zM354 818l-145 -118h-89l77 118h157z" />
    <glyph glyph-name="uni0145" unicode="&#x145;" horiz-adv-x="426" 
d="M158 435v-435h-128v814h147l87 -437v437h132v-814h-153zM278 -191l-111 -140l35 140h-55v121h131v-121z" />
    <glyph glyph-name="uni0146" unicode="&#x146;" horiz-adv-x="354" 
d="M156 0h-131v648h118l11 -21q16 16 38.5 23t39.5 7q21 0 38.5 -5t30.5 -18.5t20.5 -37.5t7.5 -61v-535h-132v532q0 13 -6 19.5t-14 6.5t-14.5 -6.5t-6.5 -19.5v-532zM242 -191l-111 -140l35 140h-55v121h131v-121z" />
    <glyph glyph-name="Ncaron" unicode="&#x147;" horiz-adv-x="426" 
d="M158 435v-435h-128v814h147l87 -437v437h132v-814h-153zM216 932l49 58h119l-106 -124h-123l-114 124h124z" />
    <glyph glyph-name="ncaron" unicode="&#x148;" horiz-adv-x="354" 
d="M156 0h-131v648h118l11 -21q16 16 38.5 23t39.5 7q21 0 38.5 -5t30.5 -18.5t20.5 -37.5t7.5 -61v-535h-132v532q0 13 -6 19.5t-14 6.5t-14.5 -6.5t-6.5 -19.5v-532zM180 766l49 58h119l-106 -124h-123l-114 124h124z" />
    <glyph glyph-name="Eng" unicode="&#x14a;" horiz-adv-x="426" 
d="M158 435v-435h-128v814h147l87 -437v437h132v-829q0 -73 -27 -106.5t-80 -33.5q-17 0 -32.5 1t-32.5 5v95q4 0 11 1.5t13.5 5t11 10.5t4.5 19v18h-21z" />
    <glyph glyph-name="eng" unicode="&#x14b;" horiz-adv-x="354" 
d="M156 0h-131v648h118l11 -21q16 16 38.5 23t39.5 7q21 0 38.5 -5t30.5 -18.5t20.5 -37.5t7.5 -61v-685h-132v682q0 13 -6 19.5t-14 6.5t-14.5 -6.5t-6.5 -19.5v-532z" />
    <glyph glyph-name="Omacron" unicode="&#x14c;" horiz-adv-x="381" 
d="M356 121q0 -73 -26.5 -101.5t-86.5 -28.5h-98q-62 0 -91 30t-29 100v574q0 73 26 101.5t86 28.5h98q62 0 91.5 -29.5t29.5 -100.5v-574zM213 695q0 13 -7 19.5t-15 6.5t-16 -6.5t-8 -19.5v-574q0 -12 7.5 -18.5t15.5 -6.5t15.5 6.5t7.5 18.5v574zM365 941v-75h-350v75
h350z" />
    <glyph glyph-name="omacron" unicode="&#x14d;" horiz-adv-x="354" 
d="M329 127q0 -73 -26 -101.5t-86 -28.5h-72q-62 0 -91 29.5t-29 100.5v397q0 72 26 100.5t86 28.5h71q63 0 92 -29.5t29 -99.5v-397zM197 535q0 12 -6 18.5t-14 6.5t-14.5 -6.5t-6.5 -18.5v-419q0 -13 6 -19.5t14 -6.5t14.5 6.5t6.5 19.5v419zM352 775v-75h-350v75h350z
" />
    <glyph glyph-name="Ohungarumlaut" unicode="&#x150;" horiz-adv-x="381" 
d="M356 121q0 -73 -26.5 -101.5t-86.5 -28.5h-98q-62 0 -91 30t-29 100v574q0 73 26 101.5t86 28.5h98q62 0 91.5 -29.5t29.5 -100.5v-574zM213 695q0 13 -7 19.5t-15 6.5t-16 -6.5t-8 -19.5v-574q0 -12 7.5 -18.5t15.5 -6.5t15.5 6.5t7.5 18.5v574zM235 1002l-106 -135h-65
l52 135h119zM386 1002l-106 -135h-65l52 135h119z" />
    <glyph glyph-name="ohungarumlaut" unicode="&#x151;" horiz-adv-x="354" 
d="M329 127q0 -73 -26 -101.5t-86 -28.5h-72q-62 0 -91 29.5t-29 100.5v397q0 72 26 100.5t86 28.5h71q63 0 92 -29.5t29 -99.5v-397zM197 535q0 12 -6 18.5t-14 6.5t-14.5 -6.5t-6.5 -18.5v-419q0 -13 6 -19.5t14 -6.5t14.5 6.5t6.5 19.5v419zM233 836l-106 -135h-65
l52 135h119zM384 836l-106 -135h-65l52 135h119z" />
    <glyph glyph-name="OE" unicode="&#x152;" horiz-adv-x="477" 
d="M462 0h-317q-62 0 -91 30t-29 100v554q0 73 26 101.5t86 28.5h325v-110h-106v-235h96v-110h-96v-249h106v-110zM213 684q0 13 -7 19.5t-15 6.5t-16 -6.5t-8 -19.5v-554q0 -12 7.5 -18.5t15.5 -6.5t15.5 6.5t7.5 18.5v554z" />
    <glyph glyph-name="oe" unicode="&#x153;" horiz-adv-x="522" 
d="M370 241h127v-114q0 -73 -24 -101.5t-83 -28.5h-71q-15 0 -28 2.5t-24 13.5q-11 -11 -23.5 -13.5t-26.5 -2.5h-72q-62 0 -91 29.5t-29 100.5v397q0 72 26 100.5t86 28.5h71q15 0 28 -3t24 -14q11 11 23.5 14t27.5 3h65q62 0 91.5 -29.5t29.5 -99.5v-226h-168v-185
q2 -23 20 -23q8 0 14.5 6.5t6.5 19.5v125zM197 535q0 12 -6 18.5t-14 6.5t-14.5 -6.5t-6.5 -18.5v-419q0 -13 6 -19.5t14 -6.5t14.5 6.5t6.5 19.5v419zM329 381h41v154q0 12 -6 18.5t-14 6.5t-14.5 -6.5t-6.5 -18.5v-154z" />
    <glyph glyph-name="Racute" unicode="&#x154;" horiz-adv-x="386" 
d="M361 0h-143v297q0 12 -7.5 18.5t-15.5 6.5h-23v-322h-142v814h210q62 0 91.5 -29.5t29.5 -100.5v-180q0 -62 -18.5 -91t-60.5 -37q42 -7 60.5 -36.5t18.5 -90.5v-249zM218 684q0 13 -7 19.5t-15 6.5h-24v-282h23q8 0 15.5 6.5t7.5 18.5v231zM350 984l-145 -118h-89
l77 118h157z" />
    <glyph glyph-name="racute" unicode="&#x155;" horiz-adv-x="339" 
d="M156 0h-131v648h119l10 -21q21 16 41 23t37 7q21 0 38 -5t29 -18.5t18.5 -37.5t6.5 -61v-150h-127v147q0 13 -6 19.5t-14 6.5t-14.5 -6.5t-6.5 -19.5v-532zM334 818l-145 -118h-89l77 118h157z" />
    <glyph glyph-name="uni0156" unicode="&#x156;" horiz-adv-x="386" 
d="M361 0h-143v297q0 12 -7.5 18.5t-15.5 6.5h-23v-322h-142v814h210q62 0 91.5 -29.5t29.5 -100.5v-180q0 -62 -18.5 -91t-60.5 -37q42 -7 60.5 -36.5t18.5 -90.5v-249zM218 684q0 13 -7 19.5t-15 6.5h-24v-282h23q8 0 15.5 6.5t7.5 18.5v231zM262 -191l-111 -140l35 140
h-55v121h131v-121z" />
    <glyph glyph-name="uni0157" unicode="&#x157;" horiz-adv-x="339" 
d="M156 0h-131v648h119l10 -21q21 16 41 23t37 7q21 0 38 -5t29 -18.5t18.5 -37.5t6.5 -61v-150h-127v147q0 13 -6 19.5t-14 6.5t-14.5 -6.5t-6.5 -19.5v-532zM235 -191l-111 -140l35 140h-55v121h131v-121z" />
    <glyph glyph-name="Rcaron" unicode="&#x158;" horiz-adv-x="386" 
d="M361 0h-143v297q0 12 -7.5 18.5t-15.5 6.5h-23v-322h-142v814h210q62 0 91.5 -29.5t29.5 -100.5v-180q0 -62 -18.5 -91t-60.5 -37q42 -7 60.5 -36.5t18.5 -90.5v-249zM218 684q0 13 -7 19.5t-15 6.5h-24v-282h23q8 0 15.5 6.5t7.5 18.5v231zM190 932l49 58h119l-106 -124
h-123l-114 124h124z" />
    <glyph glyph-name="rcaron" unicode="&#x159;" horiz-adv-x="339" 
d="M156 0h-131v648h119l10 -21q21 16 41 23t37 7q21 0 38 -5t29 -18.5t18.5 -37.5t6.5 -61v-150h-127v147q0 13 -6 19.5t-14 6.5t-14.5 -6.5t-6.5 -19.5v-532zM173 766l49 58h119l-106 -124h-123l-114 124h124z" />
    <glyph glyph-name="Sacute" unicode="&#x15a;" horiz-adv-x="364" 
d="M206 262q0 24 -14 44.5t-34.5 40.5t-44.5 40.5t-44.5 44t-34.5 50.5t-14 61v153q0 72 26.5 100.5t86.5 28.5h90q63 0 89.5 -29.5t26.5 -99.5v-147h-133v148q0 12 -6.5 18.5t-15.5 6.5q-10 0 -16.5 -6.5t-6.5 -18.5v-130q0 -23 13.5 -42t34 -37t44 -37t44 -42.5t34 -52
t13.5 -66.5v-169q0 -72 -26.5 -101t-86.5 -29h-91q-62 0 -88.5 30t-26.5 100v170h136v-171q0 -25 22 -25q10 0 16.5 6.5t6.5 18.5v142zM356 984l-145 -118h-89l77 118h157z" />
    <glyph glyph-name="sacute" unicode="&#x15b;" horiz-adv-x="344" 
d="M192 206q0 24 -12.5 41t-32 31.5t-41.5 28t-41.5 31.5t-32 41.5t-12.5 57.5v87q0 72 26.5 100.5t86.5 28.5h70q63 0 89.5 -29.5t26.5 -99.5v-91h-127v102q0 12 -6 18.5t-14 6.5t-14.5 -6.5t-6.5 -18.5v-74q0 -23 13 -39t32 -30t41.5 -28t41.5 -33t32 -45t13 -64v-98
q0 -72 -26.5 -101t-86.5 -29h-71q-62 0 -88.5 30t-26.5 100v111h126v-122q0 -12 6 -18.5t14 -6.5t14.5 6.5t6.5 18.5v93zM345 818l-145 -118h-89l77 118h157z" />
    <glyph glyph-name="Scircumflex" unicode="&#x15c;" horiz-adv-x="364" 
d="M206 262q0 24 -14 44.5t-34.5 40.5t-44.5 40.5t-44.5 44t-34.5 50.5t-14 61v153q0 72 26.5 100.5t86.5 28.5h90q63 0 89.5 -29.5t26.5 -99.5v-147h-133v148q0 12 -6.5 18.5t-15.5 6.5q-10 0 -16.5 -6.5t-6.5 -18.5v-130q0 -23 13.5 -42t34 -37t44 -37t44 -42.5t34 -52
t13.5 -66.5v-169q0 -72 -26.5 -101t-86.5 -29h-91q-62 0 -88.5 30t-26.5 100v170h136v-171q0 -25 22 -25q10 0 16.5 6.5t6.5 18.5v142zM185 923l-51 -57h-124l114 124h123l106 -124h-119z" />
    <glyph glyph-name="scircumflex" unicode="&#x15d;" horiz-adv-x="344" 
d="M192 206q0 24 -12.5 41t-32 31.5t-41.5 28t-41.5 31.5t-32 41.5t-12.5 57.5v87q0 72 26.5 100.5t86.5 28.5h70q63 0 89.5 -29.5t26.5 -99.5v-91h-127v102q0 12 -6 18.5t-14 6.5t-14.5 -6.5t-6.5 -18.5v-74q0 -23 13 -39t32 -30t41.5 -28t41.5 -33t32 -45t13 -64v-98
q0 -72 -26.5 -101t-86.5 -29h-71q-62 0 -88.5 30t-26.5 100v111h126v-122q0 -12 6 -18.5t14 -6.5t14.5 6.5t6.5 18.5v93zM175 757l-51 -57h-124l114 124h123l106 -124h-119z" />
    <glyph glyph-name="Scedilla" unicode="&#x15e;" horiz-adv-x="364" 
d="M157 -84v75h-17q-62 0 -88.5 30t-26.5 100v170h136v-171q0 -25 22 -25q10 0 16.5 6.5t6.5 18.5v142q0 24 -14 44.5t-34.5 40.5t-44.5 40.5t-44.5 44t-34.5 50.5t-14 61v153q0 72 26.5 100.5t86.5 28.5h90q63 0 89.5 -29.5t26.5 -99.5v-147h-133v148q0 12 -6.5 18.5
t-15.5 6.5q-10 0 -16.5 -6.5t-6.5 -18.5v-130q0 -23 13.5 -42t34 -37t44 -37t44 -42.5t34 -52t13.5 -66.5v-169q0 -72 -26.5 -101t-86.5 -29h-22v-41q30 -2 46.5 -18t16.5 -40q0 -16 -7 -31t-19.5 -26t-29.5 -18t-37 -7q-29 0 -53 17t-34 52h65q4 -8 9 -13t15 -5q25 0 25 26
q0 14 -10.5 21.5t-27.5 7.5h-11z" />
    <glyph glyph-name="scedilla" unicode="&#x15f;" horiz-adv-x="344" 
d="M147 -84v78h-7q-62 0 -88.5 30t-26.5 100v111h126v-122q0 -12 6 -18.5t14 -6.5t14.5 6.5t6.5 18.5v93q0 24 -12.5 41t-32 31.5t-41.5 28t-41.5 31.5t-32 41.5t-12.5 57.5v87q0 72 26.5 100.5t86.5 28.5h70q63 0 89.5 -29.5t26.5 -99.5v-91h-127v102q0 12 -6 18.5t-14 6.5
t-14.5 -6.5t-6.5 -18.5v-74q0 -23 13 -39t32 -30t41.5 -28t41.5 -33t32 -45t13 -64v-98q0 -72 -26.5 -101t-86.5 -29h-12v-44q30 -2 46.5 -18t16.5 -40q0 -16 -7 -31t-19.5 -26t-29.5 -18t-37 -7q-29 0 -53 17t-34 52h65q4 -8 9 -13t15 -5q25 0 25 26q0 14 -10.5 21.5
t-27.5 7.5h-11z" />
    <glyph glyph-name="Scaron" unicode="&#x160;" horiz-adv-x="364" 
d="M206 262q0 24 -14 44.5t-34.5 40.5t-44.5 40.5t-44.5 44t-34.5 50.5t-14 61v153q0 72 26.5 100.5t86.5 28.5h90q63 0 89.5 -29.5t26.5 -99.5v-147h-133v148q0 12 -6.5 18.5t-15.5 6.5q-10 0 -16.5 -6.5t-6.5 -18.5v-130q0 -23 13.5 -42t34 -37t44 -37t44 -42.5t34 -52
t13.5 -66.5v-169q0 -72 -26.5 -101t-86.5 -29h-91q-62 0 -88.5 30t-26.5 100v170h136v-171q0 -25 22 -25q10 0 16.5 6.5t6.5 18.5v142zM185 932l49 58h119l-106 -124h-123l-114 124h124z" />
    <glyph glyph-name="scaron" unicode="&#x161;" horiz-adv-x="344" 
d="M192 206q0 24 -12.5 41t-32 31.5t-41.5 28t-41.5 31.5t-32 41.5t-12.5 57.5v87q0 72 26.5 100.5t86.5 28.5h70q63 0 89.5 -29.5t26.5 -99.5v-91h-127v102q0 12 -6 18.5t-14 6.5t-14.5 -6.5t-6.5 -18.5v-74q0 -23 13 -39t32 -30t41.5 -28t41.5 -33t32 -45t13 -64v-98
q0 -72 -26.5 -101t-86.5 -29h-71q-62 0 -88.5 30t-26.5 100v111h126v-122q0 -12 6 -18.5t14 -6.5t14.5 6.5t6.5 18.5v93zM175 766l49 58h119l-106 -124h-123l-114 124h124z" />
    <glyph glyph-name="uni0162" unicode="&#x162;" horiz-adv-x="319" 
d="M88 704h-78v110h299v-110h-78v-704h-143v704zM225 -191l-111 -140l35 140h-55v121h131v-121z" />
    <glyph glyph-name="uni0163" unicode="&#x163;" horiz-adv-x="222" 
d="M5 648h33v87h132v-87h45v-90h-45v-442q0 -13 6 -19.5t14 -6.5h27v-90h-102q-25 0 -40 7.5t-23.5 22.5t-11 37t-2.5 51v440h-33v90zM196 -191l-111 -140l35 140h-55v121h131v-121z" />
    <glyph glyph-name="Tcaron" unicode="&#x164;" horiz-adv-x="319" 
d="M88 704h-78v110h299v-110h-78v-704h-143v704zM163 932l49 58h119l-106 -124h-123l-114 124h124z" />
    <glyph glyph-name="tcaron" unicode="&#x165;" horiz-adv-x="290" 
d="M5 648h33v87h132v-87h45v-90h-45v-442q0 -13 6 -19.5t14 -6.5h27v-90h-102q-25 0 -40 7.5t-23.5 22.5t-11 37t-2.5 51v440h-33v90zM347 693l-111 -136l35 136h-55v121h131v-121z" />
    <glyph glyph-name="Tbar" unicode="&#x166;" horiz-adv-x="319" 
d="M88 588v116h-78v110h299v-110h-78v-116h88v-75h-88v-513h-143v513h-88v75h88z" />
    <glyph glyph-name="tbar" unicode="&#x167;" horiz-adv-x="242" 
d="M48 485v73h-33v90h33v87h132v-87h45v-90h-45v-73h57v-75h-57v-294q0 -13 6 -19.5t14 -6.5h27v-90h-102q-25 0 -40 7.5t-23.5 22.5t-11 37t-2.5 51v292h-43v75h43z" />
    <glyph glyph-name="Utilde" unicode="&#x168;" horiz-adv-x="381" 
d="M213 814h143v-693q0 -73 -26.5 -101.5t-86.5 -28.5h-98q-62 0 -91 30t-29 100v693h142v-693q0 -12 7.5 -18.5t15.5 -6.5t15.5 6.5t7.5 18.5v693zM257 960q35 0 48 40l71 -51q-20 -42 -47 -61t-57 -19q-13 0 -30.5 4t-34.5 11l-32 13q-11 5 -23.5 9t-23.5 4
q-18 0 -31 -12.5t-23 -31.5l-69 46q24 41 50.5 63t61.5 22q19 0 35 -4.5t31 -9.5l27 -10q12 -5 24 -9t23 -4z" />
    <glyph glyph-name="utilde" unicode="&#x169;" horiz-adv-x="354" 
d="M197 648h132v-648h-120l-10 21q-15 -16 -38 -23t-40 -7q-21 0 -38.5 5t-30 18.5t-20 37t-7.5 61.5v535h131v-532q0 -13 6 -19.5t14 -6.5t14.5 6.5t6.5 19.5v532zM243 794q35 0 48 40l71 -51q-20 -42 -47 -61t-57 -19q-13 0 -30.5 4t-34.5 11l-32 13q-11 5 -23.5 9
t-23.5 4q-18 0 -31 -12.5t-23 -31.5l-69 46q24 41 50.5 63t61.5 22q19 0 35 -4.5t31 -9.5l27 -10q12 -5 24 -9t23 -4z" />
    <glyph glyph-name="Umacron" unicode="&#x16a;" horiz-adv-x="381" 
d="M213 814h143v-693q0 -73 -26.5 -101.5t-86.5 -28.5h-98q-62 0 -91 30t-29 100v693h142v-693q0 -12 7.5 -18.5t15.5 -6.5t15.5 6.5t7.5 18.5v693zM365 941v-75h-350v75h350z" />
    <glyph glyph-name="umacron" unicode="&#x16b;" horiz-adv-x="354" 
d="M197 648h132v-648h-120l-10 21q-15 -16 -38 -23t-40 -7q-21 0 -38.5 5t-30 18.5t-20 37t-7.5 61.5v535h131v-532q0 -13 6 -19.5t14 -6.5t14.5 6.5t6.5 19.5v532zM352 775v-75h-350v75h350z" />
    <glyph glyph-name="Ubreve" unicode="&#x16c;" horiz-adv-x="381" 
d="M213 814h143v-693q0 -73 -26.5 -101.5t-86.5 -28.5h-98q-62 0 -91 30t-29 100v693h142v-693q0 -12 7.5 -18.5t15.5 -6.5t15.5 6.5t7.5 18.5v693zM141 999q3 -26 12.5 -43.5t36.5 -17.5t37 17.5t14 43.5h74q-5 -66 -37.5 -99.5t-87.5 -33.5t-87 33.5t-37 99.5h75z" />
    <glyph glyph-name="ubreve" unicode="&#x16d;" horiz-adv-x="354" 
d="M197 648h132v-648h-120l-10 21q-15 -16 -38 -23t-40 -7q-21 0 -38.5 5t-30 18.5t-20 37t-7.5 61.5v535h131v-532q0 -13 6 -19.5t14 -6.5t14.5 6.5t6.5 19.5v532zM127 833q3 -26 12.5 -43.5t36.5 -17.5t37 17.5t14 43.5h74q-5 -66 -37.5 -99.5t-87.5 -33.5t-87 33.5
t-37 99.5h75z" />
    <glyph glyph-name="Uring" unicode="&#x16e;" horiz-adv-x="381" 
d="M213 814h143v-693q0 -73 -26.5 -101.5t-86.5 -28.5h-98q-62 0 -91 30t-29 100v693h142v-693q0 -12 7.5 -18.5t15.5 -6.5t15.5 6.5t7.5 18.5v693zM190 1050q39 0 66 -26.5t27 -65.5q0 -19 -7.5 -36t-20 -29.5t-29.5 -19.5t-36 -7t-36 7t-29.5 19.5t-19.5 29.5t-7 36t7 36
t19.5 29.5t29.5 19.5t36 7zM189 993q-14 0 -25 -10.5t-11 -25.5q0 -16 11 -26.5t25 -10.5q15 0 26 11t11 26q0 14 -11 25t-26 11z" />
    <glyph glyph-name="uring" unicode="&#x16f;" horiz-adv-x="354" 
d="M197 648h132v-648h-120l-10 21q-15 -16 -38 -23t-40 -7q-21 0 -38.5 5t-30 18.5t-20 37t-7.5 61.5v535h131v-532q0 -13 6 -19.5t14 -6.5t14.5 6.5t6.5 19.5v532zM176 884q39 0 66 -26.5t27 -65.5q0 -19 -7.5 -36t-20 -29.5t-29.5 -19.5t-36 -7t-36 7t-29.5 19.5
t-19.5 29.5t-7 36t7 36t19.5 29.5t29.5 19.5t36 7zM175 827q-14 0 -25 -10.5t-11 -25.5q0 -16 11 -26.5t25 -10.5q15 0 26 11t11 26q0 14 -11 25t-26 11z" />
    <glyph glyph-name="Uhungarumlaut" unicode="&#x170;" horiz-adv-x="381" 
d="M213 814h143v-693q0 -73 -26.5 -101.5t-86.5 -28.5h-98q-62 0 -91 30t-29 100v693h142v-693q0 -12 7.5 -18.5t15.5 -6.5t15.5 6.5t7.5 18.5v693zM245 1002l-106 -135h-65l52 135h119zM396 1002l-106 -135h-65l52 135h119z" />
    <glyph glyph-name="uhungarumlaut" unicode="&#x171;" horiz-adv-x="354" 
d="M197 648h132v-648h-120l-10 21q-15 -16 -38 -23t-40 -7q-21 0 -38.5 5t-30 18.5t-20 37t-7.5 61.5v535h131v-532q0 -13 6 -19.5t14 -6.5t14.5 6.5t6.5 19.5v532zM239 836l-106 -135h-65l52 135h119zM390 836l-106 -135h-65l52 135h119z" />
    <glyph glyph-name="Uogonek" unicode="&#x172;" horiz-adv-x="381" 
d="M315 -120q-14 -6 -31.5 -13t-44.5 -7q-42 0 -65 19.5t-23 49.5q0 19 7.5 33.5t20.5 28.5h-34q-62 0 -91 30t-29 100v693h142v-693q0 -12 7.5 -18.5t15.5 -6.5t15.5 6.5t7.5 18.5v693h143v-693q0 -73 -26.5 -101t-85.5 -29q-14 -14 -21.5 -26.5t-7.5 -23.5q0 -28 32 -28
q15 0 27.5 3.5t22.5 7.5z" />
    <glyph glyph-name="uogonek" unicode="&#x173;" horiz-adv-x="354" 
d="M336 -120q-14 -6 -31.5 -13t-44.5 -7q-42 0 -65 19.5t-23 49.5q0 22 10 38.5t27 32.5l-10 21q-15 -16 -38 -23t-40 -7q-21 0 -38.5 5t-30 18.5t-20 37t-7.5 61.5v535h131v-532q0 -13 6 -19.5t14 -6.5t14.5 6.5t6.5 19.5v532h132v-648h-56q-17 -17 -27 -31t-10 -28
q0 -28 32 -28q15 0 27.5 3.5t22.5 7.5z" />
    <glyph glyph-name="Wcircumflex" unicode="&#x174;" horiz-adv-x="574" 
d="M513 0h-183l-43 603l-43 -603h-183l-61 814h137l28 -589l38 589h168l38 -589l28 589h137zM290 923l-51 -57h-124l114 124h123l106 -124h-119z" />
    <glyph glyph-name="wcircumflex" unicode="&#x175;" horiz-adv-x="512" 
d="M436 0h-154l-26 464l-26 -464h-154l-76 648h127l25 -425l26 425h157l25 -425l26 425h126zM259 757l-51 -57h-124l114 124h123l106 -124h-119z" />
    <glyph glyph-name="Ycircumflex" unicode="&#x176;" horiz-adv-x="357" 
d="M250 239v-239h-142v240l-108 574h135l44 -366l44 366h134zM182 923l-51 -57h-124l114 124h123l106 -124h-119z" />
    <glyph glyph-name="ycircumflex" unicode="&#x177;" horiz-adv-x="319" 
d="M0 648h127l33 -487l33 487h126l-90 -798h-110l15 150h-58zM163 757l-51 -57h-124l114 124h123l106 -124h-119z" />
    <glyph glyph-name="Ydieresis" unicode="&#x178;" horiz-adv-x="357" 
d="M250 239v-239h-142v240l-108 574h135l44 -366l44 366h134zM138 980v-114h-113v114h113zM331 980v-114h-115v114h115z" />
    <glyph glyph-name="Zacute" unicode="&#x179;" horiz-adv-x="304" 
d="M15 112l136 602h-131v100h269v-111l-136 -603h136v-100h-274v112zM325 984l-145 -118h-89l77 118h157z" />
    <glyph glyph-name="zacute" unicode="&#x17a;" horiz-adv-x="269" 
d="M10 102l126 456h-117v90h245v-101l-126 -457h126v-90h-254v102zM314 818l-145 -118h-89l77 118h157z" />
    <glyph glyph-name="Zdotaccent" unicode="&#x17b;" horiz-adv-x="304" 
d="M15 112l136 602h-131v100h269v-111l-136 -603h136v-100h-274v112zM208 980v-114h-112v114h112z" />
    <glyph glyph-name="zdotaccent" unicode="&#x17c;" horiz-adv-x="269" 
d="M10 102l126 456h-117v90h245v-101l-126 -457h126v-90h-254v102zM193 814v-114h-112v114h112z" />
    <glyph glyph-name="Zcaron" unicode="&#x17d;" horiz-adv-x="304" 
d="M15 112l136 602h-131v100h269v-111l-136 -603h136v-100h-274v112zM155 932l49 58h119l-106 -124h-123l-114 124h124z" />
    <glyph glyph-name="zcaron" unicode="&#x17e;" horiz-adv-x="269" 
d="M10 102l126 456h-117v90h245v-101l-126 -457h126v-90h-254v102zM141 766l49 58h119l-106 -124h-123l-114 124h124z" />
    <glyph glyph-name="florin" unicode="&#x192;" horiz-adv-x="242" 
d="M185 -32q0 -37 -6 -60t-18.5 -36t-31 -17.5t-43.5 -4.5h-76v90h23q8 0 14 6.5t6 19.5v444h-43v90h43v196q0 37 6 60t18.5 36t31 17.5t43.5 4.5h80v-90h-27q-8 0 -14 -6.5t-6 -19.5v-198h45v-90h-45v-442z" />
    <glyph glyph-name="uni0218" unicode="&#x218;" horiz-adv-x="364" 
d="M206 262q0 24 -14 44.5t-34.5 40.5t-44.5 40.5t-44.5 44t-34.5 50.5t-14 61v153q0 72 26.5 100.5t86.5 28.5h90q63 0 89.5 -29.5t26.5 -99.5v-147h-133v148q0 12 -6.5 18.5t-15.5 6.5q-10 0 -16.5 -6.5t-6.5 -18.5v-130q0 -23 13.5 -42t34 -37t44 -37t44 -42.5t34 -52
t13.5 -66.5v-169q0 -72 -26.5 -101t-86.5 -29h-91q-62 0 -88.5 30t-26.5 100v170h136v-171q0 -25 22 -25q10 0 16.5 6.5t6.5 18.5v142zM251 -191l-111 -140l35 140h-55v121h131v-121z" />
    <glyph glyph-name="uni0219" unicode="&#x219;" horiz-adv-x="344" 
d="M192 206q0 24 -12.5 41t-32 31.5t-41.5 28t-41.5 31.5t-32 41.5t-12.5 57.5v87q0 72 26.5 100.5t86.5 28.5h70q63 0 89.5 -29.5t26.5 -99.5v-91h-127v102q0 12 -6 18.5t-14 6.5t-14.5 -6.5t-6.5 -18.5v-74q0 -23 13 -39t32 -30t41.5 -28t41.5 -33t32 -45t13 -64v-98
q0 -72 -26.5 -101t-86.5 -29h-71q-62 0 -88.5 30t-26.5 100v111h126v-122q0 -12 6 -18.5t14 -6.5t14.5 6.5t6.5 18.5v93zM239 -191l-111 -140l35 140h-55v121h131v-121z" />
    <glyph glyph-name="uni0237" unicode="&#x237;" horiz-adv-x="181" 
d="M25 648h131v-797h-131v797z" />
    <glyph glyph-name="circumflex" unicode="&#x2c6;" horiz-adv-x="300" 
d="M153 757l-51 -57h-124l114 124h123l106 -124h-119z" />
    <glyph glyph-name="caron" unicode="&#x2c7;" horiz-adv-x="300" 
d="M153 766l49 58h119l-106 -124h-123l-114 124h124z" />
    <glyph glyph-name="breve" unicode="&#x2d8;" horiz-adv-x="300" 
d="M100 833q3 -26 12.5 -43.5t36.5 -17.5t37 17.5t14 43.5h74q-5 -66 -37.5 -99.5t-87.5 -33.5t-87 33.5t-37 99.5h75z" />
    <glyph glyph-name="dotaccent" unicode="&#x2d9;" horiz-adv-x="300" 
d="M206 814v-114h-112v114h112z" />
    <glyph glyph-name="ring" unicode="&#x2da;" horiz-adv-x="300" 
d="M150 884q39 0 66 -26.5t27 -65.5q0 -19 -7.5 -36t-20 -29.5t-29.5 -19.5t-36 -7t-36 7t-29.5 19.5t-19.5 29.5t-7 36t7 36t19.5 29.5t29.5 19.5t36 7zM149 827q-14 0 -25 -10.5t-11 -25.5q0 -16 11 -26.5t25 -10.5q15 0 26 11t11 26q0 14 -11 25t-26 11z" />
    <glyph glyph-name="ogonek" unicode="&#x2db;" horiz-adv-x="300" 
d="M332 -120q-14 -6 -31.5 -13t-44.5 -7q-42 0 -65 19.5t-23 49.5q0 25 13.5 43.5t33.5 36.5h64q-20 -20 -33.5 -36.5t-13.5 -31.5q0 -28 32 -28q15 0 27.5 3.5t22.5 7.5z" />
    <glyph glyph-name="tilde" unicode="&#x2dc;" horiz-adv-x="300" 
d="M217 794q35 0 48 40l71 -51q-20 -42 -47 -61t-57 -19q-13 0 -30.5 4t-34.5 11l-32 13q-11 5 -23.5 9t-23.5 4q-18 0 -31 -12.5t-23 -31.5l-69 46q24 41 50.5 63t61.5 22q19 0 35 -4.5t31 -9.5l27 -10q12 -5 24 -9t23 -4z" />
    <glyph glyph-name="hungarumlaut" unicode="&#x2dd;" horiz-adv-x="300" 
d="M192 836l-106 -135h-65l52 135h119zM343 836l-106 -135h-65l52 135h119z" />
    <glyph glyph-name="Delta" unicode="&#x394;" horiz-adv-x="369" 
d="M81 814h210l78 -814h-369zM154 110h62l-31 494z" />
    <glyph glyph-name="Delta" unicode="&#x2206;" horiz-adv-x="369" 
d="M81 814h210l78 -814h-369zM154 110h62l-31 494z" />
    <glyph glyph-name="pi" unicode="&#x3c0;" horiz-adv-x="351" 
d="M326 0h-130v555h-41v-555h-130v648h301v-648z" />
    <glyph glyph-name="uni0401" unicode="&#x401;" horiz-adv-x="294" 
d="M279 110v-110h-249v814h249v-110h-107v-235h97v-110h-97v-249h107zM3 980h113v-114h-113v114zM194 980h115v-114h-115v114z" />
    <glyph glyph-name="uni0410" unicode="&#x410;" horiz-adv-x="374" 
d="M0 0l81 814h215l78 -814h-136l-16 205h-70l-15 -205h-137zM187 674l-27 -359h54z" />
    <glyph glyph-name="uni0411" unicode="&#x411;" horiz-adv-x="381" 
d="M361 390v-260q0 -69 -29 -99.5t-92 -30.5h-210v814h325v-110h-183v-192h45q85 0 114.5 -25.5t29.5 -96.5zM218 130v251q0 11 -7 18t-16 7h-23v-302h24q9 0 15.5 7t6.5 19z" />
    <glyph glyph-name="uni0412" unicode="&#x412;" horiz-adv-x="381" 
d="M361 295v-165q0 -69 -29 -99.5t-92 -30.5h-210v814h210q63 0 92 -30.5t29 -99.5v-134q0 -61 -18.5 -90.5t-60.5 -37.5q41 -7 60 -37t19 -90zM218 130v213q0 11 -7 18t-16 7h-23v-264h24q9 0 15.5 7t6.5 19zM218 499v185q0 12 -6.5 19t-15.5 7h-24v-236h23q9 0 16 7t7 18z
" />
    <glyph glyph-name="uni0413" unicode="&#x413;" horiz-adv-x="289" 
d="M172 704v-704h-142v814h249v-110h-107z" />
    <glyph glyph-name="uni0414" unicode="&#x414;" horiz-adv-x="498" 
d="M345 -80v80h-193v-80h-142v190h40q11 0 20.5 9t9.5 26v669h336v-704h72v-190h-143zM223 228q0 -84 -42 -118h93v594h-51v-476z" />
    <glyph glyph-name="uni0415" unicode="&#x415;" horiz-adv-x="294" 
d="M279 110v-110h-249v814h249v-110h-107v-235h97v-110h-97v-249h107z" />
    <glyph glyph-name="uni0416" unicode="&#x416;" horiz-adv-x="576" 
d="M90 408l-84 406h139l72 -362v362h142v-362l72 362h139l-84 -406l85 -408h-146l-66 371v-371h-142v371l-66 -371h-146z" />
    <glyph glyph-name="uni0417" unicode="&#x417;" horiz-adv-x="350" 
d="M153 695v-145h-133v145q0 69 29 99.5t92 30.5h68q63 0 92 -30.5t29 -99.5v-145q0 -61 -18.5 -90.5t-60.5 -37.5q41 -7 60 -37t19 -90v-174q0 -69 -29 -99.5t-92 -30.5h-68q-63 0 -92 30.5t-29 99.5v173h133v-173q0 -12 6.5 -19t15.5 -7t15.5 7t6.5 19v222q0 11 -7 18
t-16 7h-71v106h73q8 0 14.5 7t6.5 18v196q0 12 -6.5 19t-15.5 7t-15.5 -7t-6.5 -19z" />
    <glyph glyph-name="uni0418" unicode="&#x418;" horiz-adv-x="426" 
d="M268 435l-85 -435h-153v814h132v-437l87 437h147v-814h-128v435z" />
    <glyph glyph-name="uni0419" unicode="&#x419;" horiz-adv-x="426" 
d="M268 435l-85 -435h-153v814h132v-437l87 437h147v-814h-128v435zM83 971h75q3 -30 13.5 -45.5t35.5 -15.5t36 16t15 45h74q-4 -65 -37 -99t-88 -34t-87.5 34t-36.5 99z" />
    <glyph glyph-name="uni041A" unicode="&#x41a;" horiz-adv-x="409" 
d="M373 814l-74 -393l105 -421h-146l-86 384v-384h-142v814h142v-349l62 349h139z" />
    <glyph glyph-name="uni041B" unicode="&#x41b;" horiz-adv-x="411" 
d="M50 131v683h331v-814h-143v704h-46v-570q0 -140 -112 -140q-42 0 -70 6v95q8 0 16 2t16 11t8 23z" />
    <glyph glyph-name="uni041C" unicode="&#x41c;" horiz-adv-x="519" 
d="M358 478l-67 -478h-62l-68 478v-478h-131v814h164l65 -395l66 395h164v-814h-131v478z" />
    <glyph glyph-name="uni041D" unicode="&#x41d;" horiz-adv-x="391" 
d="M218 0v359h-46v-359h-142v814h142v-345h46v345h143v-814h-143z" />
    <glyph glyph-name="uni041E" unicode="&#x41e;" horiz-adv-x="381" 
d="M356 695v-574q0 -72 -26 -101t-87 -29h-98q-62 0 -91 30.5t-29 99.5v574q0 72 26 101t86 29h98q63 0 92 -30.5t29 -99.5zM213 121v574q0 12 -6.5 19t-15.5 7t-16.5 -7t-7.5 -19v-574q0 -11 7 -18t16 -7t16 7t7 18z" />
    <glyph glyph-name="uni041F" unicode="&#x41f;" horiz-adv-x="391" 
d="M218 0v704h-46v-704h-142v814h331v-814h-143z" />
    <glyph glyph-name="uni0420" unicode="&#x420;" horiz-adv-x="381" 
d="M361 424q0 -71 -29.5 -96.5t-114.5 -25.5h-45v-302h-142v814h210q63 0 92 -30.5t29 -99.5v-260zM218 433v251q0 12 -6.5 19t-15.5 7h-24v-302h23q9 0 16 7t7 18z" />
    <glyph glyph-name="uni0421" unicode="&#x421;" horiz-adv-x="370" 
d="M213 121v174h137v-174q0 -72 -26 -101t-86 -29h-93q-62 0 -91 30.5t-29 99.5v574q0 72 26 101t86 29h92q63 0 92 -30t29 -100v-145h-137v145q0 12 -6.5 19t-15.5 7t-16.5 -7t-7.5 -19v-574q0 -11 7 -18t16 -7t16 7t7 18z" />
    <glyph glyph-name="uni0422" unicode="&#x422;" horiz-adv-x="319" 
d="M88 0v704h-78v110h299v-110h-78v-704h-143z" />
    <glyph glyph-name="uni0423" unicode="&#x423;" horiz-adv-x="367" 
d="M80 0l61 322h-48l-93 492h135l37 -325l61 325h134l-151 -814h-136z" />
    <glyph glyph-name="uni0424" unicode="&#x424;" horiz-adv-x="560" 
d="M20 241v310q0 69 29 99.5t92 30.5h68v133h142v-133h68q63 0 92 -30.5t29 -99.5v-310q0 -71 -29.5 -96.5t-114.5 -25.5h-45v-119h-142v119h-45q-85 0 -114.5 25.5t-29.5 96.5zM397 250v301q0 12 -6.5 19t-15.5 7h-24v-352h23q9 0 16 7t7 18zM163 551v-301q0 -11 7 -18
t16 -7h23v352h-24q-9 0 -15.5 -7t-6.5 -19z" />
    <glyph glyph-name="uni0425" unicode="&#x425;" horiz-adv-x="392" 
d="M376 814l-59 -393l70 -421h-146l-45 326l-45 -326h-146l70 421l-60 393h140l41 -299l41 299h139z" />
    <glyph glyph-name="uni0426" unicode="&#x426;" horiz-adv-x="441" 
d="M217 110v704h142v-704h72v-190h-143v80h-258v814h141v-704h46z" />
    <glyph glyph-name="uni0427" unicode="&#x427;" horiz-adv-x="382" 
d="M352 814v-814h-143v330q-32 -32 -92 -32q-46 0 -71.5 26t-25.5 96v394h143v-391q0 -12 6.5 -19t15.5 -7q8 0 16 6t8 16v395h143z" />
    <glyph glyph-name="uni0428" unicode="&#x428;" horiz-adv-x="580" 
d="M407 110v704h143v-814h-520v814h142v-704h48v704h141v-704h46z" />
    <glyph glyph-name="uni0429" unicode="&#x429;" horiz-adv-x="631" 
d="M407 110v704h142v-704h72v-190h-143v80h-448v814h142v-704h48v704h141v-704h46z" />
    <glyph glyph-name="uni042A" unicode="&#x42a;" horiz-adv-x="468" 
d="M448 390v-260q0 -69 -29 -99.5t-92 -30.5h-210v704h-107v110h249v-302h45q85 0 114.5 -25.5t29.5 -96.5zM305 130v251q0 11 -7 18t-16 7h-23v-302h24q9 0 15.5 7t6.5 19z" />
    <glyph glyph-name="uni042B" unicode="&#x42b;" horiz-adv-x="578" 
d="M406 0v814h142v-814h-142zM218 130v251q0 11 -7 18t-16 7h-23v-302h24q9 0 15.5 7t6.5 19zM361 390v-260q0 -69 -29 -99.5t-92 -30.5h-210v814h142v-302h45q85 0 114.5 -25.5t29.5 -96.5z" />
    <glyph glyph-name="uni042C" unicode="&#x42c;" horiz-adv-x="381" 
d="M218 130v251q0 11 -7 18t-16 7h-23v-302h24q9 0 15.5 7t6.5 19zM361 390v-260q0 -69 -29 -99.5t-92 -30.5h-210v814h142v-302h45q85 0 114.5 -25.5t29.5 -96.5z" />
    <glyph glyph-name="uni042D" unicode="&#x42d;" horiz-adv-x="370" 
d="M208 121v247h-97v110h97v217q0 12 -7.5 19t-16.5 7t-15.5 -7t-6.5 -19v-145h-137v145q0 70 29 100t92 30h92q60 0 86 -29t26 -101v-574q0 -69 -29 -99.5t-91 -30.5h-93q-60 0 -86 29t-26 101v174h137v-174q0 -11 7 -18t16 -7t16 7t7 18z" />
    <glyph glyph-name="uni042E" unicode="&#x42e;" horiz-adv-x="578" 
d="M30 0v814h142v-345h50v226q0 72 26 101t86 29h98q63 0 92 -30.5t29 -99.5v-574q0 -72 -26 -101t-87 -29h-98q-62 0 -91 30.5t-29 99.5v238h-50v-359h-142zM410 121v574q0 12 -6.5 19t-15.5 7t-16.5 -7t-7.5 -19v-574q0 -11 7 -18t16 -7t16 7t7 18z" />
    <glyph glyph-name="uni042F" unicode="&#x42f;" horiz-adv-x="386" 
d="M25 0v249q0 60 19 90t60 37q-42 8 -60.5 37.5t-18.5 90.5v180q0 69 29 99.5t92 30.5h210v-814h-142v322h-23q-9 0 -16 -7t-7 -18v-297h-143zM168 684v-231q0 -11 7 -18t16 -7h23v282h-24q-9 0 -15.5 -7t-6.5 -19z" />
    <glyph glyph-name="uni0430" unicode="&#x430;" horiz-adv-x="350" 
d="M325 0h-120l-10 21q-30 -30 -78 -30q-46 0 -71.5 26t-25.5 96v152q0 20 3 36t11.5 28t15 20.5t23 15.5t24 11t31 8t31 5.5t34.5 5.5v140q0 12 -6 18.5t-15 6.5q-20 0 -20 -25v-102h-126v91q0 70 26.5 99.5t88.5 29.5h76q60 0 84 -28.5t24 -100.5v-524zM152 277v-161
q0 -26 20 -26q21 0 21 26v187q-41 -2 -41 -26z" />
    <glyph glyph-name="uni0431" unicode="&#x431;" horiz-adv-x="354" 
d="M157 529v-413q0 -26 21 -26q20 0 20 26v413q0 12 -6 18.5t-15 6.5q-20 0 -20 -25zM209 -3h-72q-60 0 -86 29t-26 101v425q0 37 0.5 57t4.5 52.5t11.5 51t22.5 41.5t36.5 35t54.5 20.5t76 8.5q52 0 81 -9v-95q-29 10 -69 10q-55 0 -70.5 -28.5t-15.5 -92.5q23 50 73 50
q52 0 75.5 -29.5t23.5 -99.5v-397q0 -70 -29 -100t-91 -30z" />
    <glyph glyph-name="uni0432" unicode="&#x432;" horiz-adv-x="351" 
d="M326 213v-96q0 -68 -28 -92.5t-93 -24.5h-180v648h180q63 0 92 -30.5t29 -99.5v-73q0 -58 -17 -77.5t-62 -27.5q41 -7 60 -37t19 -90zM196 119v149q0 11 -7 18t-16 7h-18v-200h19q9 0 15.5 7t6.5 19zM196 411v118q0 12 -6.5 19t-15.5 7h-19v-169h18q9 0 16 7t7 18z" />
    <glyph glyph-name="uni0433" unicode="&#x433;" horiz-adv-x="246" 
d="M155 555v-555h-130v648h216v-93h-86z" />
    <glyph glyph-name="uni0434" unicode="&#x434;" horiz-adv-x="441" 
d="M306 -70v70h-171v-70h-130v163h37q28 0 28 26v529h301v-555h65v-163h-130zM201 191q0 -73 -33 -98h73v462h-40v-364z" />
    <glyph glyph-name="uni0435" unicode="&#x435;" horiz-adv-x="348" 
d="M196 116v125h127v-114q0 -73 -24 -101.5t-83 -28.5h-71q-62 0 -91 30t-29 100v397q0 71 26 100t86 29h65q63 0 92 -30t29 -99v-226h-168v-182q0 -26 20 -26q21 0 21 26zM155 535v-154h41v154q0 25 -20 25q-9 0 -15 -6.5t-6 -18.5z" />
    <glyph glyph-name="uni0436" unicode="&#x436;" horiz-adv-x="495" 
d="M313 648v-277l54 277h127l-63 -306l64 -342h-133l-49 308v-308h-131v308l-49 -308h-133l64 342l-63 306h127l54 -277v277h131z" />
    <glyph glyph-name="uni0437" unicode="&#x437;" horiz-adv-x="343" 
d="M318 441q0 -58 -17 -77.5t-62 -27.5q41 -7 60 -37t19 -90v-82q0 -70 -29 -100t-91 -30h-71q-59 0 -83 28.5t-24 101.5v94h127v-105q0 -26 21 -26q20 0 20 26v148q0 11 -7 18t-16 7h-69v93h69q9 0 16 7t7 18v128q0 12 -6 18.5t-15 6.5q-20 0 -20 -25v-86h-127v75
q0 70 27 99.5t89 29.5h70q60 0 86 -29t26 -100v-83z" />
    <glyph glyph-name="uni0438" unicode="&#x438;" horiz-adv-x="357" 
d="M222 338l-67 -338h-130v648h113v-340l69 340h125v-648h-110v338z" />
    <glyph glyph-name="uni0439" unicode="&#x439;" horiz-adv-x="357" 
d="M222 338l-67 -338h-130v648h113v-340l69 340h125v-648h-110v338zM54 814h75q3 -30 13.5 -45.5t35.5 -15.5t36 16t15 45h74q-4 -65 -37 -99t-88 -34t-87.5 34t-36.5 99z" />
    <glyph glyph-name="uni043A" unicode="&#x43a;" horiz-adv-x="336" 
d="M25 0v648h131v-277l48 277h127l-57 -306l69 -342h-133l-54 308v-308h-131z" />
    <glyph glyph-name="uni043B" unicode="&#x43b;" horiz-adv-x="374" 
d="M5 1v90q6 -1 15 -1q28 0 28 26v532h301v-648h-130v555h-40v-437q0 -67 -27 -93.5t-104 -26.5q-16 0 -43 3z" />
    <glyph glyph-name="uni043C" unicode="&#x43c;" horiz-adv-x="469" 
d="M323 374l-54 -374h-69l-54 374v-374h-121v648h157l52 -309l53 309h157v-648h-121v374z" />
    <glyph glyph-name="uni043D" unicode="&#x43d;" horiz-adv-x="351" 
d="M326 648v-648h-130v285h-41v-285h-130v648h130v-270h41v270h130z" />
    <glyph glyph-name="uni043E" unicode="&#x43e;" horiz-adv-x="354" 
d="M329 524v-397q0 -72 -26 -101t-86 -29h-72q-62 0 -91 30t-29 100v397q0 71 26 100t86 29h71q63 0 92 -30t29 -99zM197 116v419q0 25 -20 25q-9 0 -15 -6.5t-6 -18.5v-419q0 -26 20 -26q21 0 21 26z" />
    <glyph glyph-name="uni043F" unicode="&#x43f;" horiz-adv-x="351" 
d="M326 648v-648h-130v555h-41v-555h-130v648h301z" />
    <glyph glyph-name="uni0440" unicode="&#x440;" horiz-adv-x="354" 
d="M329 531v-418q0 -70 -25.5 -96t-71.5 -26q-44 0 -76 32v-173h-131v798h120l11 -27q32 32 76 32q46 0 71.5 -26t25.5 -96zM156 529v-413q0 -26 21 -26q20 0 20 26v413q0 25 -20 25q-21 0 -21 -25z" />
    <glyph glyph-name="uni0441" unicode="&#x441;" horiz-adv-x="344" 
d="M197 116v125h127v-114q0 -73 -24 -101.5t-83 -28.5h-72q-62 0 -91 30t-29 100v397q0 71 26 100t86 29h71q62 0 89 -29.5t27 -99.5v-95h-127v106q0 25 -20 25q-9 0 -15 -6.5t-6 -18.5v-419q0 -26 20 -26q21 0 21 26z" />
    <glyph glyph-name="uni0442" unicode="&#x442;" horiz-adv-x="294" 
d="M212 555v-555h-130v555h-72v93h274v-93h-72z" />
    <glyph glyph-name="uni0443" unicode="&#x443;" horiz-adv-x="319" 
d="M76 0l-76 648h127l33 -487l33 487h126l-90 -798h-110l15 150h-58z" />
    <glyph glyph-name="uni0444" unicode="&#x444;" horiz-adv-x="527" 
d="M25 113v418q0 70 25.5 96t71.5 26q44 0 76 -32v193h131v-193q32 32 76 32q46 0 71.5 -26t25.5 -96v-418q0 -70 -25.5 -96t-71.5 -26q-44 0 -76 32v-173h-131v173q-32 -32 -76 -32q-46 0 -71.5 26t-25.5 96zM329 529v-413q0 -26 21 -26q20 0 20 26v413q0 25 -20 25
q-21 0 -21 -25zM198 116v413q0 25 -21 25q-20 0 -20 -25v-413q0 -26 20 -26q21 0 21 26z" />
    <glyph glyph-name="uni0445" unicode="&#x445;" horiz-adv-x="341" 
d="M208 0l-37 260l-38 -260h-133l64 342l-46 306h127l26 -216l25 216h127l-46 -306l64 -342h-133z" />
    <glyph glyph-name="uni0446" unicode="&#x446;" horiz-adv-x="396" 
d="M261 -70v70h-236v648h130v-555h41v555h130v-555h65v-163h-130z" />
    <glyph glyph-name="uni0447" unicode="&#x447;" horiz-adv-x="344" 
d="M187 362v286h132v-648h-132v269q-32 -32 -76 -32q-46 0 -71 26t-25 96v289h131v-286q0 -26 20 -26q21 0 21 26z" />
    <glyph glyph-name="uni0448" unicode="&#x448;" horiz-adv-x="522" 
d="M497 648v-648h-472v648h130v-555h41v555h130v-555h41v555h130z" />
    <glyph glyph-name="uni0449" unicode="&#x449;" horiz-adv-x="567" 
d="M432 -70v70h-407v648h130v-555h41v555h130v-555h41v555h130v-555h65v-163h-130z" />
    <glyph glyph-name="uni044A" unicode="&#x44a;" horiz-adv-x="410" 
d="M91 0v555h-86v93h217v-262h29q85 0 114.5 -25.5t29.5 -96.5v-134q0 -69 -29 -99.5t-92 -30.5h-183zM263 119v149q0 11 -7 18t-16 7h-18v-200h19q9 0 15.5 7t6.5 19z" />
    <glyph glyph-name="uni044B" unicode="&#x44b;" horiz-adv-x="530" 
d="M197 119v149q0 11 -7 18t-16 7h-18v-200h19q9 0 15.5 7t6.5 19zM329 264v-134q0 -69 -29 -99.5t-92 -30.5h-183v648h131v-262h29q85 0 114.5 -25.5t29.5 -96.5zM374 0v648h131v-648h-131z" />
    <glyph glyph-name="uni044C" unicode="&#x44c;" horiz-adv-x="344" 
d="M197 119v149q0 11 -7 18t-16 7h-18v-200h19q9 0 15.5 7t6.5 19zM329 264v-134q0 -69 -29 -99.5t-92 -30.5h-183v648h131v-262h29q85 0 114.5 -25.5t29.5 -96.5z" />
    <glyph glyph-name="uni044D" unicode="&#x44d;" horiz-adv-x="344" 
d="M89 289v93h99v153q0 12 -6 18.5t-15 6.5q-20 0 -20 -25v-106h-127v95q0 70 27 99.5t89 29.5h71q60 0 86 -29t26 -100v-397q0 -70 -29 -100t-91 -30h-72q-59 0 -83 28.5t-24 101.5v114h127v-125q0 -26 21 -26q20 0 20 26v173h-99z" />
    <glyph glyph-name="uni044E" unicode="&#x44e;" horiz-adv-x="530" 
d="M333 535v-419q0 -26 21 -26q20 0 20 26v419q0 12 -6 18.5t-15 6.5q-20 0 -20 -25zM201 378v146q0 69 29 99t92 30h71q60 0 86 -29t26 -100v-397q0 -70 -29 -100t-91 -30h-72q-60 0 -86 29t-26 101v158h-45v-285h-131v648h131v-270h45z" />
    <glyph glyph-name="uni044F" unicode="&#x44f;" horiz-adv-x="346" 
d="M20 0v173q0 60 19 90t60 37q-45 8 -62 27.5t-17 77.5v113q0 69 29 99.5t92 30.5h180v-648h-130v253h-18q-9 0 -16 -7t-7 -18v-228h-130zM150 529v-158q0 -11 7 -18t16 -7h18v209h-19q-9 0 -15.5 -7t-6.5 -19z" />
    <glyph glyph-name="uni0451" unicode="&#x451;" horiz-adv-x="348" 
d="M196 116v125h127v-114q0 -73 -24 -101.5t-83 -28.5h-71q-62 0 -91 30t-29 100v397q0 71 26 100t86 29h65q63 0 92 -30t29 -99v-226h-168v-182q0 -26 20 -26q21 0 21 26zM155 535v-154h41v154q0 25 -20 25q-9 0 -15 -6.5t-6 -18.5zM23 814h113v-114h-113v114zM214 814h115
v-114h-115v114z" />
    <glyph glyph-name="uni1E02" unicode="&#x1e02;" horiz-adv-x="381" 
d="M361 130q0 -71 -29.5 -100.5t-91.5 -29.5h-210v814h210q62 0 91.5 -29.5t29.5 -100.5v-134q0 -62 -18.5 -91t-60.5 -37q42 -7 60.5 -36.5t18.5 -90.5v-165zM218 343q0 12 -7.5 18.5t-15.5 6.5h-23v-264h24q8 0 15 6.5t7 19.5v213zM218 684q0 13 -7 19.5t-15 6.5h-24v-236
h23q8 0 15.5 6.5t7.5 18.5v185zM235 980v-114h-112v114h112z" />
    <glyph glyph-name="uni1E03" unicode="&#x1e03;" horiz-adv-x="354" 
d="M329 117q0 -38 -7.5 -62t-20.5 -37.5t-30.5 -18.5t-38.5 -5q-17 0 -38.5 8t-37.5 24l-11 -26h-120v814h131v-189q16 16 37.5 24t38.5 8q21 0 38.5 -5t30.5 -18.5t20.5 -37.5t7.5 -61v-418zM156 119q0 -13 6.5 -19t14.5 -6t14 6t6 19v413q0 13 -6 19.5t-14 6.5t-14.5 -6.5
t-6.5 -19.5v-413zM313 814v-114h-112v114h112z" />
    <glyph glyph-name="uni1E0A" unicode="&#x1e0a;" horiz-adv-x="386" 
d="M361 130q0 -73 -26.5 -101.5t-86.5 -28.5h-218v814h210q62 0 91.5 -29.5t29.5 -100.5v-554zM218 684q0 13 -7 19.5t-15 6.5h-24v-605h23q8 0 15.5 6.5t7.5 18.5v554zM233 980v-114h-112v114h112z" />
    <glyph glyph-name="uni1E0B" unicode="&#x1e0b;" horiz-adv-x="354" 
d="M25 535q0 37 7.5 61t20 37.5t30 18.5t38.5 5q17 0 38.5 -8t37.5 -24v189h132v-814h-121l-11 26q-16 -16 -37.5 -24t-38.5 -8q-21 0 -38.5 5t-30 18.5t-20 37.5t-7.5 62v418zM197 532q0 13 -6.5 19.5t-14.5 6.5t-14 -6.5t-6 -19.5v-413q0 -13 6 -19t14 -6t14.5 6t6.5 19
v413zM154 814v-114h-112v114h112z" />
    <glyph glyph-name="uni1E1E" unicode="&#x1e1e;" horiz-adv-x="289" 
d="M172 0h-142v814h249v-110h-107v-235h97v-110h-97v-359zM203 980v-114h-112v114h112z" />
    <glyph glyph-name="uni1E1F" unicode="&#x1e1f;" horiz-adv-x="222" 
d="M5 648h33v48q0 37 6 60t18.5 36t31 17.5t43.5 4.5h80v-90h-27q-8 0 -14 -6.5t-6 -19.5v-50h45v-90h-45v-558h-132v558h-33v90zM188 985v-114h-112v114h112z" />
    <glyph glyph-name="uni1E40" unicode="&#x1e40;" horiz-adv-x="519" 
d="M291 0h-62l-68 478v-478h-131v814h164l65 -395l66 395h164v-814h-131v478zM315 980v-114h-112v114h112z" />
    <glyph glyph-name="uni1E41" unicode="&#x1e41;" horiz-adv-x="527" 
d="M156 0h-131v648h118l11 -21q16 16 38.5 23t39.5 7q27 0 48 -9t34 -34q19 25 46.5 34t44.5 9q21 0 38.5 -5t30.5 -18.5t20.5 -37.5t7.5 -61v-535h-132v532q0 13 -6 19.5t-14 6.5q-19 0 -21 -23v-535h-132v532q0 13 -6 19.5t-14 6.5t-14.5 -6.5t-6.5 -19.5v-532zM319 814
v-114h-112v114h112z" />
    <glyph glyph-name="uni1E56" unicode="&#x1e56;" horiz-adv-x="381" 
d="M249 980v-114h-112v114h112zM361 424q0 -35 -6.5 -58.5t-22.5 -37.5t-44 -20t-71 -6h-45v-302h-142v814h210q62 0 91.5 -29.5t29.5 -100.5v-260zM218 684q0 13 -7 19.5t-15 6.5h-24v-302h23q8 0 15.5 6.5t7.5 18.5v251z" />
    <glyph glyph-name="uni1E57" unicode="&#x1e57;" horiz-adv-x="354" 
d="M329 113q0 -38 -7.5 -61.5t-20.5 -37t-30.5 -18.5t-38.5 -5q-17 0 -38.5 8t-37.5 24v-173h-131v798h120l11 -27q16 16 37.5 24t38.5 8q21 0 38.5 -5t30.5 -18.5t20.5 -37.5t7.5 -61v-418zM156 116q0 -13 6.5 -19.5t14.5 -6.5t14 6.5t6 19.5v413q0 13 -6 19t-14 6
t-14.5 -6t-6.5 -19v-413zM233 814v-114h-112v114h112z" />
    <glyph glyph-name="uni1E60" unicode="&#x1e60;" horiz-adv-x="364" 
d="M206 262q0 24 -14 44.5t-34.5 40.5t-44.5 40.5t-44.5 44t-34.5 50.5t-14 61v153q0 72 26.5 100.5t86.5 28.5h90q63 0 89.5 -29.5t26.5 -99.5v-147h-133v148q0 12 -6.5 18.5t-15.5 6.5q-10 0 -16.5 -6.5t-6.5 -18.5v-130q0 -23 13.5 -42t34 -37t44 -37t44 -42.5t34 -52
t13.5 -66.5v-169q0 -72 -26.5 -101t-86.5 -29h-91q-62 0 -88.5 30t-26.5 100v170h136v-171q0 -25 22 -25q10 0 16.5 6.5t6.5 18.5v142zM238 980v-114h-112v114h112z" />
    <glyph glyph-name="uni1E61" unicode="&#x1e61;" horiz-adv-x="344" 
d="M192 206q0 24 -12.5 41t-32 31.5t-41.5 28t-41.5 31.5t-32 41.5t-12.5 57.5v87q0 72 26.5 100.5t86.5 28.5h70q63 0 89.5 -29.5t26.5 -99.5v-91h-127v102q0 12 -6 18.5t-14 6.5t-14.5 -6.5t-6.5 -18.5v-74q0 -23 13 -39t32 -30t41.5 -28t41.5 -33t32 -45t13 -64v-98
q0 -72 -26.5 -101t-86.5 -29h-71q-62 0 -88.5 30t-26.5 100v111h126v-122q0 -12 6 -18.5t14 -6.5t14.5 6.5t6.5 18.5v93zM228 814v-114h-112v114h112z" />
    <glyph glyph-name="uni1E6A" unicode="&#x1e6a;" horiz-adv-x="319" 
d="M88 704h-78v110h299v-110h-78v-704h-143v704zM215 980v-114h-112v114h112z" />
    <glyph glyph-name="uni1E6B" unicode="&#x1e6b;" horiz-adv-x="222" 
d="M5 648h33v87h132v-87h45v-90h-45v-442q0 -13 6 -19.5t14 -6.5h27v-90h-102q-25 0 -40 7.5t-23.5 22.5t-11 37t-2.5 51v440h-33v90zM160 914v-114h-112v114h112z" />
    <glyph glyph-name="Wgrave" unicode="&#x1e80;" horiz-adv-x="574" 
d="M513 0h-183l-43 603l-43 -603h-183l-61 814h137l28 -589l38 589h168l38 -589l28 589h137zM136 984h157l77 -118h-89z" />
    <glyph glyph-name="wgrave" unicode="&#x1e81;" horiz-adv-x="512" 
d="M436 0h-154l-26 464l-26 -464h-154l-76 648h127l25 -425l26 425h157l25 -425l26 425h126zM104 818h157l77 -118h-89z" />
    <glyph glyph-name="Wacute" unicode="&#x1e82;" horiz-adv-x="574" 
d="M513 0h-183l-43 603l-43 -603h-183l-61 814h137l28 -589l38 589h168l38 -589l28 589h137zM464 984l-145 -118h-89l77 118h157z" />
    <glyph glyph-name="wacute" unicode="&#x1e83;" horiz-adv-x="512" 
d="M436 0h-154l-26 464l-26 -464h-154l-76 648h127l25 -425l26 425h157l25 -425l26 425h126zM437 818l-145 -118h-89l77 118h157z" />
    <glyph glyph-name="Wdieresis" unicode="&#x1e84;" horiz-adv-x="574" 
d="M513 0h-183l-43 603l-43 -603h-183l-61 814h137l28 -589l38 589h168l38 -589l28 589h137zM246 980v-114h-113v114h113zM439 980v-114h-115v114h115z" />
    <glyph glyph-name="wdieresis" unicode="&#x1e85;" horiz-adv-x="512" 
d="M436 0h-154l-26 464l-26 -464h-154l-76 648h127l25 -425l26 425h157l25 -425l26 425h126zM216 814v-114h-113v114h113zM409 814v-114h-115v114h115z" />
    <glyph glyph-name="Ygrave" unicode="&#x1ef2;" horiz-adv-x="357" 
d="M250 239v-239h-142v240l-108 574h135l44 -366l44 366h134zM24 984h157l77 -118h-89z" />
    <glyph glyph-name="ygrave" unicode="&#x1ef3;" horiz-adv-x="319" 
d="M0 648h127l33 -487l33 487h126l-90 -798h-110l15 150h-58zM-8 818h157l77 -118h-89z" />
    <glyph glyph-name="endash" unicode="&#x2013;" horiz-adv-x="386" 
d="M10 369h366v-90h-366v90z" />
    <glyph glyph-name="emdash" unicode="&#x2014;" horiz-adv-x="497" 
d="M10 369h477v-90h-477v90z" />
    <glyph glyph-name="quoteleft" unicode="&#x2018;" horiz-adv-x="161" 
d="M15 674l111 140l-35 -140h55v-121h-131v121z" />
    <glyph glyph-name="quoteright" unicode="&#x2019;" horiz-adv-x="161" 
d="M146 693l-111 -140l35 140h-55v121h131v-121z" />
    <glyph glyph-name="quotesinglbase" unicode="&#x201a;" horiz-adv-x="161" 
d="M146 0l-111 -140l35 140h-55v121h131v-121z" />
    <glyph glyph-name="quotedblleft" unicode="&#x201c;" horiz-adv-x="317" 
d="M171 674l111 140l-35 -140h55v-121h-131v121zM15 674l111 140l-35 -140h55v-121h-131v121z" />
    <glyph glyph-name="quotedblright" unicode="&#x201d;" horiz-adv-x="317" 
d="M146 693l-111 -140l35 140h-55v121h131v-121zM302 693l-111 -140l35 140h-55v121h131v-121z" />
    <glyph glyph-name="quotedblbase" unicode="&#x201e;" horiz-adv-x="317" 
d="M146 0l-111 -140l35 140h-55v121h131v-121zM302 0l-111 -140l35 140h-55v121h131v-121z" />
    <glyph glyph-name="dagger" unicode="&#x2020;" horiz-adv-x="420" 
d="M10 648h140v166h131v-166h129v-90h-129v-558h-131v558h-140v90z" />
    <glyph glyph-name="daggerdbl" unicode="&#x2021;" horiz-adv-x="420" 
d="M10 648h140v166h131v-166h129v-90h-129v-116h129v-90h-129v-352h-131v352h-140v90h140v116h-140v90z" />
    <glyph glyph-name="bullet" unicode="&#x2022;" horiz-adv-x="270" 
d="M245 442q0 -25 -9 -45.5t-24 -35.5t-35 -23.5t-42 -8.5q-23 0 -43 8.5t-35 23t-23.5 34.5t-8.5 43t8.5 43t23.5 35t35 24t43 9q24 0 44 -9.5t35 -24.5t23 -34.5t8 -38.5z" />
    <glyph glyph-name="ellipsis" unicode="&#x2026;" horiz-adv-x="483" 
d="M146 0h-131v121h131v-121zM307 0h-131v121h131v-121zM468 0h-131v121h131v-121z" />
    <glyph glyph-name="perthousand" unicode="&#x2030;" horiz-adv-x="990" 
d="M551 814l-322 -814h-94l323 814h93zM284 545q0 -73 -26 -101.5t-86 -28.5h-32q-62 0 -91 29.5t-29 100.5v145q0 72 26 100.5t86 28.5h31q63 0 92 -29.5t29 -99.5v-145zM172 701q0 12 -6 18.5t-14 6.5t-14.5 -6.5t-6.5 -18.5v-167q0 -13 6 -19.5t14 -6.5t14.5 6.5
t6.5 19.5v167zM666 125q0 -73 -26 -101.5t-86 -28.5h-32q-62 0 -91 29.5t-29 100.5v145q0 72 26 100.5t86 28.5h31q63 0 92 -29.5t29 -99.5v-145zM554 281q0 12 -6 18.5t-14 6.5t-14.5 -6.5t-6.5 -18.5v-167q0 -13 6 -19.5t14 -6.5t14.5 6.5t6.5 19.5v167zM970 125
q0 -73 -26 -101.5t-86 -28.5h-32q-62 0 -91 29.5t-29 100.5v145q0 72 26 100.5t86 28.5h31q63 0 92 -29.5t29 -99.5v-145zM858 281q0 12 -6 18.5t-14 6.5t-14.5 -6.5t-6.5 -18.5v-167q0 -13 6 -19.5t14 -6.5t14.5 6.5t6.5 19.5v167z" />
    <glyph glyph-name="guilsinglleft" unicode="&#x2039;" horiz-adv-x="242" 
d="M122 568h105l-107 -238l107 -252h-105l-107 252z" />
    <glyph glyph-name="guilsinglright" unicode="&#x203a;" horiz-adv-x="242" 
d="M227 330l-107 -252h-105l107 252l-107 238h105z" />
    <glyph glyph-name="fraction" unicode="&#x2044;" horiz-adv-x="415" 
d="M416 814l-322 -814h-94l323 814h93z" />
    <glyph glyph-name="Euro" unicode="&#x20ac;" horiz-adv-x="370" 
d="M0 497h25v198q0 73 26 101.5t86 28.5h92q63 0 92 -29.5t29 -100.5v-145h-137v145q0 13 -7 19.5t-15 6.5t-16 -6.5t-8 -19.5v-198h180v-50h-180v-52h180v-50h-180v-224q0 -12 7.5 -18.5t15.5 -6.5t15.5 6.5t7.5 18.5v174h137v-174q0 -73 -26 -101.5t-86 -28.5h-93
q-62 0 -91 30t-29 100v224h-25v50h25v52h-25v50z" />
    <glyph glyph-name="trademark" unicode="&#x2122;" horiz-adv-x="723" 
d="M88 724h-78v90h269v-90h-78v-364h-113v364zM525 360h-42l-68 298v-298h-101v454h134l65 -175l66 175h124v-454h-111v298z" />
    <glyph glyph-name="partialdiff" unicode="&#x2202;" horiz-adv-x="354" 
d="M145 -3q-62 0 -91 29.5t-29 100.5v397q0 72 24 100.5t75 28.5q18 0 38 -9t35 -41q0 27 -2 49.5t-10.5 38t-26 24.5t-47.5 9q-20 0 -36 -2t-33 -8v95q20 6 38.5 7.5t42.5 1.5q76 0 118 -23t61.5 -60.5t23 -85.5t3.5 -97v-425q0 -73 -26 -101.5t-86 -28.5h-72zM197 529
q0 12 -6 18.5t-14 6.5t-14.5 -6.5t-6.5 -18.5v-413q0 -13 6 -19.5t14 -6.5t14.5 6.5t6.5 19.5v413z" />
    <glyph glyph-name="product" unicode="&#x220f;" horiz-adv-x="391" 
d="M218 704h-46v-704h-142v814h331v-814h-143v704z" />
    <glyph glyph-name="summation" unicode="&#x2211;" horiz-adv-x="304" 
d="M15 814h274v-100h-141l112 -303l-112 -311h141v-100h-274v112l104 299l-104 291v112z" />
    <glyph glyph-name="minus" unicode="&#x2212;" horiz-adv-x="420" 
d="M10 369h400v-90h-400v90z" />
    <glyph glyph-name="integral" unicode="&#x222b;" horiz-adv-x="212" 
d="M172 -32q0 -37 -6 -60t-18.5 -36t-31 -17.5t-43.5 -4.5h-76v90h23q8 0 14 6.5t6 19.5v730q0 37 6 60t18.5 36t31 17.5t43.5 4.5h80v-90h-27q-8 0 -14 -6.5t-6 -19.5v-730z" />
    <glyph glyph-name="notequal" unicode="&#x2260;" horiz-adv-x="430" 
d="M199 474l49 176h113l-48 -176h102v-90h-127l-33 -120h160v-90h-185l-48 -174h-114l48 174h-101v90h126l33 120h-159v90h184z" />
    <glyph glyph-name="commaaccent" unicode="&#xf6c3;" horiz-adv-x="181" 
d="M156 -191l-111 -140l35 140h-55v121h131v-121z" />
    <glyph glyph-name="uniFB00" unicode="&#xfb00;" horiz-adv-x="444" 
d="M5 648h33v48q0 37 6 60t18.5 36t31 17.5t43.5 4.5h80v-90h-27q-8 0 -14 -6.5t-6 -19.5v-50h45v-90h-45v-558h-132v558h-33v90zM227 648h33v48q0 37 6 60t18.5 36t31 17.5t43.5 4.5h80v-90h-27q-8 0 -14 -6.5t-6 -19.5v-50h45v-90h-45v-558h-132v558h-33v90z" />
    <glyph glyph-name="uniFB01" unicode="&#xfb01;" horiz-adv-x="403" 
d="M5 648h33v48q0 37 6 60t18.5 36t31 17.5t43.5 4.5h80v-90h-27q-8 0 -14 -6.5t-6 -19.5v-50h45v-90h-45v-558h-132v558h-33v90zM247 648h131v-648h-131v648zM378 693h-131v121h131v-121z" />
    <glyph glyph-name="uniFB02" unicode="&#xfb02;" horiz-adv-x="403" 
d="M5 648h33v48q0 37 6 60t18.5 36t31 17.5t43.5 4.5h80v-90h-27q-8 0 -14 -6.5t-6 -19.5v-50h45v-90h-45v-558h-132v558h-33v90zM247 814h131v-814h-131v814z" />
    <glyph glyph-name="uniFB03" unicode="&#xfb03;" horiz-adv-x="625" 
d="M5 648h33v48q0 37 6 60t18.5 36t31 17.5t43.5 4.5h80v-90h-27q-8 0 -14 -6.5t-6 -19.5v-50h45v-90h-45v-558h-132v558h-33v90zM227 648h33v48q0 37 6 60t18.5 36t31 17.5t43.5 4.5h80v-90h-27q-8 0 -14 -6.5t-6 -19.5v-50h45v-90h-45v-558h-132v558h-33v90zM469 648h131
v-648h-131v648zM600 693h-131v121h131v-121z" />
    <glyph glyph-name="uniFB04" unicode="&#xfb04;" horiz-adv-x="625" 
d="M5 648h33v48q0 37 6 60t18.5 36t31 17.5t43.5 4.5h80v-90h-27q-8 0 -14 -6.5t-6 -19.5v-50h45v-90h-45v-558h-132v558h-33v90zM227 648h33v48q0 37 6 60t18.5 36t31 17.5t43.5 4.5h80v-90h-27q-8 0 -14 -6.5t-6 -19.5v-50h45v-90h-45v-558h-132v558h-33v90zM469 814h131
v-814h-131v814z" />
    <glyph glyph-name="afii10084" horiz-adv-x="294" 
d="M212 555v-555h-130v555h-72v93h274v-93h-72z" />
    <glyph glyph-name="_429" 
 />
    <glyph glyph-name="apple" horiz-adv-x="1814" 
d="M1769 530q-3 -12 -7.5 -23.5t-11 -21.5t-16.5 -16t-23 -6q-20 0 -37 14.5t-23 46.5q-21 -40 -35 -51t-30 -11q-19 0 -32.5 13.5t-22.5 33.5t-13 42t-4 39q0 22 14 50.5t34 54t43.5 43t42.5 17.5q21 0 32 -29l7 26q8 -4 15.5 -7t17.5 -3q14 0 23.5 7t18.5 13
q-2 -12 -6.5 -34t-9.5 -49t-11 -56t-10.5 -54.5t-7.5 -45.5t-3 -29q0 -17 8 -17q12 0 20.5 16.5t16.5 36.5h10zM1496 572l-7 -24.5t-14.5 -36t-23 -33t-32.5 -14.5q-20 0 -38.5 14.5t-25.5 46.5q-11 -20 -19.5 -32.5t-16 -19.5t-14.5 -9t-15 -2q-19 0 -32.5 13.5t-22.5 33.5
t-13 42t-4 39q0 22 14 50.5t34 54t43.5 43t42.5 17.5t30 -24q5 25 10 49t9 43t6.5 31t3.5 15q8 -4 16 -7t17 -3q14 0 23.5 7t19.5 13q-2 -12 -8 -42.5t-13.5 -70t-16 -83.5t-15.5 -83t-11.5 -68t-4.5 -38q0 -7 2 -12t7 -5q9 0 18.5 10.5t17 25.5t13.5 31.5t9 27.5h11z
M1494 485q-7 -44 -36 -65t-60 -26q-1 -26 -27 -47t-62 -21q-13 0 -27 3t-26 10t-19.5 19t-7.5 30q0 19 16 37t37 19v-4q-16 -3 -29.5 -15.5t-13.5 -29.5q0 -16 6 -26t16.5 -15.5t23 -7.5t26.5 -2q13 0 26.5 2t25 7.5t19.5 15.5t9 25q-2 -1 -7 -1q-23 0 -39 9t-16 25
q0 8 8 14t15 6q16 0 28.5 -12.5t16.5 -28.5q31 4 59 26t36 53h2zM1205 530q-3 -12 -7.5 -23.5t-11 -21.5t-16.5 -16t-23 -6q-20 0 -37 14.5t-23 46.5q-21 -40 -35 -51t-30 -11q-19 0 -32.5 13.5t-22.5 33.5t-13 42t-4 39q0 22 14 50.5t34 54t43.5 43t42.5 17.5q21 0 32 -29
l7 26q8 -4 15.5 -7t17.5 -3q14 0 23.5 7t18.5 13q-2 -12 -6.5 -34t-9.5 -49t-11 -56t-10.5 -54.5t-7.5 -45.5t-3 -29q0 -17 8 -17q12 0 20.5 16.5t16.5 36.5h10zM1719 138l40 -32l-143 -27l9 -51l-88 71q-31 -73 -82 -124q25 -9 53 -9q38 0 59 13.5t33 38.5h4
q-3 -15 -12.5 -27t-22 -20.5t-27.5 -12.5t-29 -4q-36 0 -67 12q-34 -34 -71.5 -54.5t-71.5 -20.5q-32 0 -53 27.5t-21 93.5q-1 -1 -7 -1q-18 0 -35.5 8.5t-31 25.5t-22 43t-8.5 61q0 19 14 46t36.5 51t51.5 41t59 17q20 0 35 -15.5t15 -51.5q0 -23 -12.5 -42.5t-31 -34
t-41 -23.5t-43.5 -11q-6 -34 -9 -58t-3 -25q0 -11 7.5 -16.5t18.5 -5.5q5 0 7 1v1q0 17 6 38t17.5 40t27 31.5t34.5 12.5q9 0 13 -8t4 -17q0 -16 -8.5 -34t-22 -33.5t-30.5 -26.5t-33 -13q0 -60 20.5 -85t51.5 -25q28 0 61 18.5t64 49.5q-35 17 -57.5 47t-22.5 75
q0 14 4.5 29.5t13 29t21 23t28.5 12.5v-4q-31 -9 -45.5 -36.5t-14.5 -57.5q0 -37 23 -65.5t58 -43.5q24 26 44.5 59t31.5 70l-114 35l50 20l-67 136l54 -16l-12 80l52 -59l31 45l31 -98l42 135l21 -35l79 46v-89h49l-104 -103l103 29l-17 -53l78 -8zM1189 439
q-3 -17 -14 -32t-27 -26.5t-36 -18.5t-41 -7h-11q-8 -8 -21 -12t-27 -4q-29 0 -57 13t-42 41l1 1q17 -20 40 -35t55 -15q12 0 23.5 3t19.5 10q-15 3 -37 10t-42.5 19t-34.5 30.5t-14 44.5q0 8 1.5 17.5t8.5 16.5l4 -4q-5 -17 -5 -27q0 -23 13.5 -40t33 -28.5t42 -17.5
t41.5 -7q3 7 3 17q0 23 -18.5 39t-43.5 16q-10 0 -20.5 -2.5t-19.5 -7.5l-4 1q8 8 19.5 11.5t22.5 3.5q13 0 25.5 -4.5t22.5 -12t16.5 -19t6.5 -24.5q0 -11 -3 -18h4q16 0 33 4t32 13t25.5 22.5t14.5 33.5zM1101 42q0 -20 -6.5 -40.5t-18.5 -37.5t-29.5 -28t-39.5 -11
q-17 0 -28.5 9t-11.5 26q0 11 8.5 19.5t19.5 8.5q7 0 9 -1v-4q-9 0 -19 -6t-10 -17q0 -13 9 -20t20 -7q19 0 35.5 11.5t28.5 28.5t18.5 36.5t6.5 36.5q0 13 -4 24t-10 21q-14 -31 -36 -55.5t-52 -24.5q-23 0 -31 16.5t-8 36.5q0 19 6 33t15 23.5t18.5 14.5t16.5 7
q3 18 5.5 39t5 40.5t3.5 35.5t1 24q0 2 -3 6t-9 4q-5 0 -12 -4.5t-14 -14t-12 -24.5t-5 -36q0 -10 -4.5 -38.5t-11 -65t-15 -76.5t-15.5 -74t-12 -58t-6 -28q-8 4 -15.5 7t-17.5 3q-14 0 -23.5 -7t-18.5 -13q2 12 8 44.5t14.5 75t17 90t16 89.5t12.5 73t5 40q0 22 -7.5 34.5
t-18.5 22t-24 19.5t-24 27.5t-18.5 46t-7.5 74.5q0 27 7 54.5t16 56t16 57t7 55.5q0 22 -9 22q-11 0 -29 -21t-32 -56q-2 -14 -7.5 -46t-12 -65.5t-12 -61l-6.5 -32.5q-8 4 -15.5 7.5t-17.5 3.5q-14 0 -22 -3t-17 -9q3 18 10 56.5t14 80t12.5 77.5t5.5 50q0 7 -2 12t-7 5
q-12 0 -20.5 -16.5t-16.5 -36.5h-10q4 12 8.5 23.5t12 21t18 15.5t25.5 6q28 0 41.5 -17t17.5 -40q6 8 12.5 18t15 19t18.5 15t23 6q16 0 27.5 -10t19.5 -26.5t12 -37t4 -41.5q0 -36 -8 -67t-17 -59t-17 -55t-8 -55q0 -27 6.5 -42t17 -23.5t23 -14t24 -13t21 -20.5t13.5 -36
q18 31 31 40t28 9q19 0 33 -14t23.5 -34.5t14 -42t4.5 -36.5q0 -17 -4 -37t-12 -40q8 -12 13.5 -26.5t5.5 -31.5zM635 530q-3 -12 -7.5 -23.5t-11 -21.5t-16.5 -16t-23 -6q-20 0 -37 14.5t-23 46.5q-20 -40 -34.5 -51t-30.5 -11q-19 0 -32.5 13.5t-22 33.5t-12.5 42t-4 39
q0 22 14 50.5t34 54t43.5 43t42.5 17.5q20 0 31 -29l7 26q8 -4 16 -7t17 -3q14 0 23.5 7t19.5 13q-3 -18 -11 -57t-16.5 -81.5t-15 -79.5t-6.5 -50q0 -17 9 -17q12 0 20.5 16.5t16.5 36.5h9zM786 317v3q-5 29 -20.5 39t-26.5 10q-9 0 -18.5 -4.5t-21 -10t-26 -10t-34.5 -4.5
q-18 0 -26 8t-8 17q0 18 16 25t28 7l58 -6q11 0 21.5 4.5t10.5 18.5q0 15 -11.5 22.5t-25.5 7.5q-10 0 -19.5 -4.5t-9.5 -13.5q0 -13 16 -13q12 0 21 6l2 -7q-5 -2 -10.5 -4t-11.5 -2q-10 0 -17.5 5t-7.5 14q0 12 13.5 18.5t24.5 6.5q17 0 30 -9t13 -26t-13.5 -23.5
t-24.5 -6.5l-59 7q-11 0 -24.5 -6t-13.5 -21q0 -10 9 -14t17 -4q12 0 25 5t25.5 11.5t24 11.5t20.5 5q26 0 43 -18t17 -46zM359 591q0 -32 -16.5 -61t-44.5 -49q16 -16 16 -43q0 -26 -16 -43t-39 -27q1 -1 1 -5q0 -20 -17 -32.5t-34 -12.5h-5l3 5q5 0 12.5 2.5t14 7t11.5 11
t5 15.5q0 5 -1 6q-12 -5 -24.5 -6.5t-24.5 -1.5q-9 0 -24 2t-28.5 7t-23.5 13t-10 21q0 9 5.5 14.5t14 9t17.5 5t15 1.5q11 0 24 -3.5t25.5 -10t23 -15.5t16.5 -19q19 8 32.5 22.5t13.5 35.5q0 22 -11 36q-16 -10 -33.5 -15.5t-37.5 -5.5q-29 0 -54 10.5t-43.5 31t-29 49.5
t-10.5 65q0 21 13 54q-17 12 -25 31t-8 42q0 22 7.5 45.5t21 42t32 30.5t41.5 12q3 0 7 -0.5t9 -1.5v-6q-3 1 -12 1q-21 0 -38.5 -11t-31 -28.5t-21 -39t-7.5 -42.5q0 -43 30 -64q16 36 42 76.5t55.5 74.5t59 56.5t52.5 22.5q13 0 21 -6.5t12 -17t5.5 -22.5t1.5 -22
q0 -28 -13 -55.5t-34.5 -50.5t-48 -41.5t-53.5 -28.5q0 -1 -0.5 -1.5t-0.5 -2.5q-10 -35 -19 -76.5t-9 -70.5q0 -16 6.5 -25.5t15 -14t15.5 -6t9 -1.5q34 0 63 22q-10 7 -21.5 9.5t-22.5 2.5q-9 0 -21 -2.5t-14 -4.5v4q5 5 16 8t17 3q29 0 52 -14q24 20 38.5 51t14.5 63
q0 9 -1.5 19.5t-5 18.5t-10.5 13.5t-18 5.5q-18 0 -32.5 -9t-24.5 -22.5t-15.5 -30.5t-5.5 -33q0 -9 4.5 -23t18.5 -14q10 0 17.5 7t12.5 17t7.5 21t2.5 20q0 3 -1 7t-2 9h8q2 -5 2 -9.5v-6.5q0 -11 -3.5 -23.5t-10 -23.5t-15 -18.5t-18.5 -7.5q-19 0 -24.5 16.5t-5.5 31.5
q0 16 6 33.5t16.5 32.5t25.5 24.5t34 9.5q27 0 42.5 -24t15.5 -56zM820 -25q0 -20 -9 -35t-21 -25h-9q14 11 23 24.5t9 31.5q0 14 -6 30.5t-31 22.5q2 -12 4 -27.5t2 -39.5q0 -26 -12.5 -45t-31.5 -31t-42.5 -17.5t-45.5 -5.5q-15 0 -30 4.5t-27.5 13.5t-20 21.5t-7.5 28.5
q0 17 7 27.5t16.5 16.5t19.5 8t16 2q13 0 16 -1q8 15 22 28.5t35 22.5v3q-2 8 -2.5 16t-0.5 14q-11 -22 -28 -37t-42 -15t-41 26t-16 64q0 18 7 40t15.5 44t15.5 41.5t7 33.5q0 17 -3 23t-8 6q-8 0 -15 -5t-13 -11.5t-9.5 -12.5t-4.5 -9q0 -25 -12.5 -41.5t-31.5 -25.5
q0 -93 -37 -136.5t-109 -43.5q-19 0 -37.5 4t-32.5 14t-23 25.5t-9 38.5q0 26 15 48t40 22q17 0 24.5 -12t7.5 -25q0 -25 -13.5 -46.5t-38.5 -21.5q-5 0 -10.5 2t-10.5 4q4 -15 17 -25.5t26 -10.5q21 0 36.5 15t27 38.5t19.5 52.5t14 57q-32 14 -45 40q-13 -5 -18 -5
q-71 0 -71 75q0 27 10.5 53.5t29 47.5t44 33.5t54.5 12.5q30 0 49 -5t32.5 -11t23.5 -11t22 -5q5 0 10 0.5t10 1.5v-5q-34 -8 -65.5 -30t-51.5 -50q-3 24 -20 38.5t-43 14.5q-19 0 -36 -8.5t-30 -22.5t-21 -32t-8 -37q0 -53 58 -53q11 0 18 4q-7 13 -7 35q0 28 14.5 44.5
t26.5 16.5q11 0 16.5 -7.5t5.5 -17.5q0 -21 -14.5 -41.5t-31.5 -31.5q6 -13 16.5 -21.5t23.5 -13.5q8 34 20.5 68t38.5 65q4 5 14 14.5t22 19t26 17t26 9.5v-7q-18 -9 -29.5 -24.5t-18 -34t-9 -39.5t-2.5 -40q0 -22 3 -47q17 8 28.5 23t11.5 35q0 14 -4 27t-11 20v2
q8 -5 12.5 -16t6.5 -22q6 12 21.5 26.5t40.5 14.5q15 0 26.5 -8t19 -21t11 -30.5t3.5 -35.5q0 -12 -7 -31.5t-15.5 -41t-15.5 -44t-7 -40.5q0 -21 12 -21q13 0 23.5 14t19.5 37t16 52.5t13 59.5t11.5 58t10.5 49q8 -4 16 -7t17 -3q14 0 23.5 7t19.5 13q-5 -26 -13 -60
t-15.5 -69.5t-12.5 -69t-3 -57.5l1 -17q20 -5 33 -21t13 -42zM517 -4q0 -38 -25.5 -63.5t-60.5 -31.5q-10 -18 -31.5 -26.5t-40.5 -8.5q-14 0 -31 3.5t-31.5 11t-24.5 19t-10 28.5q0 14 8.5 25t24.5 11h6.5t8.5 -2q-43 38 -84 55t-98 17q-23 0 -48 -2.5t-60 -7.5
q31 11 52.5 17t40.5 13q22 8 43 22.5t37 32.5t25.5 37.5t9.5 37.5q0 45 -29 67.5t-71 22.5q-14 0 -29.5 -1.5t-29 -7t-22.5 -15.5t-9 -27t17.5 -26t36.5 -9t35 11t31 24v-9q-10 -14 -28 -27t-38 -13q-25 0 -44.5 13t-19.5 36q0 19 9.5 31t23.5 18.5t30.5 9t31.5 2.5
q57 0 86.5 -28.5t29.5 -76.5q0 -21 -11.5 -41t-26.5 -36.5t-30 -29t-22 -17.5l18 -4q49 -10 85 -30.5t72 -66.5h-2v-2q-11 4 -21 4q-18 0 -25 -8.5t-7 -19.5q0 -15 10 -25.5t24 -17t29.5 -9.5t26.5 -3q17 0 33.5 7.5t25.5 18.5h-4q-8 0 -20.5 2.5t-24 8t-19.5 14.5t-8 22
q0 15 9.5 21.5t23.5 6.5q23 0 42.5 -15.5t19.5 -36.5q0 -2 -2 -10q13 3 27 9.5t25 17t18 24.5t7 33q0 11 -1 18.5t-5 19.5h4q2 -4 4.5 -15.5t2.5 -22.5zM1671 689q0 33 -5 44.5t-13 11.5q-9 0 -15 -7.5t-9.5 -18t-5.5 -21.5t-3 -18q-2 -11 -7 -37.5t-10.5 -57.5t-9.5 -59
t-4 -40q0 -3 1 -7t7 -4q14 0 27.5 21t24.5 69q2 23 8.5 57.5t13.5 66.5zM1375 699q-1 27 -6.5 36.5t-11.5 9.5q-9 0 -15 -7.5t-9.5 -18t-5.5 -21.5t-3 -18q-2 -11 -7 -37.5t-10.5 -57.5t-9.5 -59t-4 -40q0 -3 1 -7t7 -4q13 0 22 11t17 36.5t16 68.5t19 108zM1390 406
q-3 14 -12 23.5t-23 9.5q-6 0 -10.5 -2.5t-4.5 -10.5q0 -12 14.5 -16t31.5 -4h4zM1107 689q0 33 -5 44.5t-13 11.5q-9 0 -15 -7.5t-9.5 -18t-5.5 -21.5t-3 -18q-2 -11 -7 -37.5t-10.5 -57.5t-9.5 -59t-4 -40q0 -3 1 -7t7 -4q14 0 27.5 21t24.5 69q2 23 8.5 57.5t13.5 66.5z
M1291 272q0 22 -10 22q-12 0 -23 -14.5t-20 -37.5t-16 -51t-12 -55q19 3 34.5 19t25.5 37t15.5 43t5.5 37zM1320 123q0 5 -1.5 9.5t-7.5 4.5q-15 0 -28.5 -11.5t-24 -28.5t-16.5 -36.5t-6 -35.5v-2q12 0 26.5 10t27.5 25t21.5 32.5t8.5 32.5zM538 689q0 33 -5.5 44.5
t-12.5 11.5t-12.5 -8t-10 -18.5t-7 -21.5t-3.5 -17q-2 -11 -7 -37.5t-10.5 -57.5t-9.5 -59t-4 -40q0 -3 1 -7t7 -4q13 0 26.5 21t24.5 69q2 23 8.5 57.5t14.5 66.5zM1007 131q-11 -1 -20 -8t-15.5 -17.5t-10 -23t-3.5 -24.5q0 -9 5 -21.5t19 -12.5q7 0 11 12t6.5 29t4 35.5
t3.5 30.5zM326 868q0 10 -3 17.5t-14 7.5t-21 -12t-27 -48q0 -2 -7 -20t-16 -42.5t-19 -51t-16 -45.5q25 11 47.5 31.5t39 46.5t26.5 56t10 60zM422 299q0 8 -3 14t-12 6q-10 0 -16 -6t-9.5 -14.5t-5 -18t-1.5 -16.5q0 -17 5 -29q16 11 29 29t13 35zM673 -72q0 11 -9 18.5
t-20 12.5q-1 -3 -1 -6.5v-6.5q0 -10 3.5 -20t11.5 -10q9 0 12 4t3 8zM724 -72q0 21 -10 46.5t-15 44.5q-17 -5 -30 -15.5t-21 -27.5q20 -7 28.5 -21.5t8.5 -23.5q0 -7 -5.5 -16t-19.5 -9q-12 0 -20 12.5t-8 25.5v9t2 9q-5 1 -8.5 1h-7.5q-19 0 -30.5 -10.5t-11.5 -29.5
q0 -14 6.5 -24.5t16.5 -18t23 -11t26 -3.5q12 0 25 4t24.5 12t19 19.5t7.5 26.5zM245 378q-11 20 -35 32.5t-44 12.5q-5 0 -11.5 -1t-13 -3t-11 -7t-4.5 -12q0 -10 7 -16t17.5 -9.5t22.5 -4.5t21 -1q25 0 51 9zM428 -76q0 18 -16.5 30t-32.5 12q-11 0 -19 -6t-8 -19
q0 -9 6 -15.5t15 -10.5t18.5 -5.5t17.5 -1.5q10 0 14.5 2.5t4.5 13.5z" />
    <glyph glyph-name="_438" 
 />
    <glyph glyph-name="_457" 
 />
    <glyph glyph-name="_436" 
 />
    <glyph glyph-name="_437" 
 />
    <glyph glyph-name="_446" 
 />
    <glyph glyph-name="_443" 
 />
    <glyph glyph-name="_440" 
 />
    <glyph glyph-name="_445" 
 />
    <glyph glyph-name="afii10070" horiz-adv-x="348" 
d="M196 116v125h127v-114q0 -73 -24 -101.5t-83 -28.5h-71q-62 0 -91 30t-29 100v397q0 71 26 100t86 29h65q63 0 92 -30t29 -99v-226h-168v-182q0 -26 20 -26q21 0 21 26zM155 535v-154h41v154q0 25 -20 25q-9 0 -15 -6.5t-6 -18.5z" />
    <glyph glyph-name="_439" 
 />
    <glyph glyph-name="_444" 
 />
    <glyph glyph-name="_447" 
 />
    <glyph glyph-name="_448" 
 />
    <glyph glyph-name="_449" 
 />
    <glyph glyph-name="_450" 
 />
    <glyph glyph-name="_451" 
 />
    <glyph glyph-name="_452" 
 />
    <glyph glyph-name="_453" 
 />
    <glyph glyph-name="_458" 
 />
    <glyph glyph-name="_455" 
 />
    <glyph glyph-name="_456" 
 />
    <glyph glyph-name="_459" 
 />
    <glyph glyph-name="_454" 
 />
    <glyph glyph-name="_460" 
 />
    <glyph glyph-name="_461" 
 />
    <glyph glyph-name="_462" 
 />
    <glyph glyph-name="_465" 
 />
    <glyph glyph-name="_464" 
 />
    <glyph glyph-name="_463" 
 />
    <glyph glyph-name="_466" 
 />
    <glyph glyph-name="_487" 
 />
    <glyph glyph-name="_468" 
 />
    <glyph glyph-name="_467" 
 />
    <glyph glyph-name="_471" 
 />
    <glyph glyph-name="_475" 
 />
    <glyph glyph-name="_472" 
 />
    <glyph glyph-name="_470" 
 />
    <glyph glyph-name="_474" 
 />
    <glyph glyph-name="_469" 
 />
    <glyph glyph-name="_476" 
 />
    <glyph glyph-name="_473" 
 />
    <glyph glyph-name="_480" 
 />
    <glyph glyph-name="_483" 
 />
    <glyph glyph-name="_478" 
 />
    <glyph glyph-name="_477" 
 />
    <glyph glyph-name="_442" 
 />
    <glyph glyph-name="_441" 
 />
    <glyph glyph-name="_482" 
 />
    <glyph glyph-name="_481" 
 />
    <glyph glyph-name="_488" 
 />
    <glyph glyph-name="_491" 
 />
    <glyph glyph-name="_486" 
 />
    <glyph glyph-name="_485" 
 />
    <glyph glyph-name="_484" 
 />
    <glyph glyph-name="_479" 
 />
    <glyph glyph-name="_490" 
 />
    <glyph glyph-name="_489" 
 />
    </font>
</defs>
</svg>
