<svg xmlns="http://www.w3.org/2000/svg" width="88" height="88" viewBox="0 0 88 88">
  <g id="Group_18020" data-name="Group 18020" transform="translate(-323 -3035)">
    <rect id="Rectangle_1528" data-name="Rectangle 1528" width="88" height="88" transform="translate(323 3035)" fill="none"/>
    <g id="high-five" transform="translate(323 3041.384)">
      <g id="Group_17997" data-name="Group 17997" transform="translate(42.279 0)">
        <g id="Group_17996" data-name="Group 17996">
          <path id="Path_5155" data-name="Path 5155" d="M247.706,20a1.719,1.719,0,0,0-1.719,1.719V31.944a1.719,1.719,0,0,0,3.438,0V21.719A1.719,1.719,0,0,0,247.706,20Z" transform="translate(-245.987 -20)" fill="#ec2227"/>
        </g>
      </g>
      <g id="Group_17999" data-name="Group 17999" transform="translate(27.213 10.063)">
        <g id="Group_17998" data-name="Group 17998">
          <path id="Path_5156" data-name="Path 5156" d="M165.376,83.161l-4.112-4.109a1.719,1.719,0,1,0-2.43,2.432l4.112,4.109a1.719,1.719,0,1,0,2.43-2.432Z" transform="translate(-158.33 -78.55)" fill="#ec2227"/>
        </g>
      </g>
      <g id="Group_18001" data-name="Group 18001" transform="translate(52.977 10.067)">
        <g id="Group_18000" data-name="Group 18000">
          <path id="Path_5157" data-name="Path 5157" d="M315.538,79.076a1.719,1.719,0,0,0-2.431,0l-4.372,4.375a1.719,1.719,0,0,0,2.432,2.43l4.372-4.375A1.719,1.719,0,0,0,315.538,79.076Z" transform="translate(-308.233 -78.573)" fill="#ec2227"/>
        </g>
      </g>
      <g id="Group_18003" data-name="Group 18003" transform="translate(0 25.825)">
        <g id="Group_18002" data-name="Group 18002">
          <path id="Path_5158" data-name="Path 5158" d="M76.742,189.8H75.355a8.71,8.71,0,0,0,1.807-5.318v-2.426a8.756,8.756,0,1,0-17.512,0v1.886l-12.93-12.93a2.591,2.591,0,0,0-2.72-.606,2.591,2.591,0,0,0-2.72.606l-12.93,12.93v-1.886a8.756,8.756,0,0,0-17.512,0v2.426a8.709,8.709,0,0,0,1.807,5.318H11.258A11.271,11.271,0,0,0,0,201.061v22.773a1.719,1.719,0,0,0,1.719,1.719H8.98a1.72,1.72,0,0,0,.494-.073,1.72,1.72,0,0,0,.494.073h19.25a1.719,1.719,0,0,0,1.719-1.719V217.99a1.719,1.719,0,0,0-3.438,0v4.125H11.687V202.531a1.719,1.719,0,1,0-3.437,0v19.585H3.437V201.061a7.829,7.829,0,0,1,7.82-7.82H23.2a1.714,1.714,0,0,0,1.212-.5l0,0,17.852-17.853a18.926,18.926,0,0,1-3.229,9.98L27.793,201.571a1.72,1.72,0,0,0-.293.96v1.882a1.719,1.719,0,1,0,3.437,0v-1.357l10.956-16.271A22.5,22.5,0,0,0,44,182.864a22.483,22.483,0,0,0,2.107,3.92l10.956,16.271v20.779a1.719,1.719,0,0,0,1.719,1.719h19.25a1.72,1.72,0,0,0,.494-.073,1.72,1.72,0,0,0,.494.073h7.262A1.719,1.719,0,0,0,88,223.834V201.061A11.271,11.271,0,0,0,76.742,189.8Zm-51.83-5.318a5.318,5.318,0,1,1-10.637,0v-2.426a5.318,5.318,0,1,1,10.637,0Zm38.176-2.426a5.318,5.318,0,0,1,10.637,0v2.426a5.318,5.318,0,1,1-10.637,0Zm21.475,40.057H79.75V209.4a1.719,1.719,0,0,0-3.438,0v12.719H60.5V202.531a1.719,1.719,0,0,0-.293-.96L48.958,184.865a18.926,18.926,0,0,1-3.229-9.98l17.852,17.852c.023.023.044.042.065.059a1.71,1.71,0,0,0,1.151.445H76.742a7.829,7.829,0,0,1,7.82,7.82v21.054Z" transform="translate(0 -170.252)" fill="#ec2227"/>
        </g>
      </g>
      <g id="Group_18005" data-name="Group 18005" transform="translate(76.313 56.384)">
        <g id="Group_18004" data-name="Group 18004">
          <path id="Path_5159" data-name="Path 5159" d="M446.934,348.554a1.717,1.717,0,1,0,.5,1.215A1.731,1.731,0,0,0,446.934,348.554Z" transform="translate(-444 -348.05)" fill="#ec2227"/>
        </g>
      </g>
      <g id="Group_18007" data-name="Group 18007" transform="translate(27.5 65.484)">
        <g id="Group_18006" data-name="Group 18006">
          <path id="Path_5160" data-name="Path 5160" d="M162.934,401.5a1.718,1.718,0,1,0,.5,1.215A1.731,1.731,0,0,0,162.934,401.5Z" transform="translate(-160 -401)" fill="#ec2227"/>
        </g>
      </g>
    </g>
  </g>
</svg>
