<svg xmlns="http://www.w3.org/2000/svg" width="88" height="88.001" viewBox="0 0 88 88.001">
  <g id="Group_17895" data-name="Group 17895" transform="translate(8070 5162)">
    <rect id="Rectangle_1528" data-name="Rectangle 1528" width="88" height="88" transform="translate(-8070 -5162)" fill="none"/>
    <g id="Page-1" transform="translate(-8070 -5161.814)">
      <g id="_026---Idea" data-name="026---Idea" transform="translate(0)">
        <path id="Shape" d="M81.829,43.139a3,3,0,0,0-2.92-2.485H76.036l-.211-1.3a3.034,3.034,0,0,0-2.486-2.537c-.283-.046-.568-.077-.849-.116a9.569,9.569,0,0,0-1.131-6.826,6.428,6.428,0,0,0-.327-5.237,6.109,6.109,0,0,0-4.084-3.143A12.764,12.764,0,0,0,54.581,10.858c-.149,0-.281.02-.423.024A6.037,6.037,0,0,0,49.8,8.048,5.945,5.945,0,0,0,44.9,9.7,10,10,0,0,0,39.345,8a10.229,10.229,0,0,0-8.12,4.115A7.238,7.238,0,0,0,24.889,13.2a7.68,7.68,0,0,0-3.134,5.77A6.307,6.307,0,0,0,18,24.773a6.4,6.4,0,0,0,.149,1.306,12.625,12.625,0,0,0-1.427,10.563c-.4.057-.806.107-1.19.165a3.036,3.036,0,0,0-2.505,2.535l-.211,1.307H9.939A3,3,0,0,0,7.02,43.129L.506,77.547a4.691,4.691,0,0,0,.94,3.8A4.414,4.414,0,0,0,4.9,83.016H35.92c1.232,2.091,4.975,3.062,8.5,3.062,3.492,0,7.2-.948,8.466-3.062H83.952A4.414,4.414,0,0,0,87.4,81.348a4.691,4.691,0,0,0,.941-3.8ZM22.5,27.544a3.275,3.275,0,0,1-1.41-3.629A3.158,3.158,0,0,1,24.11,21.54a3.058,3.058,0,0,1,2.5,1.3,1.47,1.47,0,0,0,1.365.608,1.493,1.493,0,0,0,1.195-.912A1.568,1.568,0,0,0,29,21.013a5.973,5.973,0,0,0-4.219-2.449,4.555,4.555,0,0,1,4.411-3.685,4.511,4.511,0,0,1,.542.061q-.18.471-.312.958a1.534,1.534,0,0,0,1.076,1.833,1.483,1.483,0,0,0,1.8-1.067,7.566,7.566,0,0,1,.772-1.917,7.308,7.308,0,0,1,6.275-3.685,7.081,7.081,0,0,1,3.941,1.225,6.385,6.385,0,0,0-.35,2.007,1.488,1.488,0,1,0,2.975,0,3.131,3.131,0,1,1,6.259,0,1.488,1.488,0,1,0,2.975,0c0-.118-.028-.23-.034-.348a9.74,9.74,0,0,1,8.81,7.664A5.972,5.972,0,0,0,62,22.6a1.551,1.551,0,0,0-.584,1.408A1.527,1.527,0,0,0,62.3,25.23a1.453,1.453,0,0,0,1.477-.183,3.068,3.068,0,0,1,3.94.173,3.294,3.294,0,0,1,.66,4,3.211,3.211,0,0,1-1.409,1.341,1.545,1.545,0,0,0-.8,1.713,1.5,1.5,0,0,0,1.437,1.2,1.434,1.434,0,0,0,.631-.145,6.086,6.086,0,0,0,1.111-.715,6.683,6.683,0,0,1-1.259,6.529l-.036.038a6.3,6.3,0,0,1-7.587,1.433,5.88,5.88,0,0,1-.72-.462,5.342,5.342,0,0,0,.393-5.389,1.468,1.468,0,0,0-2.574-.151,1.57,1.57,0,0,0-.085,1.529,2.32,2.32,0,0,1-.717,2.886,2.192,2.192,0,0,1-1.8.316,2.257,2.257,0,0,1-1.432-1.164,1.468,1.468,0,0,0-2.573-.158,1.569,1.569,0,0,0-.089,1.528A5.145,5.145,0,0,0,55.507,42.5a4.978,4.978,0,0,0,1.867-.378,8.8,8.8,0,0,0,1.744,1.225A8.931,8.931,0,0,0,65.99,44a9.447,9.447,0,0,1-6.126,3.866A1.523,1.523,0,0,0,58.619,49.5a1.506,1.506,0,0,0,1.478,1.41,1.539,1.539,0,0,0,.237-.018,11.965,11.965,0,0,0,2.639-.793,13.9,13.9,0,0,1,1.11,2.629,1.62,1.62,0,0,1,.077.494,1.6,1.6,0,0,1-2.9.987,9.483,9.483,0,0,0-4.354-2.978c-3.215-1.108-4.456-2.1-4.982-3.177a13.931,13.931,0,0,0,2.281-.49,1.515,1.515,0,0,0,1.013-1.122,1.559,1.559,0,0,0-.437-1.464,1.457,1.457,0,0,0-1.45-.342,10.989,10.989,0,0,1-2.568.485,10.759,10.759,0,0,1-4.93-.765,1.46,1.46,0,0,0-1.668.427,6.244,6.244,0,0,1-8.544,1,6.678,6.678,0,0,1-1.73-8.668,1.574,1.574,0,0,0,.024-1.535,1.472,1.472,0,0,0-2.584-.043,9.7,9.7,0,0,0-.851,1.97,2.268,2.268,0,0,1-2.114-2.257v-.038a1.536,1.536,0,0,0-.438-1.075,1.45,1.45,0,0,0-1.05-.436,1.526,1.526,0,0,0-1.488,1.549,5.274,5.274,0,0,0,4.619,5.283,9.883,9.883,0,0,0,.135,1.531,8.948,8.948,0,0,1-8.932-3.185,9.573,9.573,0,0,1-1.354-9.627,6.029,6.029,0,0,0,1.107.908,1.464,1.464,0,0,0,2.026-.531,1.557,1.557,0,0,0-.491-2.092Zm-6.546,12.3c.686-.1,1.394-.2,2.1-.291A11.865,11.865,0,0,0,31.1,45a9.341,9.341,0,0,0,6.687,4.985,9.145,9.145,0,0,0,7.91-2.439,13.919,13.919,0,0,0,3.1.579c.719,2.8,2.8,4.5,7.159,6.009a6.582,6.582,0,0,1,3.029,2.053,4.686,4.686,0,0,0,3.594,1.738,4.408,4.408,0,0,0,1.766-.37,4.719,4.719,0,0,0,2.78-4.334,4.662,4.662,0,0,0-.226-1.448,16.991,16.991,0,0,0-1.315-3.115,12.939,12.939,0,0,0,4.944-7.78,9.591,9.591,0,0,0,.857-1.234c.5.066,1,.124,1.5.21L78.26,73.092a49.7,49.7,0,0,0-32.348,0V53.928a1.488,1.488,0,1,0-2.975,0V73.1a49.708,49.708,0,0,0-32.348-.012ZM3.737,79.39a1.551,1.551,0,0,1-.312-1.255L9.939,43.717h2.38L7.651,72.588A3.122,3.122,0,0,0,8.645,75.4a2.922,2.922,0,0,0,2.846.609,48.426,48.426,0,0,1,24.572-1.6l-.443,5.55H4.9a1.482,1.482,0,0,1-1.159-.563Zm40.687,3.625c-3.584,0-5.64-1.09-5.942-1.575l.512-6.353a31.175,31.175,0,0,1,4.787,1.652,1.466,1.466,0,0,0,.643.153,1.444,1.444,0,0,0,.644-.153,31.074,31.074,0,0,1,4.786-1.663l.512,6.363c-.3.487-2.358,1.577-5.942,1.577ZM85.111,79.39a1.482,1.482,0,0,1-1.159.563H53.233l-.446-5.56a48.441,48.441,0,0,1,24.583,1.618,2.921,2.921,0,0,0,2.84-.618,3.121,3.121,0,0,0,.986-2.81L76.531,43.718h2.38l6.516,34.415A1.551,1.551,0,0,1,85.111,79.39Z" transform="translate(-0.424 1.738)" fill="#ec2227"/>
        <path id="Shape-2" data-name="Shape" d="M26.757,23.271a1.217,1.217,0,0,0-.086,1.719,7.34,7.34,0,0,0,3.9,2.249,3.626,3.626,0,0,1-2.963,1.528,1.217,1.217,0,1,0,0,2.434,6.036,6.036,0,0,0,5.671-3.9,7.346,7.346,0,0,0,6.009-5.843A1.217,1.217,0,1,0,36.9,21a4.852,4.852,0,0,1-2.016,3.09,4.969,4.969,0,0,1-6.407-.73,1.217,1.217,0,0,0-1.719-.086Z" transform="translate(13.763 10.765)" fill="#ec2227"/>
        <path id="Shape-3" data-name="Shape" d="M23.417,22.816A1.217,1.217,0,0,0,24.634,21.6,3.165,3.165,0,0,1,27.8,18.434,1.217,1.217,0,0,0,27.8,16a5.605,5.605,0,0,0-5.6,5.6,1.217,1.217,0,0,0,1.217,1.217Z" transform="translate(10.812 8.269)" fill="#ec2227"/>
        <path id="Shape-4" data-name="Shape" d="M31.434,2.434V1.217a1.217,1.217,0,0,0-2.434,0V2.434a1.217,1.217,0,0,0,2.434,0Z" transform="translate(13.783)" fill="#ec2227"/>
        <path id="Shape-5" data-name="Shape" d="M46.694,7.242,45.476,8.46A1.217,1.217,0,1,0,47.2,10.181l1.217-1.217a1.217,1.217,0,1,0-1.721-1.721Z" transform="translate(22.018 1.492)" fill="#ec2227"/>
        <path id="Shape-6" data-name="Shape" d="M14.32,10.537a1.217,1.217,0,0,0,.861-2.078L13.963,7.242a1.217,1.217,0,1,0-1.721,1.721l1.217,1.217a1.217,1.217,0,0,0,.861.357Z" transform="translate(5.325 1.492)" fill="#ec2227"/>
        <path id="Shape-7" data-name="Shape" d="M22.049,6.716a1.234,1.234,0,0,0,.466-.093,1.217,1.217,0,0,0,.659-1.591l-1.4-3.374a1.217,1.217,0,1,0-2.248.932l1.4,3.374a1.217,1.217,0,0,0,1.125.751Z" transform="translate(9.132 0.192)" fill="#ec2227"/>
        <path id="Shape-8" data-name="Shape" d="M40.5,1a1.217,1.217,0,0,0-1.59.659l-1.4,3.374A1.217,1.217,0,0,0,38.17,6.62a1.234,1.234,0,0,0,.466.093,1.217,1.217,0,0,0,1.125-.751l1.4-3.374A1.217,1.217,0,0,0,40.5,1Z" transform="translate(18.181 0.196)" fill="#ec2227"/>
        <path id="Shape-9" data-name="Shape" d="M50.543,18.266a1.217,1.217,0,0,0,.466-.094l3.373-1.4a1.217,1.217,0,1,0-.931-2.249l-3.374,1.4a1.217,1.217,0,0,0,.466,2.343Z" transform="translate(26.197 7.27)" fill="#ec2227"/>
        <path id="Shape-10" data-name="Shape" d="M10.028,18.172a1.217,1.217,0,1,0,.932-2.249l-3.374-1.4a1.217,1.217,0,1,0-.931,2.249Z" transform="translate(0.766 7.269)" fill="#ec2227"/>
      </g>
    </g>
  </g>
</svg>
