<svg xmlns="http://www.w3.org/2000/svg" width="88" height="88" viewBox="0 0 88 88">
  <g id="Group_18021" data-name="Group 18021" transform="translate(-428 -3035)">
    <rect id="Rectangle_1595" data-name="Rectangle 1595" width="88" height="88" transform="translate(428 3035)" fill="none"/>
    <g id="teamwork" transform="translate(428.491 3035)">
      <g id="Group_18009" data-name="Group 18009" transform="translate(0 37.261)">
        <g id="Group_18008" data-name="Group 18008">
          <path id="Path_5161" data-name="Path 5161" d="M77.15,241.15a10.6,10.6,0,1,0-12.783,0A16.707,16.707,0,0,0,58.712,245a16.852,16.852,0,0,0-8.567-7.948,10.6,10.6,0,1,0-12.78,0A16.853,16.853,0,0,0,28.8,245a16.7,16.7,0,0,0-5.655-3.849,10.6,10.6,0,1,0-12.783,0A16.775,16.775,0,0,0,0,256.632v9.913a1.709,1.709,0,0,0,1.709,1.709H85.8a1.709,1.709,0,0,0,1.709-1.709v-9.913A16.775,16.775,0,0,0,77.15,241.15ZM9.571,232.7a7.178,7.178,0,1,1,7.178,7.178A7.187,7.187,0,0,1,9.571,232.7ZM27,252.531v12.3H3.418v-8.2a13.329,13.329,0,0,1,24.033-7.946A16.737,16.737,0,0,0,27,252.531ZM36.576,228.6a7.178,7.178,0,1,1,7.178,7.178A7.187,7.187,0,0,1,36.576,228.6Zm20.51,36.233H53.7v-5.388a1.709,1.709,0,1,0-3.418,0v5.388H30.423v-12.3a13.331,13.331,0,1,1,26.663,0ZM63.581,232.7a7.178,7.178,0,1,1,7.178,7.178A7.187,7.187,0,0,1,63.581,232.7Zm20.51,32.132H60.5v-12.3a16.737,16.737,0,0,0-.446-3.845,13.329,13.329,0,0,1,24.033,7.946Z" transform="translate(0 -218.006)" fill="#ec2227"/>
        </g>
      </g>
      <g id="Group_18011" data-name="Group 18011" transform="translate(51.905 4.764)">
        <g id="Group_18010" data-name="Group 18010">
          <path id="Path_5162" data-name="Path 5162" d="M312.469,28.373a1.709,1.709,0,0,0-2.417,0l-5.865,5.865a1.709,1.709,0,0,0,2.417,2.417l5.865-5.865A1.709,1.709,0,0,0,312.469,28.373Z" transform="translate(-303.686 -27.872)" fill="#ec2227"/>
        </g>
      </g>
      <g id="Group_18013" data-name="Group 18013" transform="translate(26.321 4.764)">
        <g id="Group_18012" data-name="Group 18012">
          <path id="Path_5163" data-name="Path 5163" d="M162.781,34.238l-5.865-5.865A1.709,1.709,0,0,0,154.5,30.79l5.865,5.865a1.709,1.709,0,0,0,2.417-2.417Z" transform="translate(-153.998 -27.872)" fill="#ec2227"/>
        </g>
      </g>
      <g id="Group_18015" data-name="Group 18015" transform="translate(42.045)">
        <g id="Group_18014" data-name="Group 18014">
          <path id="Path_5164" data-name="Path 5164" d="M247.709,0A1.709,1.709,0,0,0,246,1.709V5.382a1.709,1.709,0,1,0,3.418,0V1.709A1.709,1.709,0,0,0,247.709,0Z" transform="translate(-246 0)" fill="#ec2227"/>
        </g>
      </g>
      <g id="Group_18017" data-name="Group 18017" transform="translate(30.348 9.657)">
        <g id="Group_18016" data-name="Group 18016">
          <path id="Path_5165" data-name="Path 5165" d="M204.249,66.149a2.509,2.509,0,0,0-2.038-1.718l-6.2-.9-2.775-5.622a2.525,2.525,0,0,0-4.528,0l-2.775,5.622-6.2.9a2.525,2.525,0,0,0-1.4,4.306l4.49,4.376-1.06,6.179a2.521,2.521,0,0,0,3.663,2.662l5.55-2.918,5.549,2.917a2.524,2.524,0,0,0,3.663-2.661l-1.06-6.179,4.49-4.376A2.509,2.509,0,0,0,204.249,66.149ZM196.4,70.994a2.525,2.525,0,0,0-.726,2.235l.833,4.858-4.362-2.293a2.524,2.524,0,0,0-2.35,0l-4.362,2.293.833-4.858a2.524,2.524,0,0,0-.726-2.234l-3.529-3.44,4.877-.709a2.523,2.523,0,0,0,1.9-1.381l2.181-4.42,2.371,4.8a1.71,1.71,0,0,0,1.286.935l5.3.771Z" transform="translate(-177.562 -56.5)" fill="#ec2227"/>
        </g>
      </g>
      <g id="Group_18019" data-name="Group 18019" transform="translate(50.278 70.339)">
        <g id="Group_18018" data-name="Group 18018">
          <path id="Path_5166" data-name="Path 5166" d="M297.087,412.039a1.71,1.71,0,1,0,.5,1.21A1.723,1.723,0,0,0,297.087,412.039Z" transform="translate(-294.17 -411.54)" fill="#ec2227"/>
        </g>
      </g>
    </g>
  </g>
</svg>
