<svg xmlns="http://www.w3.org/2000/svg" width="88.5" height="88.25" viewBox="0 0 88.5 88.25">
  <g id="Group_18022" data-name="Group 18022" transform="translate(-538.75 -3035)">
    <rect id="Rectangle_1596" data-name="Rectangle 1596" width="88" height="88" transform="translate(539 3035)" fill="none"/>
    <g id="together" transform="translate(539 3039.779)">
      <path id="Path_5167" data-name="Path 5167" d="M88,34.136a4.324,4.324,0,0,0-1.928-3.6,4.257,4.257,0,0,0-.452-5.465,4.466,4.466,0,0,0-3.167-1.334H80.519V15.193a1.289,1.289,0,0,0-2.578,0v8.544H62.354V15.193a1.289,1.289,0,1,0-2.578,0v1.86L53.6,18.283a4.664,4.664,0,0,0-3.377,2.737l-1.164,2.717H43.53a1.289,1.289,0,1,0,0,2.578h6.377a1.289,1.289,0,0,0,1.185-.781l1.5-3.5A2.087,2.087,0,0,1,54.1,20.811l5.674-1.13v4.056H57.97a1.289,1.289,0,0,0,0,2.578H82.453a1.872,1.872,0,0,1,1.327.562,1.69,1.69,0,0,1,.5,1.219,1.756,1.756,0,0,1-1.747,1.714H65.009a1.289,1.289,0,1,0,0,2.578H83.674a1.747,1.747,0,1,1,0,3.495H65.009a1.289,1.289,0,0,0,0,2.578H81.39a1.756,1.756,0,0,1,1.747,1.713,1.69,1.69,0,0,1-.5,1.219,1.874,1.874,0,0,1-1.327.562h-16.3a1.289,1.289,0,0,0,0,2.578H77.962a1.756,1.756,0,0,1,1.747,1.713,1.691,1.691,0,0,1-.5,1.219,1.873,1.873,0,0,1-1.327.562H54.468a4.9,4.9,0,0,1-3.014-1.041L48.283,44.5a12.229,12.229,0,0,0-7.515-2.6H28.224V26.315H37.86a1.289,1.289,0,1,0,0-2.578H28.224V21.8a4.467,4.467,0,0,0-1.334-3.167,4.257,4.257,0,0,0-5.465-.452,4.324,4.324,0,0,0-7.645.867,4.252,4.252,0,0,0-5.018.728,4.479,4.479,0,0,0-1.295,2.58,4.25,4.25,0,0,0-4.778.847,4.467,4.467,0,0,0-1.334,3.167v12.26a1.289,1.289,0,0,0,2.578,0V26.374A1.873,1.873,0,0,1,4.5,25.046a1.676,1.676,0,0,1,1.219-.5,1.756,1.756,0,0,1,1.714,1.747V39.247a1.289,1.289,0,0,0,2.578,0v-16.3a1.873,1.873,0,0,1,.562-1.327,1.7,1.7,0,0,1,1.219-.5A1.755,1.755,0,0,1,13.5,22.867V39.247a1.289,1.289,0,0,0,2.578,0V20.582a1.747,1.747,0,0,1,3.495,0V39.247a1.289,1.289,0,1,0,2.578,0V21.724a1.755,1.755,0,0,1,1.713-1.747,1.685,1.685,0,0,1,1.219.5,1.873,1.873,0,0,1,.562,1.327v25.6a1.289,1.289,0,1,0,2.578,0V44.481h4.056l-1.13,5.674a2.086,2.086,0,0,1-1.225,1.511l-3.5,1.5a1.289,1.289,0,0,0-.781,1.185v6.073s-15.827.008-15.975.023a12.214,12.214,0,0,0-2.208-4.472L4.975,52.8a4.9,4.9,0,0,1-1.041-3.013V44.3a1.289,1.289,0,0,0-2.578,0v5.484a7.493,7.493,0,0,0,1.591,4.605l2.489,3.172a9.624,9.624,0,0,1,1.827,3.9c-.108.091-.212.186-.312.288A4.251,4.251,0,0,0,6.1,66.535a4.479,4.479,0,0,0-2.58,1.294,4.253,4.253,0,0,0-.729,5.016,4.326,4.326,0,0,0-.866,7.646,4.257,4.257,0,0,0,.452,5.465,4.466,4.466,0,0,0,3.167,1.334H7.481v8.544a1.289,1.289,0,1,0,2.578,0V87.291H25.646v8.544a1.289,1.289,0,1,0,2.578,0v-1.86l6.177-1.23a4.664,4.664,0,0,0,3.377-2.737l1.164-2.717H59.776v1.934a4.467,4.467,0,0,0,1.334,3.167,4.257,4.257,0,0,0,5.465.452,4.324,4.324,0,0,0,7.645-.867,4.252,4.252,0,0,0,5.018-.728,4.479,4.479,0,0,0,1.295-2.58,4.25,4.25,0,0,0,4.778-.847,4.467,4.467,0,0,0,1.334-3.167V61.24a7.493,7.493,0,0,0-1.591-4.605l-2.489-3.172a9.624,9.624,0,0,1-1.827-3.9q.162-.136.312-.288a4.251,4.251,0,0,0,.848-4.778,4.479,4.479,0,0,0,2.58-1.294,4.252,4.252,0,0,0,.728-5.018A4.333,4.333,0,0,0,88,34.136ZM28.224,55.2l2.717-1.164a4.664,4.664,0,0,0,2.738-3.377l1.23-6.177h5.859a9.641,9.641,0,0,1,5.924,2.046l3.172,2.489a7.493,7.493,0,0,0,4.605,1.591h5.307v5.223l-2.717,1.165a4.664,4.664,0,0,0-2.738,3.377l-1.23,6.177H47.232A9.641,9.641,0,0,1,41.309,64.5l-3.172-2.489a7.493,7.493,0,0,0-4.605-1.591H28.224Zm52.313-.144,2.489,3.172a4.9,4.9,0,0,1,1.041,3.013V84.655a1.873,1.873,0,0,1-.562,1.327,1.7,1.7,0,0,1-1.219.5,1.756,1.756,0,0,1-1.714-1.747V71.782a1.289,1.289,0,0,0-2.578,0v16.3a1.873,1.873,0,0,1-.562,1.327,1.668,1.668,0,0,1-1.219.5A1.755,1.755,0,0,1,74.5,88.162V71.782a1.289,1.289,0,1,0-2.578,0V90.447a1.747,1.747,0,0,1-3.495,0V71.782a1.289,1.289,0,0,0-2.578,0V89.3a1.755,1.755,0,0,1-1.713,1.747,1.694,1.694,0,0,1-1.219-.5,1.873,1.873,0,0,1-.562-1.327V77.691a1.289,1.289,0,1,0-2.578,0v7.022H38.093a1.289,1.289,0,0,0-1.185.781l-1.5,3.5A2.087,2.087,0,0,1,33.9,90.217l-5.674,1.13V87.291h1.533a1.289,1.289,0,1,0,0-2.578H5.547a1.872,1.872,0,0,1-1.327-.562,1.69,1.69,0,0,1-.5-1.219,1.756,1.756,0,0,1,1.747-1.713H22.991a1.289,1.289,0,1,0,0-2.578H4.325a1.747,1.747,0,1,1,0-3.495H22.991a1.289,1.289,0,0,0,0-2.578H6.611a1.756,1.756,0,0,1-1.747-1.714,1.69,1.69,0,0,1,.5-1.219,1.874,1.874,0,0,1,1.327-.562h16.3a1.289,1.289,0,1,0,0-2.578H10.038a1.756,1.756,0,0,1-1.747-1.713,1.69,1.69,0,0,1,.5-1.219A1.873,1.873,0,0,1,10.117,63H33.532a4.9,4.9,0,0,1,3.014,1.041l3.172,2.489a12.229,12.229,0,0,0,7.515,2.6H59.776v2.9a1.289,1.289,0,0,0,2.578,0v-8.4a1.289,1.289,0,1,0-2.578,0v2.925H55.72l1.13-5.674a2.086,2.086,0,0,1,1.225-1.511l3.5-1.5a1.289,1.289,0,0,0,.781-1.185V50.606s15.827-.008,15.975-.023a12.209,12.209,0,0,0,2.208,4.472Z" transform="translate(0 -13.904)" fill="#ec2227" stroke="#ec2227" stroke-width="0.5"/>
    </g>
  </g>
</svg>
